<svg id="Camada_1" data-name="Camada 1" xmlns="http://www.w3.org/2000/svg" width="45.48" height="46.89" viewBox="0 0 45.48 46.89"><defs><style>.cls-1{fill:#010101;}.cls-2{fill:#e73c31;}.cls-3{fill:#0a7ec2;}.cls-4{fill:#fff;}</style></defs><path class="cls-1" d="M2.81,15.72l.89-1.65v0c.16-.47,0-.56-.42-.81C-1.7,9.85.84,7.86,8.69,6.84c.37,0,.56-.39.58-1.1A6.42,6.42,0,0,1,15.57.63C21.11.27,25.85.91,28.89,3.74L34.1,5.26a1.83,1.83,0,0,0,1.41-.18c3-.81,5.55.19,7.59,3.55,2.24,4.25,2.71,9.06.34,11.86a6.37,6.37,0,0,1-8.93,1.12l-.22-.18A23.79,23.79,0,0,1,31.5,18c-2.71-3.29-5.77-4.36-9.07-3.83-2.06.29-3.38,1.8-4,4.43-.58,5.24,1.07,9.59,5.7,12.74,4.61,2.83,9.17,2.37,13.68-1.28,2.08-2.08,5.44-1.49,6.4,1.83,1.46,5.49-2.77,10.68-6.47,10.57a26.26,26.26,0,0,1-25,1.51C7,40.93,3.44,36.8,1.65,31.78Q-1.2,22.54,2.83,15.69"/><path class="cls-2" d="M34.71,6.51c2.75-.91,5-.56,6.46,1.59,3.45,4.71,3.8,9.86.34,12.54-2.57,2.08-6.27.95-8.14-2.26-2.64-4.44-6.32-6.37-11.14-5.52-3.89.92-5.69,4.07-4.92,10,1,5.3,3.88,9.45,10.46,11.32a13,13,0,0,0,10.9-3.2c1.57-1.36,3.21-1.25,4.2.93,1.41,3.88-1.74,9.71-5.38,9.29C30,45.88,22.18,46.36,14,43.17,6.2,39.33,2.33,33.43,1.71,25.79c0-7.13,3-12.37,7.9-16.54C16.07,4.43,24.1,2.84,34.71,6.51Z"/><path class="cls-1" d="M5.26,13.89A28.53,28.53,0,0,1,9.12,9.68c5.22-.13,11.82,1.69,19.48,5l5.14,3.86.13-5a6.65,6.65,0,0,0-1.56-5.18L29.73,4.49,16.3,1.16,9.88,5.55,9.45,7.34l-7.36,3Z"/><path class="cls-3" d="M2,9.35a30.2,30.2,0,0,1,15.76.23C15.12,8.14,9.58,7.87,3.24,8.66,11,5.11,23.66,8.28,28.6,14.72c-9.15-4.61-17.41-7-24.12-5.07a16.82,16.82,0,0,1,4.25-.23,16.06,16.06,0,0,0-3.47,4.47C0,11.59,1.09,9.65,2,9.35Z"/><path class="cls-3" d="M16.3,1.16A17.38,17.38,0,0,1,27.76,3.09a27.27,27.27,0,0,1,5,6.79,5.59,5.59,0,0,1,.69,4L33.51,18,30,15.37,28.1,13.6V9.67l-.27-2.13c-.81-3.89-.62-4-4.13-5.42A34.19,34.19,0,0,0,16.3,1.16Z"/><path class="cls-4" d="M9.88,6.66,10.66,4c.92-1.8,1.93-2.33,4.16-2.56A19.65,19.65,0,0,1,24.91,2.71c1.49.47,2.41,1.72,2.6,4a22,22,0,0,1,0,6.07A28,28,0,0,0,9.88,6.66Z"/><path class="cls-1" d="M4.49,18.65c0-1.68,1.24-2,2.19-.77h0l.07.09H6.69c-1.24-.55-1.6-.47-2.07.63l-.08,0h0Z"/><path class="cls-1" d="M14.15,18.65c1.33-1,2.35-.23,1.94,1.25h0V20L16,20c-.33-1.33-.62-1.56-1.77-1.25h-.09v0Z"/><path class="cls-1" d="M4.16,25.26c-.76-3.4-.06-5.3,2-5.85,1.87-.12,3,1.56,1.58,5.93a.25.25,0,0,1,.07.34.27.27,0,0,1-.32.09,6.16,6.16,0,0,0-3.68.1c-.33,0-.43-.35-.07-.48Z"/><path class="cls-1" d="M10.24,25.69c-.14.22-.12.49.26.39a5.23,5.23,0,0,1,3.58.92c.33.23.62.1.42-.23a1.26,1.26,0,0,0-.55-.36c1.18-2.16,1.43-4.76.1-6-1.4-1-2.43-.65-3.17.86A8.52,8.52,0,0,0,10.24,25.69Z"/><circle class="cls-4" cx="12.75" cy="21.33" r="0.71"/><circle class="cls-4" cx="6.35" cy="20.89" r="0.71"/><path class="cls-4" d="M4.38,22.22A6,6,0,0,0,4.51,25a6.92,6.92,0,0,1,2.83.17,9.64,9.64,0,0,0,.49-2.49C6.73,25.06,4.74,24.57,4.38,22.22Z"/><path class="cls-4" d="M11,22.68a5.91,5.91,0,0,0-.23,2.77,7,7,0,0,1,2.78.52,8.92,8.92,0,0,0,.79-2.42C13,25.8,11.08,25.06,11,22.68Z"/><ellipse class="cls-1" cx="9.04" cy="28.26" rx="1.03" ry="1.88" transform="translate(-20.17 33.44) rotate(-82.31)"/><ellipse class="cls-4" cx="9.04" cy="28.18" rx="0.73" ry="1.22" transform="translate(-20.27 32.23) rotate(-80.07)"/><path class="cls-1" d="M5.44,29.54l.22,1h.2l.14.07a8.66,8.66,0,0,1,2,4.35c.44,1.67,1.93,1.82,2.92.44a19.73,19.73,0,0,0,2.49-3.84c.11-.18.28-.26.62-.13s.49-.07.12-.54l-.48-.62c-.14-.12-.38-.13-.79.07A7.6,7.6,0,0,1,6,29.65l-.15-.1Z"/><path class="cls-2" d="M8.21,34c.16,1.11.42,2,1.47,1.77a3.34,3.34,0,0,0,1.39-1.37C10.05,33.5,9.09,33.3,8.21,34Z"/><path class="cls-1" d="M8.06,36.87c-.34-.29-.62.19-.33.44A1.88,1.88,0,0,0,9.64,38a2.11,2.11,0,0,0,1.18-.87c.25-.24-.18-.62-.38-.31A1.4,1.4,0,0,1,8.06,36.87Z"/><path class="cls-1" d="M13.05,3.1,13.16,3h0V3c-.32-.37-.07-.47.57-.37,0,0,0,0,.07-.07a.52.52,0,0,1,.62-.25,1.41,1.41,0,0,1,1,.51l.37.24a.24.24,0,0,0,.12,0,.53.53,0,0,1,.51.45.89.89,0,0,1-.25.94.52.52,0,0,1-.73-.09l0,0a1.36,1.36,0,0,1-.14-.33.76.76,0,0,0-.62-.51.42.42,0,0,0-.42.25,1,1,0,0,0,.15,1.13A.89.89,0,0,0,15.47,5a.3.3,0,0,1,.41.11.29.29,0,0,1,0,.18.68.68,0,0,1-.76.68,2.15,2.15,0,0,1-2-.48,1.81,1.81,0,0,1-.58-1.21,1.55,1.55,0,0,1,.46-1.24"/><path class="cls-2" d="M15.76,3.12a.42.42,0,0,1,.47.28c.16.44.07.86-.27,1a.46.46,0,0,1-.56-.3s0,0,0-.07a.83.83,0,0,0-.75-.69c-.32,0-.53.18-.62.66a1.13,1.13,0,0,0,.56,1.14,1.1,1.1,0,0,0,.94,0,.2.2,0,0,1,.3.16c0,.35-.36.72-.62.63a2,2,0,0,1-1.87-.39,1.65,1.65,0,0,1-.56-1.64,1.69,1.69,0,0,1,1-1.12A2.1,2.1,0,0,1,15.76,3.12Z"/><path class="cls-1" d="M13.28,3a3.26,3.26,0,0,1,.4-.24,3.86,3.86,0,0,1,1.41.86l.31.42.13-.42a.56.56,0,0,0,0-.44l-.14-.36-1-.57-.62.19-.08.13-.62.06Z"/><path class="cls-3" d="M13.13,2.59A2.44,2.44,0,0,1,14.38,3a2.38,2.38,0,0,0-1.12-.41,1.94,1.94,0,0,1,1.86,1.07,2.79,2.79,0,0,0-1.77-1,1.3,1.3,0,0,1,.34.08,1.1,1.1,0,0,0-.38.27C12.9,2.72,13.06,2.59,13.13,2.59Z"/><path class="cls-3" d="M14.45,2.28a1.45,1.45,0,0,1,.85.41,2.8,2.8,0,0,1,.23.63.43.43,0,0,1,0,.33l-.1.35-.22-.29-.09-.18.09-.31V3c0-.32.05-.33-.2-.51A2.08,2.08,0,0,0,14.45,2.28Z"/><path class="cls-4" d="M13.81,2.56l.13-.19a.36.36,0,0,1,.38-.11,1.64,1.64,0,0,1,.76.34.31.31,0,0,1,.11.37,1.74,1.74,0,0,1-.14.48A2.27,2.27,0,0,0,13.81,2.56Z"/><path class="cls-1" d="M13.11,3.37c0-.13.15-.12.19,0h0c-.09-.07-.12-.07-.18,0h0Z"/><path class="cls-1" d="M13.87,3.6c.13-.05.19,0,.12.14h0c0-.11,0-.14-.1-.14h0Z"/><path class="cls-1" d="M12.93,3.88c0-.28.12-.42.29-.41s.2.19,0,.5h0a.51.51,0,0,0-.32-.05,0,0,0,1,1,0,0Z"/><path class="cls-1" d="M13.4,4.06v0a.48.48,0,0,1,.26.16h0a.05.05,0,0,0,0,0c.14-.14.23-.33.15-.46s-.17-.11-.27,0A.71.71,0,0,0,13.4,4.06Z"/><circle class="cls-4" cx="13.7" cy="3.78" r="0.06"/><circle class="cls-4" cx="13.21" cy="3.59" r="0.06"/><path class="cls-4" d="M13,3.65a.34.34,0,0,0,0,.22.54.54,0,0,1,.21.08.5.5,0,0,0,.1-.19C13.14,3.92,13,3.84,13,3.65Z"/><path class="cls-4" d="M13.53,3.84a.4.4,0,0,0-.09.21.53.53,0,0,1,.21.11A.88.88,0,0,0,13.77,4C13.61,4.13,13.48,4,13.53,3.84Z"/><ellipse class="cls-1" cx="13.25" cy="4.23" rx="0.09" ry="0.16" transform="translate(3.96 14.58) rotate(-65.81)"/><ellipse class="cls-4" cx="13.24" cy="4.23" rx="0.06" ry="0.1" transform="translate(3.57 14.2) rotate(-63.57)"/><path class="cls-1" d="M12.93,4.27v.08h0a.66.66,0,0,1,.05.39c0,.14.12.19.23.11a2.6,2.6,0,0,0,.32-.26s0,0,0,0h0s0,0,0,0V4.49h-.06A.62.62,0,0,1,13,4.27h0Z"/><path class="cls-2" d="M13.05,4.66c0,.09,0,.17.07.17a.27.27,0,0,0,.14-.07C13.2,4.67,13.13,4.63,13.05,4.66Z"/><path class="cls-1" d="M13,4.9s-.05,0,0,0a.16.16,0,0,0,.14.09.15.15,0,0,0,.11,0v0A.1.1,0,0,1,13,5,.11.11,0,0,1,13,4.9Z"/><path class="cls-1" d="M16,4.9c.14-.2.71-.17.74,0a.33.33,0,0,1,.42.22.33.33,0,0,1,0,.14.59.59,0,0,1,.83,0,.54.54,0,0,1,.11.18c.14-.15.67-.16.69.06a.35.35,0,0,1,.48.17h0a.38.38,0,0,1,.53.11.37.37,0,0,1,0,.38A.58.58,0,0,1,20.07,6a.62.62,0,0,1,.86.21l.06.13c.12-.21.23-.24.33-.2a2.58,2.58,0,0,0,.53.19c.13,0,.24.09.25.22h.09c-.27-.27.08-.63.45-.46a.26.26,0,0,1,.22.3.25.25,0,0,1-.14.2c.05,0,.07.11,0,.25a.33.33,0,0,1,.1-.06c.31-.07.57-.09.62.1a.44.44,0,0,1,.55.32.13.13,0,0,1,0,.06.53.53,0,0,1,.41-.13c.2,0,.32,0,.35.14a.43.43,0,0,1,.39.08c.23.16.22.48,0,.91,0,.07,0,.12,0,.13a.22.22,0,0,1,0,.27c-.14.16-.62.06-.74-.14a.65.65,0,0,1-.62-.2.72.72,0,0,1-.68-.19A.61.61,0,0,1,22.46,8a.65.65,0,0,1-.73-.23c-.1.09-.18.12-.24.08a2.27,2.27,0,0,0-.62-.21.2.2,0,0,1-.18-.19,1.14,1.14,0,0,1,.38-.54l-.11,0a.8.8,0,0,1-.34.48.63.63,0,0,1-.87-.15.67.67,0,0,1-.09-.21c0,.27-.51.26-.72,0a.62.62,0,0,1-.58-.17c-.21.08-.62-.08-.62-.28a.63.63,0,0,1-.8-.16.74.74,0,0,1-.09-.66.31.31,0,0,1-.32-.07l0,.17a0,0,0,0,0,0,0c.12.14.11.27,0,.36A.7.7,0,0,1,15.71,6a.29.29,0,0,1,.08-.32.05.05,0,0,1,.05,0L16,5.17A.2.2,0,0,1,16,4.9Z"/><path class="cls-2" d="M16,5.65c-.12,0-.17.1-.15.19s.21.2.51.26.22-.1.15-.22-.06-.11,0-.18l.05-.18c.05-.15.08-.21.1-.16s.07.21.15.22.34-.15.32-.39A.22.22,0,0,0,16.72,5c0,.07-.07.1-.09.07s0-.2,0-.2c-.54-.08-.62.13-.46.25A2.13,2.13,0,0,1,16,5.65Z"/><path class="cls-2" d="M18,5.84c0,.11-.08.15-.16.12l-.38-.11c-.05,0-.07,0-.08,0,0,.25.16.33.42.24.08,0,.08.11,0,.22a.48.48,0,0,1-.66,0,.7.7,0,0,1,.12-1,.67.67,0,0,1,.36-.14.48.48,0,0,1,.42.52A.65.65,0,0,1,18,5.84Z"/><path class="cls-2" d="M18.18,5.72c0-.1,0-.18.06-.22a.55.55,0,0,1,.31,0c.07,0,.14,0,.14.08l0,.13s0,0,.06,0c.18-.16.44-.12.47.1s0,.09.14,0c.25-.14.48,0,.41.35s-.12.42-.17.63,0,.19,0,.23a.52.52,0,0,1-.45-.12c-.07-.1,0-.15.05-.23a2.46,2.46,0,0,0,.15-.53c0-.1-.05-.11-.11-.08a1.85,1.85,0,0,0-.16.52A.2.2,0,0,1,19,6.8c-.1.06-.25,0-.42-.07s-.07-.13,0-.22a.2.2,0,0,0,.08-.12,2.79,2.79,0,0,0,.1-.39c0-.14-.09-.15-.14,0l-.12.41c0,.13,0,.22-.1.26A.54.54,0,0,1,18,6.59c-.1,0-.1-.13,0-.22a.26.26,0,0,0,.11-.14l.12-.42Z"/><path class="cls-2" d="M20.53,6.05a.62.62,0,0,0-.76.44.63.63,0,0,0,0,.43.5.5,0,0,0,.57.35.7.7,0,0,0,.55-.65A.55.55,0,0,0,20.53,6.05Z"/><path class="cls-2" d="M21.21,6.3c-.23.27-.22.39-.11.44s.08,0,.12-.1l.05,0c.13,0,.17,0,.12.1L21.14,7l-.25.26c-.08.12-.09.21,0,.24a2.79,2.79,0,0,1,.58.18c.07.07.15,0,.23-.06a.37.37,0,0,0,.1-.33c-.05-.1-.1-.07-.17,0s-.11.08-.18,0,0-.06.07-.15l.41-.47c.08-.11.08-.18-.05-.22a2,2,0,0,1-.62-.2Z"/><ellipse class="cls-2" cx="22.5" cy="6.36" rx="0.19" ry="0.28" transform="translate(15.32 28.61) rotate(-87.91)"/><path class="cls-2" d="M22.16,6.68a1,1,0,0,1,.49,0s.05,0,0,.09l-.22.72a.21.21,0,0,0,0,.19c0,.11,0,.18-.12.19a.57.57,0,0,1-.5-.18c-.07-.12,0-.18.1-.21s.05,0,.06-.1L22.12,7a.12.12,0,0,0,0-.15.12.12,0,0,1,.05-.16Z"/><path class="cls-2" d="M22.66,7.72c-.09,0-.15.15,0,.27a.59.59,0,0,0,.41.06.12.12,0,0,0,.07-.17v0a.88.88,0,0,1,.07-.32l.06-.16a.11.11,0,1,1,.22,0h0a1.5,1.5,0,0,1-.15.51c-.1.06-.17.19,0,.26s.39.15.49.08a.17.17,0,0,0,0-.21.93.93,0,0,1,.07-.33c.15-.41.08-.57-.07-.65a.29.29,0,0,0-.39,0c-.05,0-.05,0,0-.06s0-.16-.11-.16A1.14,1.14,0,0,0,23,6.9a.11.11,0,0,0-.08.14.08.08,0,0,0,0,0s.05.07,0,.12l-.17.5Z"/><path class="cls-2" d="M24,8.1c-.09.06-.16.16,0,.28a.73.73,0,0,0,.41.07.14.14,0,0,0,.07-.18v0a.71.71,0,0,1,.07-.32l.06-.16a.09.09,0,0,1,.11-.07.12.12,0,0,1,.07.07,1.5,1.5,0,0,1-.15.51c-.1.06-.16.18,0,.25s.4.15.5.09.06-.14,0-.22,0-.17.08-.32c.14-.42.07-.58-.07-.66a.29.29,0,0,0-.39,0c-.05,0-.06,0,0-.06s0-.16-.12-.16a1.57,1.57,0,0,0-.37,0,.12.12,0,0,0-.09.15l0,0c.05,0,.05.07,0,.12L24,8.07Z"/></svg>