<svg id="Camada_1" data-name="Camada 1" xmlns="http://www.w3.org/2000/svg" width="48.54" height="48.25" viewBox="0 0 48.54 48.25"><defs><style>.cls-1{fill:#010101;}.cls-2{fill:#e73c31;}.cls-3{fill:#0a7ec2;}.cls-4{fill:#fff;}</style></defs><path class="cls-1" d="M2,26.42l.62-1.15v0c.11-.33,0-.39-.3-.56C-1.18,22.34.59,21,6,20.25c.26,0,.39-.26.41-.76A4.46,4.46,0,0,1,10.8,16c3.84-.25,7.13.2,9.23,2.16l3.62,1.05a1.25,1.25,0,0,0,1-.13c2.06-.55,3.85.14,5.26,2.46,1.55,3,1.88,6.29.23,8.23a4.42,4.42,0,0,1-6.19.78l-.15-.12A17.72,17.72,0,0,1,21.84,28a6.43,6.43,0,0,0-6.28-2.65c-1.44.2-2.35,1.25-2.79,3.08a8.74,8.74,0,0,0,3.95,8.83c3.2,2,6.36,1.64,9.49-.89a2.57,2.57,0,0,1,4.43,1.27c1,3.81-1.91,7.41-4.48,7.33A18.24,18.24,0,0,1,8.82,46a15.14,15.14,0,0,1-7.67-8.43c-1.33-4.27-1-8,.81-11.16"/><path class="cls-2" d="M24.07,20c1.91-.63,3.45-.39,4.48,1.1,2.39,3.27,2.64,6.83.24,8.69-1.78,1.45-4.35.66-5.65-1.56-1.83-3.08-4.38-4.42-7.72-3.83-2.7.64-3.95,2.82-3.41,6.9a9.33,9.33,0,0,0,7.25,7.85A9,9,0,0,0,26.82,37c1.09-.94,2.23-.86,2.91.64,1,2.7-1.21,6.74-3.73,6.45a17.2,17.2,0,0,1-16.29,1.4C4.3,42.79,1.62,38.7,1.18,33.39A14.32,14.32,0,0,1,6.66,21.93C11.15,18.58,16.71,17.48,24.07,20Z"/><path class="cls-1" d="M3.65,25.15a20.09,20.09,0,0,1,2.68-2.93c3.61-.09,8.19,1.18,13.5,3.5L23.4,28.4l.09-3.51a4.61,4.61,0,0,0-1.08-3.58l-1.8-2.68L11.3,16.32l-4.45,3-.3,1.24-5.1,2.08Z"/><path class="cls-3" d="M1.38,22a20.89,20.89,0,0,1,10.93.16c-1.82-1-5.67-1.19-10.06-.64,5.4-2.47,14.16-.26,17.58,4.2C13.49,22.52,7.76,20.9,3.1,22.2A12.18,12.18,0,0,1,6.05,22a11.36,11.36,0,0,0-2.4,3.11C0,23.55.75,22.2,1.38,22Z"/><path class="cls-3" d="M11.3,16.32a12.08,12.08,0,0,1,8,1.33,18.67,18.67,0,0,1,3.45,4.72,3.84,3.84,0,0,1,.48,2.75l.06,2.9L20.8,26.17,19.48,25V22.22l-.18-1.48C18.74,18,18.87,18,16.44,17A23.51,23.51,0,0,0,11.3,16.32Z"/><path class="cls-4" d="M6.85,20.13l.54-1.82c.64-1.25,1.34-1.62,2.89-1.78a13.67,13.67,0,0,1,7,.86c1,.33,1.68,1.2,1.8,2.75a14.85,14.85,0,0,1,0,4.21A19.42,19.42,0,0,0,6.85,20.13Z"/><path class="cls-1" d="M3.11,28.45c0-1.17.87-1.4,1.52-.54h0l0,.07h0c-.86-.39-1.11-.34-1.44.43l-.05,0h0Z"/><path class="cls-1" d="M9.81,28.45c.92-.71,1.63-.16,1.35.86h0v.08l0,0c-.22-.93-.43-1.09-1.22-.87H9.84v0Z"/><path class="cls-1" d="M2.88,33c-.52-2.36,0-3.67,1.36-4.06,1.29-.08,2.05,1.09,1.09,4.11a.18.18,0,0,1,0,.24.17.17,0,0,1-.22.06,4.35,4.35,0,0,0-2.55.07c-.23,0-.3-.24,0-.33Z"/><path class="cls-1" d="M7.1,33.33c-.09.15-.08.34.18.27a3.59,3.59,0,0,1,2.48.64c.24.16.43.06.29-.16a.77.77,0,0,0-.37-.25c.81-1.5,1-3.3.07-4.19-1-.72-1.69-.46-2.2.59A5.9,5.9,0,0,0,7.1,33.33Z"/><circle class="cls-4" cx="8.84" cy="30.3" r="0.49"/><circle class="cls-4" cx="4.41" cy="30" r="0.49"/><path class="cls-4" d="M3,30.92a4.15,4.15,0,0,0,.09,1.92,5,5,0,0,1,2,.12,6.4,6.4,0,0,0,.34-1.73C4.67,32.89,3.29,32.55,3,30.92Z"/><path class="cls-4" d="M7.65,31.24a4.31,4.31,0,0,0-.16,1.92,5,5,0,0,1,1.94.36A6.16,6.16,0,0,0,10,31.85C9,33.4,7.68,32.89,7.65,31.24Z"/><ellipse class="cls-1" cx="6.27" cy="35.11" rx="0.72" ry="1.3" transform="translate(-29.36 36.63) rotate(-82.31)"/><ellipse class="cls-4" cx="6.27" cy="35.05" rx="0.5" ry="0.85" transform="translate(-29.34 35.19) rotate(-80.07)"/><path class="cls-1" d="M3.77,36l.16.69h.14l.09,0a6,6,0,0,1,1.36,3c.31,1.16,1.34,1.27,2,.3a13.68,13.68,0,0,0,1.72-2.65c.07-.13.19-.19.43-.1s.34,0,.08-.37l-.33-.43c-.1-.09-.26-.09-.55,0a5.27,5.27,0,0,1-4.74-.47L4.06,36Z"/><path class="cls-2" d="M5.7,39.09c.1.76.29,1.42,1,1.22a2.28,2.28,0,0,0,1-1C7,38.75,6.3,38.61,5.7,39.09Z"/><path class="cls-1" d="M5.59,41.08c-.24-.2-.43.13-.23.31a1.32,1.32,0,0,0,1.33.45,1.45,1.45,0,0,0,.81-.61c.18-.16-.12-.43-.26-.21A1,1,0,0,1,5.59,41.08Z"/><path class="cls-1" d="M9.05,17.66l.07-.05h0v-.05c-.22-.26,0-.33.4-.26,0,0,0,0,.05,0a.35.35,0,0,1,.43-.18,1,1,0,0,1,.67.35l.26.17H11a.36.36,0,0,1,.35.32.61.61,0,0,1-.17.65.35.35,0,0,1-.5-.07l0,0a2.44,2.44,0,0,1-.1-.24.51.51,0,0,0-.43-.35.29.29,0,0,0-.29.18.72.72,0,0,0,.11.78.6.6,0,0,0,.76.15.22.22,0,0,1,.3.07.2.2,0,0,1,0,.13c0,.32-.32.54-.52.47a1.47,1.47,0,0,1-1.39-.33,1.24,1.24,0,0,1-.4-.84,1.06,1.06,0,0,1,.32-.86"/><path class="cls-2" d="M10.93,17.68a.29.29,0,0,1,.33.19c.11.31,0,.6-.19.68a.31.31,0,0,1-.39-.2.09.09,0,0,0,0-.05.56.56,0,0,0-.51-.48c-.23,0-.38.13-.44.46a.79.79,0,0,0,.39.79.74.74,0,0,0,.65,0,.14.14,0,0,1,.21.11c0,.24-.25.5-.43.43a1.37,1.37,0,0,1-1.29-.26,1.13,1.13,0,0,1-.39-1.14,1.16,1.16,0,0,1,.69-.77A1.41,1.41,0,0,1,10.93,17.68Z"/><path class="cls-1" d="M9.21,17.61a1.56,1.56,0,0,1,.28-.16,2.74,2.74,0,0,1,1,.59l.21.3.09-.3a.39.39,0,0,0,0-.3l-.1-.25-.67-.4-.43.14-.05.09-.43,0Z"/><path class="cls-3" d="M9.11,17.31a1.76,1.76,0,0,1,.86.26,1.57,1.57,0,0,0-.78-.28,1.34,1.34,0,0,1,1.3.74,2,2,0,0,0-1.23-.67,1.05,1.05,0,0,1,.24.06,1,1,0,0,0-.27.18C9,17.4,9.06,17.31,9.11,17.31Z"/><path class="cls-3" d="M10,17.09a1,1,0,0,1,.59.29,1.72,1.72,0,0,1,.16.43.31.31,0,0,1,0,.23l-.07.25-.15-.21L10.46,18l.06-.22v-.12c0-.22,0-.23-.14-.36A1.49,1.49,0,0,0,10,17.09Z"/><path class="cls-4" d="M9.58,17.29l.08-.13a.26.26,0,0,1,.27-.08,1.07,1.07,0,0,1,.53.24c.08,0,.1.13.08.25a1.26,1.26,0,0,1-.1.33A1.56,1.56,0,0,0,9.58,17.29Z"/><path class="cls-1" d="M9.09,17.85c0-.09.1-.09.13,0h0c-.06-.05-.08-.05-.12,0h0Z"/><path class="cls-1" d="M9.62,18c.09,0,.13,0,.08.09h0c0-.07,0-.09-.07-.09h0Z"/><path class="cls-1" d="M9,18.2c0-.19.08-.28.2-.28s.14.13,0,.34h0a.42.42,0,0,0-.22,0,0,0,0,0,1,0,0Z"/><path class="cls-1" d="M9.29,18.32v0a.31.31,0,0,1,.18.11h0l0,0a.31.31,0,0,0,.11-.33c-.05-.09-.12-.07-.19,0A.62.62,0,0,0,9.29,18.32Z"/><circle class="cls-4" cx="9.5" cy="18.13" r="0.04"/><circle class="cls-4" cx="9.16" cy="18" r="0.04"/><path class="cls-4" d="M9,18a.29.29,0,0,0,0,.16.25.25,0,0,1,.15.05.33.33,0,0,0,.07-.13C9.11,18.23,9,18.18,9,18Z"/><path class="cls-4" d="M9.38,18.17a.47.47,0,0,0-.06.15l.15.07a.44.44,0,0,0,.08-.11C9.44,18.38,9.35,18.31,9.38,18.17Z"/><ellipse class="cls-1" cx="9.19" cy="18.45" rx="0.06" ry="0.11" transform="translate(-11.41 19.27) rotate(-65.81)"/><ellipse class="cls-4" cx="9.18" cy="18.44" rx="0.04" ry="0.07" transform="translate(-11.42 18.46) rotate(-63.57)"/><path class="cls-1" d="M9,18.48v.05H9a.42.42,0,0,1,0,.27c0,.1.08.13.16.07a1.84,1.84,0,0,0,.22-.17s0,0,0,0h0s0,0,0,0v0h0A.43.43,0,0,1,9,18.48H9Z"/><path class="cls-2" d="M9.05,18.74c0,.07,0,.12,0,.12a.14.14,0,0,0,.1-.05C9.16,18.75,9.11,18.72,9.05,18.74Z"/><path class="cls-1" d="M9,18.91s0,0,0,0a.11.11,0,0,0,.09.07.19.19,0,0,0,.08,0v0A.07.07,0,0,1,9,19,.07.07,0,0,1,9,18.91Z"/><path class="cls-1" d="M11.1,18.91c.1-.14.49-.12.52,0a.23.23,0,0,1,.29.15.34.34,0,0,1,0,.1.41.41,0,0,1,.57,0l.08.13c.1-.1.46-.11.48,0a.25.25,0,0,1,.33.12h0a.27.27,0,0,1,.37.07.26.26,0,0,1,0,.27.44.44,0,0,1,.15-.12.43.43,0,0,1,.59.14.36.36,0,0,1,0,.09c.09-.14.16-.16.24-.13a1.4,1.4,0,0,0,.36.13c.09,0,.17.06.17.15h.07c-.19-.19,0-.43.31-.32a.18.18,0,0,1,.15.21.16.16,0,0,1-.1.14s.06.08,0,.17l.07,0c.22,0,.4-.06.43.07a.31.31,0,0,1,.39.22s0,0,0,0a.37.37,0,0,1,.28-.09c.13,0,.22,0,.24.1a.27.27,0,0,1,.27.06c.16.11.15.33,0,.63,0,.05,0,.08,0,.09a.15.15,0,0,1,0,.18c-.09.11-.43.05-.51-.09a.45.45,0,0,1-.43-.14.5.5,0,0,1-.47-.13.41.41,0,0,1-.45-.15.47.47,0,0,1-.51-.16c-.07.06-.12.08-.17.05a1.57,1.57,0,0,0-.43-.15.12.12,0,0,1-.12-.12.84.84,0,0,1,.26-.38.11.11,0,0,1-.07,0,.6.6,0,0,1-.24.34.43.43,0,0,1-.6-.11.37.37,0,0,1-.07-.14c0,.19-.35.18-.49,0a.47.47,0,0,1-.41-.12c-.15.05-.43-.06-.43-.2a.42.42,0,0,1-.55-.11.54.54,0,0,1-.07-.46.21.21,0,0,1-.22-.05l0,.13v0c.09.1.08.19,0,.25a.49.49,0,0,1-.54-.15.2.2,0,0,1,.06-.22s0,0,0,0l.11-.29A.17.17,0,0,1,11.1,18.91Z"/><path class="cls-2" d="M11.08,19.43c-.08,0-.12.07-.1.13s.14.14.35.18.15-.07.1-.15,0-.08,0-.13l0-.12c0-.1.05-.14.06-.11s.05.15.1.15.24-.1.23-.27a.16.16,0,0,0-.17-.13.11.11,0,0,0-.08,0s-.05.07-.05,0,0-.13,0-.13c-.38-.06-.44.09-.32.17A1.93,1.93,0,0,1,11.08,19.43Z"/><path class="cls-2" d="M12.48,19.56c0,.08-.05.11-.11.08l-.26-.07s0,0-.06,0c0,.18.11.23.3.17s.05.07,0,.15a.34.34,0,0,1-.46,0,.48.48,0,0,1,.08-.67.46.46,0,0,1,.25-.1.33.33,0,0,1,.29.36A.32.32,0,0,1,12.48,19.56Z"/><path class="cls-2" d="M12.61,19.48c0-.07,0-.13,0-.15a.37.37,0,0,1,.21,0c.05,0,.1,0,.1.05l0,.09s0,0,0,0,.31-.08.33.07,0,.06.09,0,.34,0,.29.25a3,3,0,0,0-.12.43.34.34,0,0,1,0,.16.4.4,0,0,1-.32-.08c-.05-.07,0-.11,0-.16a2.24,2.24,0,0,0,.1-.37c0-.07,0-.07-.08-.06a1.58,1.58,0,0,0-.11.37.14.14,0,0,1,0,.15c-.07,0-.17,0-.29-.05s0-.09,0-.16A.08.08,0,0,0,12.9,20c0-.09.06-.19.08-.28s-.07-.1-.1,0L12.8,20c0,.09,0,.15-.07.18a.39.39,0,0,1-.26-.06c-.07,0-.07-.09,0-.15a.18.18,0,0,0,.07-.1l.09-.29Z"/><path class="cls-2" d="M14.24,19.71a.43.43,0,0,0-.53.3.39.39,0,0,0,0,.3.34.34,0,0,0,.4.24.46.46,0,0,0,.37-.45A.37.37,0,0,0,14.24,19.71Z"/><path class="cls-2" d="M14.71,19.88c-.16.19-.16.27-.08.3s.06,0,.09-.06l0,0c.09,0,.12,0,.09.07l-.18.19-.17.18c-.06.08-.07.14,0,.17a1.85,1.85,0,0,1,.4.12c0,.05.1,0,.16,0a.25.25,0,0,0,.07-.23c0-.07-.07-.05-.12,0s-.08.05-.13,0,0,0,.06-.11l.28-.33c0-.07,0-.12,0-.15a1.41,1.41,0,0,1-.44-.14Z"/><ellipse class="cls-2" cx="15.6" cy="19.92" rx="0.13" ry="0.19" transform="translate(-4.88 34.79) rotate(-87.91)"/><path class="cls-2" d="M15.37,20.14a1,1,0,0,1,.34,0s0,0,0,.07l-.15.5a.13.13,0,0,0,0,.12c0,.09,0,.13-.08.14a.39.39,0,0,1-.35-.13c-.05-.08,0-.12.07-.14s0,0,0-.07l.08-.26a.07.07,0,0,0,0-.1.1.1,0,0,1,0-.12Z"/><path class="cls-2" d="M15.71,20.87c-.06,0-.1.1,0,.18a.42.42,0,0,0,.29.05.09.09,0,0,0,.05-.12v0a.59.59,0,0,1,.05-.22l0-.11a.08.08,0,0,1,.08-.08.08.08,0,0,1,.07.08h0a.88.88,0,0,1-.1.36c-.07,0-.12.13,0,.18s.27.1.34,0a.11.11,0,0,0,0-.15.59.59,0,0,1,.05-.22c.1-.29.05-.4-.05-.45a.19.19,0,0,0-.27,0s0,0,0-.05,0-.1-.08-.1a.58.58,0,0,0-.26,0,.07.07,0,0,0-.05.1s0,0,0,0,0,.05,0,.09l-.12.34Z"/><path class="cls-2" d="M16.63,21.13c-.07,0-.11.11,0,.19a.47.47,0,0,0,.28.05.09.09,0,0,0,.05-.12h0A.59.59,0,0,1,17,21l0-.11a.07.07,0,0,1,.08,0,.12.12,0,0,1,.05,0,1.08,1.08,0,0,1-.1.35c-.07.05-.12.13,0,.18s.27.1.34.06,0-.09,0-.15,0-.12.06-.22c.1-.3.05-.41,0-.46a.2.2,0,0,0-.27,0s0,0,0,0,0-.11-.08-.11a1.15,1.15,0,0,0-.26,0,.08.08,0,0,0-.06.1.05.05,0,0,0,0,0s0,0,0,.08l-.12.35Z"/><path class="cls-1" d="M6.9,15.64l.62-1.14v0c.11-.32,0-.39-.29-.56C3.78,11.57,5.54,10.19,11,9.48c.26,0,.39-.27.4-.76a4.45,4.45,0,0,1,4.37-3.54c3.84-.25,7.13.19,9.24,2.15L28.6,8.38a1.25,1.25,0,0,0,1-.13c2.06-.55,3.85.14,5.27,2.47,1.54,2.95,1.88,6.28.23,8.22a4.4,4.4,0,0,1-6.19.78l-.16-.12a16.29,16.29,0,0,1-1.93-2.41,6.46,6.46,0,0,0-6.29-2.66c-1.43.2-2.35,1.26-2.79,3.08a8.75,8.75,0,0,0,4,8.83c3.2,2,6.37,1.65,9.49-.89a2.58,2.58,0,0,1,4.44,1.27c1,3.81-1.92,7.41-4.49,7.33A18.16,18.16,0,0,1,13.78,35.2,15.12,15.12,0,0,1,6.1,26.77q-2-6.4.81-11.15"/><path class="cls-2" d="M29,9.25c1.9-.63,3.45-.39,4.47,1.1,2.4,3.27,2.64,6.84.24,8.7-1.78,1.44-4.35.66-5.64-1.57-1.84-3.07-4.39-4.42-7.73-3.83-2.7.64-3.95,2.83-3.41,6.9a9.32,9.32,0,0,0,7.25,7.85,9,9,0,0,0,7.56-2.22c1.09-.94,2.23-.86,2.92.65,1,2.69-1.21,6.73-3.74,6.44-5.17,3.28-10.61,3.61-16.29,1.4-5.41-2.66-8.09-6.75-8.52-12a14.29,14.29,0,0,1,5.48-11.47C16.1,7.81,21.66,6.7,29,9.25Z"/><path class="cls-1" d="M8.6,14.37a19.51,19.51,0,0,1,2.68-2.92c3.62-.09,8.19,1.17,13.51,3.49l3.56,2.68.09-3.5a4.59,4.59,0,0,0-1.08-3.59L25.57,7.85,16.26,5.54,11.81,8.59l-.3,1.23L6.41,11.9Z"/><path class="cls-3" d="M6.33,11.22a20.89,20.89,0,0,1,10.93.16c-1.82-1-5.66-1.19-10.06-.64,5.41-2.46,14.16-.26,17.59,4.2-6.35-3.2-12.08-4.81-16.73-3.52A12.13,12.13,0,0,1,11,11.27a11,11,0,0,0-2.41,3.1C5,12.77,5.71,11.42,6.33,11.22Z"/><path class="cls-3" d="M16.26,5.54a12.09,12.09,0,0,1,8,1.33,19.29,19.29,0,0,1,3.45,4.72,3.79,3.79,0,0,1,.47,2.75l.06,2.91-2.43-1.86-1.32-1.22V11.44L24.25,10c-.56-2.7-.43-2.8-2.86-3.76A22.76,22.76,0,0,0,16.26,5.54Z"/><path class="cls-4" d="M11.81,9.35l.53-1.82a3,3,0,0,1,2.89-1.78,13.62,13.62,0,0,1,7,.87c1,.32,1.67,1.19,1.8,2.74a15.62,15.62,0,0,1,0,4.21A19.44,19.44,0,0,0,11.81,9.35Z"/><path class="cls-1" d="M8.07,17.67c0-1.16.86-1.39,1.51-.53h0l.05.06h0c-.86-.38-1.11-.33-1.43.43l-.05,0h0Z"/><path class="cls-1" d="M14.76,17.67c.93-.71,1.63-.16,1.35.86h0v.08l0,0c-.23-.92-.44-1.08-1.23-.86h-.06v0Z"/><path class="cls-1" d="M7.84,22.25c-.53-2.35,0-3.67,1.35-4.05,1.3-.09,2.05,1.08,1.1,4.11a.16.16,0,0,1,0,.24.16.16,0,0,1-.21.05,4.38,4.38,0,0,0-2.56.07c-.23,0-.3-.23,0-.32Z"/><path class="cls-1" d="M12.06,22.55c-.1.15-.09.34.18.27a3.67,3.67,0,0,1,2.48.64c.23.16.43.07.29-.16a.82.82,0,0,0-.38-.25c.82-1.5,1-3.3.07-4.19-1-.72-1.69-.45-2.2.6A5.85,5.85,0,0,0,12.06,22.55Z"/><circle class="cls-4" cx="13.8" cy="19.52" r="0.49"/><circle class="cls-4" cx="9.36" cy="19.22" r="0.49"/><path class="cls-4" d="M8,20.14a4.15,4.15,0,0,0,.09,1.92,5,5,0,0,1,2,.12,6.4,6.4,0,0,0,.34-1.72C9.62,22.11,8.24,21.78,8,20.14Z"/><path class="cls-4" d="M12.61,20.46a4,4,0,0,0-.16,1.92,4.74,4.74,0,0,1,1.93.37,6.62,6.62,0,0,0,.55-1.68C14,22.63,12.64,22.12,12.61,20.46Z"/><ellipse class="cls-1" cx="11.23" cy="24.33" rx="0.72" ry="1.3" transform="translate(-14.39 32.2) rotate(-82.31)"/><ellipse class="cls-4" cx="11.22" cy="24.28" rx="0.5" ry="0.85" transform="translate(-14.62 31.15) rotate(-80.07)"/><path class="cls-1" d="M8.73,25.22l.15.68H9l.09.05a5.85,5.85,0,0,1,1.37,3c.31,1.15,1.34,1.26,2,.3a14.07,14.07,0,0,0,1.72-2.66c.08-.13.2-.18.44-.09s.33-.05.07-.38l-.33-.43c-.09-.08-.26-.09-.54.05a5.29,5.29,0,0,1-4.75-.46L9,25.23Z"/><path class="cls-2" d="M10.65,28.31c.11.76.29,1.42,1,1.22a2.26,2.26,0,0,0,1-1C11.92,28,11.26,27.83,10.65,28.31Z"/><path class="cls-1" d="M10.55,30.3c-.25-.2-.43.14-.24.31a1.32,1.32,0,0,0,1.33.45,1.47,1.47,0,0,0,.82-.6c.17-.17-.13-.43-.27-.22A1,1,0,0,1,10.55,30.3Z"/><path class="cls-1" d="M14,6.89l.08,0h0V6.78c-.22-.26-.05-.32.4-.25,0,0,0,0,0,0A.36.36,0,0,1,15,6.3a1,1,0,0,1,.68.35l.26.17H16a.37.37,0,0,1,.36.32.61.61,0,0,1-.18.65.35.35,0,0,1-.5-.07v0a1.15,1.15,0,0,1-.1-.23.53.53,0,0,0-.43-.36.28.28,0,0,0-.29.18.68.68,0,0,0,.11.78.6.6,0,0,0,.76.15A.21.21,0,0,1,16,8.3a.28.28,0,0,1,0,.13.47.47,0,0,1-.52.47,1.5,1.5,0,0,1-1.39-.34,1.21,1.21,0,0,1-.41-.84A1.08,1.08,0,0,1,14,6.86"/><path class="cls-2" d="M15.89,6.9a.3.3,0,0,1,.32.19c.11.31.05.6-.19.69a.31.31,0,0,1-.38-.21.08.08,0,0,1,0,0A.59.59,0,0,0,15.11,7c-.22,0-.37.13-.43.46a.77.77,0,0,0,.39.79.72.72,0,0,0,.64,0,.14.14,0,0,1,.21.12c0,.23-.25.5-.43.43a1.4,1.4,0,0,1-1.29-.27,1.13,1.13,0,0,1-.39-1.14,1.17,1.17,0,0,1,.7-.77A1.44,1.44,0,0,1,15.89,6.9Z"/><path class="cls-1" d="M14.16,6.84a1.61,1.61,0,0,1,.28-.17,2.68,2.68,0,0,1,1,.6l.22.29.09-.29a.42.42,0,0,0,0-.31l-.1-.25L15,6.31l-.43.14,0,.09-.43,0Z"/><path class="cls-3" d="M14.06,6.53a1.73,1.73,0,0,1,.86.26,1.63,1.63,0,0,0-.77-.28,1.34,1.34,0,0,1,1.29.74,2,2,0,0,0-1.23-.66.69.69,0,0,1,.24,0,.83.83,0,0,0-.26.19C13.9,6.62,14,6.53,14.06,6.53Z"/><path class="cls-3" d="M15,6.31a1,1,0,0,1,.59.29,1.4,1.4,0,0,1,.16.43.36.36,0,0,1,0,.23l-.07.25-.15-.2-.07-.13L15.48,7V6.84c0-.22,0-.22-.14-.35A1.81,1.81,0,0,0,15,6.31Z"/><path class="cls-4" d="M14.53,6.51l.09-.13a.23.23,0,0,1,.27-.07,1.11,1.11,0,0,1,.52.23c.08,0,.1.13.08.25a1.15,1.15,0,0,1-.1.33A1.61,1.61,0,0,0,14.53,6.51Z"/><path class="cls-1" d="M14.05,7.07c0-.09.1-.08.13,0h0c-.06,0-.08-.05-.13,0Z"/><path class="cls-1" d="M14.57,7.23c.09,0,.13,0,.09.1h0c0-.08,0-.1-.08-.1h0Z"/><path class="cls-1" d="M13.92,7.43c0-.2.09-.29.2-.29s.14.14,0,.35h0a.34.34,0,0,0-.22,0s0,0,0,0Z"/><path class="cls-1" d="M14.25,7.55v0a.34.34,0,0,1,.17.11h0l0,0a.29.29,0,0,0,.1-.32c0-.09-.12-.08-.18,0A.44.44,0,0,0,14.25,7.55Z"/><circle class="cls-4" cx="14.45" cy="7.35" r="0.04"/><circle class="cls-4" cx="14.11" cy="7.22" r="0.04"/><path class="cls-4" d="M14,7.27a.37.37,0,0,0,0,.15.43.43,0,0,1,.16,0,.26.26,0,0,0,.06-.13C14.07,7.46,14,7.4,14,7.27Z"/><path class="cls-4" d="M14.33,7.4a.24.24,0,0,0-.05.14l.14.08a.83.83,0,0,0,.08-.12C14.39,7.6,14.3,7.53,14.33,7.4Z"/><ellipse class="cls-1" cx="14.14" cy="7.67" rx="0.06" ry="0.11" transform="translate(1.35 17.42) rotate(-65.81)"/><ellipse class="cls-4" cx="14.14" cy="7.67" rx="0.04" ry="0.07" transform="translate(0.98 16.91) rotate(-63.57)"/><path class="cls-1" d="M13.92,7.7v0h0A.51.51,0,0,1,14,8a.09.09,0,0,0,.15.08,1,1,0,0,0,.22-.18h0s0,0,0,0v0h0A.43.43,0,0,1,14,7.7h0Z"/><path class="cls-2" d="M14,8c0,.06,0,.12.05.12a.21.21,0,0,0,.1-.06C14.11,8,14.06,7.94,14,8Z"/><path class="cls-1" d="M14,8.13s0,0,0,0a.12.12,0,0,0,.1.07.13.13,0,0,0,.08,0v0a.09.09,0,0,1-.11,0S14,8.15,14,8.13Z"/><path class="cls-1" d="M16.06,8.13c.09-.13.49-.12.51,0a.23.23,0,0,1,.29.16.28.28,0,0,1,0,.09.4.4,0,0,1,.57,0,.29.29,0,0,1,.08.13c.1-.11.47-.11.48,0a.26.26,0,0,1,.33.12h0a.27.27,0,0,1,.37.08.24.24,0,0,1,0,.26.57.57,0,0,1,.15-.12.44.44,0,0,1,.6.15l0,.09c.08-.15.16-.17.23-.14a1.74,1.74,0,0,0,.36.13c.1,0,.17.06.18.15h.06c-.18-.18.06-.43.31-.32a.2.2,0,0,1,.16.21.19.19,0,0,1-.1.14s.05.08,0,.18l.07,0c.21-.05.4-.07.43.06a.31.31,0,0,1,.38.23,0,0,0,0,1,0,0,.41.41,0,0,1,.28-.09c.14,0,.22,0,.24.1a.31.31,0,0,1,.28.06c.16.11.14.34,0,.63,0,0,0,.09,0,.09a.17.17,0,0,1,0,.19c-.1.11-.43,0-.52-.1a.44.44,0,0,1-.43-.14A.46.46,0,0,1,21,10.4a.42.42,0,0,1-.45-.15.44.44,0,0,1-.5-.16c-.07.06-.13.08-.17.05a2.16,2.16,0,0,0-.43-.14.15.15,0,0,1-.13-.13.84.84,0,0,1,.26-.38l-.07,0a.61.61,0,0,1-.24.33.43.43,0,0,1-.6-.1.47.47,0,0,1-.06-.15c0,.19-.35.18-.5,0a.44.44,0,0,1-.4-.12c-.15.05-.43-.06-.43-.2a.43.43,0,0,1-.56-.11.53.53,0,0,1-.06-.46.21.21,0,0,1-.22,0l0,.12s0,0,0,0,.07.19,0,.25a.48.48,0,0,1-.54-.15.2.2,0,0,1,.05-.22,0,0,0,0,1,0,0l.12-.3A.14.14,0,0,1,16.06,8.13Z"/><path class="cls-2" d="M16,8.65c-.08,0-.11.08-.1.14s.15.13.35.17.16-.07.11-.15,0-.08,0-.12l0-.13c0-.1.05-.14.06-.11s.06.15.11.15.24-.1.22-.27a.15.15,0,0,0-.17-.13.11.11,0,0,0-.07,0s-.05.07-.06,0,0-.14,0-.14c-.38-.06-.43.09-.32.17A1.35,1.35,0,0,1,16,8.65Z"/><path class="cls-2" d="M17.44,8.79c0,.07-.06.1-.11.08l-.27-.08s0,0,0,0,.1.22.29.16.06.07,0,.15a.33.33,0,0,1-.46,0,.49.49,0,0,1,.08-.67.6.6,0,0,1,.25-.1.33.33,0,0,1,.29.36A.36.36,0,0,1,17.44,8.79Z"/><path class="cls-2" d="M17.56,8.7c0-.07,0-.13,0-.15a.41.41,0,0,1,.22,0c.05,0,.09,0,.09,0l0,.09s0,0,0,0,.31-.08.33.07,0,.06.1,0,.33,0,.29.25a3.45,3.45,0,0,0-.12.43c0,.07,0,.13,0,.16a.35.35,0,0,1-.32-.08c0-.07,0-.1,0-.16a1.56,1.56,0,0,0,.1-.37c0-.07,0-.07-.08-.05a1.36,1.36,0,0,0-.1.36.14.14,0,0,1-.05.15c-.07,0-.17,0-.29,0s0-.09,0-.15a.16.16,0,0,0,.06-.08,2.29,2.29,0,0,0,.07-.28c0-.09-.06-.1-.09,0l-.09.29c0,.09,0,.15-.07.18a.4.4,0,0,1-.26,0c-.06,0-.07-.09,0-.16a.14.14,0,0,0,.08-.1l.08-.29Z"/><path class="cls-2" d="M19.19,8.93a.43.43,0,0,0-.52.31.44.44,0,0,0,0,.3.36.36,0,0,0,.4.24.49.49,0,0,0,.38-.46A.38.38,0,0,0,19.19,8.93Z"/><path class="cls-2" d="M19.66,9.1c-.16.19-.15.27-.07.31s.05,0,.08-.07l0,0c.09,0,.12,0,.09.06l-.18.19-.17.18c-.06.08-.07.15,0,.17a1.7,1.7,0,0,1,.4.13c.05,0,.11,0,.16,0a.25.25,0,0,0,.07-.23c0-.06-.07,0-.12,0s-.07,0-.12,0,0,0,.05-.1l.28-.33c.06-.08.06-.13,0-.15a1.57,1.57,0,0,1-.43-.15Z"/><ellipse class="cls-2" cx="20.55" cy="9.15" rx="0.13" ry="0.19" transform="translate(10.67 29.35) rotate(-87.91)"/><path class="cls-2" d="M20.32,9.37a.65.65,0,0,1,.34,0s0,0,0,.06l-.15.5a.11.11,0,0,0,0,.13c0,.08,0,.13-.09.14a.39.39,0,0,1-.34-.13c-.05-.09,0-.12.06-.15s0,0,0-.07l.07-.26a.08.08,0,0,0,0-.1.08.08,0,0,1,0-.11Z"/><path class="cls-2" d="M20.67,10.09c-.07,0-.11.1,0,.18a.4.4,0,0,0,.28.05A.09.09,0,0,0,21,10.2h0A.86.86,0,0,1,21,10l0-.11a.08.08,0,0,1,.08-.07.07.07,0,0,1,.07.07h0a.88.88,0,0,1-.1.36c-.06,0-.11.13,0,.18s.27.1.34.06a.12.12,0,0,0,0-.16.59.59,0,0,1,.05-.22c.1-.29.05-.4,0-.45a.2.2,0,0,0-.28,0s0,0,0,0,0-.11-.07-.11a.57.57,0,0,0-.26,0,.08.08,0,0,0-.06.1s0,0,0,0,0,0,0,.09l-.12.34Z"/><path class="cls-2" d="M21.58,10.36c-.06,0-.1.1,0,.19a.48.48,0,0,0,.29,0,.09.09,0,0,0,0-.12h0a.59.59,0,0,1,.05-.23l0-.11a.06.06,0,0,1,.08,0,0,0,0,0,1,0,0,.88.88,0,0,1-.1.36c-.07,0-.11.12,0,.17s.27.11.34.06.05-.09,0-.15,0-.12.06-.22c.1-.3,0-.4-.05-.46a.2.2,0,0,0-.27,0s0,0,0,0,0-.11-.08-.11l-.26,0a.09.09,0,0,0-.06.11l0,0s0,0,0,.08l-.12.35Z"/><path class="cls-1" d="M15.29,25.87l.61-1.14v0c.11-.33,0-.39-.29-.57-3.45-2.34-1.69-3.72,3.75-4.43.26,0,.39-.27.41-.76a4.45,4.45,0,0,1,4.37-3.54c3.83-.25,7.12.19,9.23,2.16L37,18.62a1.29,1.29,0,0,0,1-.13c2.07-.56,3.85.14,5.27,2.46,1.55,2.95,1.88,6.29.23,8.23a4.42,4.42,0,0,1-6.19.78l-.15-.13a15.58,15.58,0,0,1-1.94-2.41c-1.88-2.28-4-3-6.29-2.65-1.43.2-2.34,1.25-2.78,3.07a8.73,8.73,0,0,0,3.95,8.84c3.19,2,6.36,1.64,9.49-.89A2.56,2.56,0,0,1,44,37.06c1,3.81-1.92,7.41-4.48,7.33a18.24,18.24,0,0,1-17.34,1A15.19,15.19,0,0,1,14.48,37q-2-6.4.82-11.16"/><path class="cls-2" d="M37.41,19.49c1.91-.63,3.45-.4,4.48,1.1,2.39,3.27,2.63,6.83.23,8.69-1.78,1.45-4.35.66-5.64-1.56-1.83-3.08-4.38-4.42-7.73-3.83-2.7.63-3.94,2.82-3.41,6.9a9.34,9.34,0,0,0,7.26,7.85,9,9,0,0,0,7.55-2.22c1.09-1,2.23-.86,2.92.64,1,2.7-1.21,6.74-3.73,6.44A17.19,17.19,0,0,1,23,44.91c-5.4-2.66-8.09-6.75-8.52-12.06A14.34,14.34,0,0,1,20,21.38C24.48,18,30.05,16.94,37.41,19.49Z"/><path class="cls-1" d="M17,24.61a20.18,20.18,0,0,1,2.68-2.93c3.62-.09,8.2,1.17,13.51,3.5l3.57,2.67.08-3.5a4.6,4.6,0,0,0-1.07-3.59L34,18.08l-9.31-2.3-4.45,3-.3,1.24-5.1,2.07Z"/><path class="cls-3" d="M14.72,21.46a20.75,20.75,0,0,1,10.92.16c-1.82-1-5.66-1.19-10.06-.65,5.41-2.46,14.16-.25,17.59,4.21-6.34-3.2-12.08-4.82-16.73-3.52a12.16,12.16,0,0,1,2.95-.16A11.4,11.4,0,0,0,17,24.61C13.34,23,14.09,21.66,14.72,21.46Z"/><path class="cls-3" d="M24.64,15.78a12.09,12.09,0,0,1,8,1.33A18.8,18.8,0,0,1,36,21.82a3.87,3.87,0,0,1,.48,2.76l0,2.9-2.43-1.85L32.82,24.4V21.68l-.18-1.48c-.56-2.7-.44-2.8-2.87-3.76A23.34,23.34,0,0,0,24.64,15.78Z"/><path class="cls-4" d="M20.19,19.59l.54-1.82c.64-1.26,1.34-1.62,2.89-1.78a13.69,13.69,0,0,1,7,.86c1,.33,1.67,1.2,1.8,2.74a14.92,14.92,0,0,1,0,4.22A19.36,19.36,0,0,0,20.19,19.59Z"/><path class="cls-1" d="M16.45,27.91c0-1.17.86-1.4,1.52-.54h0l.05.06h0c-.87-.38-1.12-.33-1.44.44l-.05,0h0Z"/><path class="cls-1" d="M23.15,27.91c.92-.71,1.63-.16,1.35.86h0v.08l0,0c-.23-.92-.43-1.08-1.23-.86h-.06v0Z"/><path class="cls-1" d="M16.22,32.49c-.52-2.36,0-3.67,1.36-4.06,1.29-.08,2,1.08,1.09,4.11a.17.17,0,0,1-.17.3,4.35,4.35,0,0,0-2.55.07c-.24,0-.3-.24-.06-.33Z"/><path class="cls-1" d="M20.44,32.79c-.1.15-.08.34.18.26a3.69,3.69,0,0,1,2.48.64c.23.17.43.07.29-.16a.9.9,0,0,0-.38-.25c.82-1.49,1-3.3.07-4.18-1-.72-1.68-.46-2.2.59A6,6,0,0,0,20.44,32.79Z"/><circle class="cls-4" cx="22.18" cy="29.76" r="0.49"/><circle class="cls-4" cx="17.74" cy="29.46" r="0.49"/><path class="cls-4" d="M16.38,30.38a4.16,4.16,0,0,0,.09,1.92,4.64,4.64,0,0,1,2,.12,6.8,6.8,0,0,0,.34-1.73C18,32.35,16.63,32,16.38,30.38Z"/><path class="cls-4" d="M21,30.7a4.17,4.17,0,0,0-.16,1.92,4.9,4.9,0,0,1,1.93.36,6.13,6.13,0,0,0,.55-1.68C22.35,32.86,21,32.35,21,30.7Z"/><ellipse class="cls-1" cx="19.61" cy="34.57" rx="0.72" ry="1.3" transform="translate(-17.27 49.37) rotate(-82.31)"/><ellipse class="cls-4" cx="19.61" cy="34.51" rx="0.5" ry="0.85" transform="translate(-17.77 47.87) rotate(-80.07)"/><path class="cls-1" d="M17.11,35.45l.15.68h.14l.1,0a6,6,0,0,1,1.36,3c.31,1.16,1.34,1.26,2,.3a13.57,13.57,0,0,0,1.73-2.65c.07-.13.19-.19.43-.1s.33,0,.08-.37L22.79,36c-.09-.09-.25-.09-.54,0a5.27,5.27,0,0,1-4.74-.47l-.11-.07Z"/><path class="cls-2" d="M19,38.54c.11.77.29,1.42,1,1.23a2.34,2.34,0,0,0,1-1C20.31,38.2,19.64,38.07,19,38.54Z"/><path class="cls-1" d="M18.93,40.54c-.24-.2-.43.13-.23.3A1.32,1.32,0,0,0,20,41.3a1.5,1.5,0,0,0,.81-.61c.18-.17-.12-.43-.26-.21A1,1,0,0,1,18.93,40.54Z"/><path class="cls-1" d="M22.38,17.12l.08-.05h0V17c-.22-.26-.05-.33.4-.26,0,0,0,0,.05-.05a.35.35,0,0,1,.43-.17,1,1,0,0,1,.67.35l.26.17a.11.11,0,0,0,.08,0,.35.35,0,0,1,.35.31.6.6,0,0,1-.17.65A.36.36,0,0,1,24,18l0,0a1.6,1.6,0,0,1-.1-.23.51.51,0,0,0-.43-.35.3.3,0,0,0-.29.17.72.72,0,0,0,.11.79.61.61,0,0,0,.76.15.21.21,0,0,1,.29.07.16.16,0,0,1,0,.13c0,.32-.32.54-.52.47a1.47,1.47,0,0,1-1.39-.33,1.24,1.24,0,0,1-.4-.84,1.06,1.06,0,0,1,.32-.86"/><path class="cls-2" d="M24.27,17.14a.27.27,0,0,1,.32.19c.11.31.05.6-.18.68A.31.31,0,0,1,24,17.8s0,0,0,0a.56.56,0,0,0-.52-.48c-.22,0-.37.13-.43.46a.75.75,0,0,0,.39.78.74.74,0,0,0,.65,0,.14.14,0,0,1,.21.12c0,.24-.25.5-.43.43a1.42,1.42,0,0,1-1.3-.27,1.15,1.15,0,0,1-.39-1.13,1.19,1.19,0,0,1,.7-.78A1.44,1.44,0,0,1,24.27,17.14Z"/><path class="cls-1" d="M22.55,17.07l.27-.17a2.82,2.82,0,0,1,1,.6l.22.3.09-.3a.39.39,0,0,0,0-.3L24,17l-.67-.4-.43.13-.06.09-.43.05Z"/><path class="cls-3" d="M22.44,16.76a1.78,1.78,0,0,1,.87.27,1.57,1.57,0,0,0-.78-.28,1.32,1.32,0,0,1,1.29.74,2,2,0,0,0-1.22-.67.86.86,0,0,1,.23.06.76.76,0,0,0-.26.18C22.29,16.86,22.39,16.76,22.44,16.76Z"/><path class="cls-3" d="M23.35,16.55a1,1,0,0,1,.6.29,2,2,0,0,1,.16.43.31.31,0,0,1,0,.23l-.07.24-.15-.2-.07-.12.07-.22v-.12c0-.22,0-.23-.14-.36A1.56,1.56,0,0,0,23.35,16.55Z"/><path class="cls-4" d="M22.91,16.74l.09-.13a.27.27,0,0,1,.27-.07,1.11,1.11,0,0,1,.52.23.21.21,0,0,1,.08.26,1.35,1.35,0,0,1-.09.33A1.66,1.66,0,0,0,22.91,16.74Z"/><path class="cls-1" d="M22.43,17.31c0-.09.1-.09.13,0h0c-.06,0-.08,0-.12,0h0Z"/><path class="cls-1" d="M23,17.46c.09,0,.14,0,.09.1h0c0-.07,0-.09-.07-.09h0Z"/><path class="cls-1" d="M22.31,17.66c0-.19.08-.29.2-.28s.13.13,0,.34h0a.34.34,0,0,0-.22,0s0,0,0,0Z"/><path class="cls-1" d="M22.63,17.78v0a.29.29,0,0,1,.18.11h0s0,0,0,0,.16-.24.1-.33-.12-.07-.18,0A.49.49,0,0,0,22.63,17.78Z"/><circle class="cls-4" cx="22.84" cy="17.59" r="0.04"/><circle class="cls-4" cx="22.5" cy="17.46" r="0.04"/><path class="cls-4" d="M22.37,17.5a.28.28,0,0,0,0,.15.47.47,0,0,1,.15.06.54.54,0,0,0,.07-.13C22.45,17.69,22.35,17.64,22.37,17.5Z"/><path class="cls-4" d="M22.72,17.63a.47.47,0,0,0-.06.15.61.61,0,0,1,.14.07.44.44,0,0,0,.08-.11C22.78,17.83,22.69,17.77,22.72,17.63Z"/><ellipse class="cls-1" cx="22.52" cy="17.91" rx="0.06" ry="0.11" transform="translate(-3.04 31.11) rotate(-65.81)"/><ellipse class="cls-4" cx="22.52" cy="17.9" rx="0.04" ry="0.07" transform="translate(-3.53 30.1) rotate(-63.57)"/><path class="cls-1" d="M22.31,17.93V18h0a.49.49,0,0,1,0,.27c0,.1.08.13.16.07a1.24,1.24,0,0,0,.22-.18h0s0,0,0,0v-.05h0a.43.43,0,0,1-.38-.15h0Z"/><path class="cls-2" d="M22.38,18.2c0,.07,0,.12.06.12a.24.24,0,0,0,.1-.05C22.49,18.21,22.44,18.18,22.38,18.2Z"/><path class="cls-1" d="M22.33,18.36s0,0,0,0a.09.09,0,0,0,.09.07.11.11,0,0,0,.08,0v0a.07.07,0,0,1-.1,0S22.34,18.39,22.33,18.36Z"/><path class="cls-1" d="M24.44,18.36c.1-.13.49-.11.51,0a.24.24,0,0,1,.29.16.16.16,0,0,1,0,.1.41.41,0,0,1,.58,0,.33.33,0,0,1,.07.13c.1-.1.47-.11.48,0a.24.24,0,0,1,.33.12h0a.27.27,0,0,1,.37.07.29.29,0,0,1,0,.27.44.44,0,0,1,.15-.12.42.42,0,0,1,.59.14.36.36,0,0,1,0,.09c.09-.14.16-.16.23-.13a2.32,2.32,0,0,0,.37.13c.09,0,.17.06.17.15h.06c-.18-.19.06-.43.31-.32a.18.18,0,0,1,.16.21.18.18,0,0,1-.1.14s.05.08,0,.17l.07,0c.22-.05.4-.06.43.07A.31.31,0,0,1,30,20v0a.39.39,0,0,1,.29-.09c.13,0,.21,0,.24.1a.3.3,0,0,1,.27.05c.16.12.15.34,0,.64,0,.05,0,.08,0,.09a.15.15,0,0,1,0,.18c-.1.11-.43,0-.52-.09a.47.47,0,0,1-.43-.14.49.49,0,0,1-.46-.13.47.47,0,0,1-.46-.15.46.46,0,0,1-.5-.16c-.07.05-.13.07-.17.05a1.69,1.69,0,0,0-.43-.15.14.14,0,0,1-.13-.13.72.72,0,0,1,.27-.37l-.08,0a.56.56,0,0,1-.23.33.42.42,0,0,1-.6-.1.26.26,0,0,1-.07-.15c0,.19-.35.19-.5,0a.41.41,0,0,1-.4-.12c-.15.06-.43-.05-.43-.19a.44.44,0,0,1-.56-.11A.54.54,0,0,1,25,18.9a.2.2,0,0,1-.22,0l0,.12a0,0,0,0,0,0,0c.09.1.08.18,0,.25a.5.5,0,0,1-.54-.16.19.19,0,0,1,.06-.22s0,0,0,0l.11-.29A.15.15,0,0,1,24.44,18.36Z"/><path class="cls-2" d="M24.42,18.89c-.08,0-.12.07-.11.13s.15.14.36.18.15-.07.1-.15,0-.08,0-.13l0-.12c0-.1,0-.15.07-.12s0,.15.1.16.24-.1.22-.27a.13.13,0,0,0-.16-.13.11.11,0,0,0-.08,0c0,.05-.05.06-.06,0s0-.13,0-.13c-.37-.06-.43.09-.32.17A1.46,1.46,0,0,1,24.42,18.89Z"/><path class="cls-2" d="M25.82,19c0,.07-.05.1-.11.08L25.45,19s-.06,0-.06,0,.11.23.29.16.06.08,0,.16a.33.33,0,0,1-.45,0,.47.47,0,0,1,.08-.67.43.43,0,0,1,.24-.1.34.34,0,0,1,.3.36Z"/><path class="cls-2" d="M25.94,18.93c0-.06,0-.12,0-.15a.74.74,0,0,1,.21,0c.05,0,.1,0,.1.06l0,.09s0,0,.05,0,.3-.08.33.07,0,.06.09,0,.33,0,.29.24a3.6,3.6,0,0,0-.12.44c0,.07,0,.13,0,.16a.35.35,0,0,1-.31-.09c-.05-.07,0-.1,0-.15a1.73,1.73,0,0,0,.11-.37c0-.07,0-.08-.08-.06a1.65,1.65,0,0,0-.11.36.16.16,0,0,1,0,.16c-.07,0-.18,0-.3-.05s0-.09,0-.16a.12.12,0,0,0,.06-.08,1.34,1.34,0,0,0,.07-.27c0-.1-.06-.11-.09,0l-.09.29c0,.08,0,.15-.07.17a.34.34,0,0,1-.26-.05c-.06,0-.06-.09,0-.15a.16.16,0,0,0,.08-.1l.08-.29Z"/><path class="cls-2" d="M27.58,19.17a.43.43,0,0,0-.53.3.39.39,0,0,0,0,.3.34.34,0,0,0,.39.24.47.47,0,0,0,.38-.45A.36.36,0,0,0,27.58,19.17Z"/><path class="cls-2" d="M28,19.34c-.15.19-.15.27-.07.3s.06,0,.09-.06l0,0c.09,0,.12,0,.08.07L28,19.8l-.17.18c-.06.08-.07.14,0,.17a1.42,1.42,0,0,1,.4.12c.05,0,.1,0,.15,0a.23.23,0,0,0,.07-.23c0-.07-.06-.05-.11,0s-.08.06-.13,0,0,0,.05-.1l.28-.33c.06-.07.06-.12,0-.15a1.36,1.36,0,0,1-.43-.14Z"/><ellipse class="cls-2" cx="28.94" cy="19.38" rx="0.13" ry="0.19" transform="translate(8.52 47.59) rotate(-87.91)"/><path class="cls-2" d="M28.71,19.6a.91.91,0,0,1,.33,0s0,0,0,.06l-.15.51a.13.13,0,0,0,0,.12c0,.08,0,.13-.08.14a.4.4,0,0,1-.35-.13c0-.08,0-.12.07-.14s0,0,0-.07l.08-.26a.08.08,0,0,0,0-.11.08.08,0,0,1,0-.11Z"/><path class="cls-2" d="M29.05,20.32c-.06,0-.11.11,0,.19a.49.49,0,0,0,.29,0,.1.1,0,0,0,0-.12v0a.54.54,0,0,1,.05-.22l0-.11a.07.07,0,0,1,.07-.08.08.08,0,0,1,.08.08h0a1.08,1.08,0,0,1-.1.35c-.07,0-.12.13,0,.18s.27.1.33.06a.11.11,0,0,0,0-.15.48.48,0,0,1,.06-.22c.1-.29.05-.41-.05-.46a.21.21,0,0,0-.27,0s0,0,0,0,0-.11-.08-.11a1.09,1.09,0,0,0-.26,0,.1.1,0,0,0-.06.1s0,0,0,0,0,0,0,.08l-.12.35Z"/><path class="cls-2" d="M30,20.59c-.07,0-.11.11,0,.19a.52.52,0,0,0,.28,0,.09.09,0,0,0,.05-.12v0a.59.59,0,0,1,.05-.22l0-.11a.06.06,0,0,1,.08-.05l.05.05a1.4,1.4,0,0,1-.1.35c-.07,0-.12.13,0,.18s.27.1.34.06,0-.1,0-.16,0-.11.05-.22c.1-.29.05-.4,0-.45a.21.21,0,0,0-.28,0s0,0,0,0,0-.11-.07-.11a.57.57,0,0,0-.26,0,.07.07,0,0,0-.06.1v0s0,.05,0,.09l-.12.34Z"/><path class="cls-1" d="M19.35,11.58,20,10.43v0c.11-.33,0-.39-.3-.56C16.22,7.5,18,6.12,23.43,5.41c.25,0,.38-.26.4-.76A4.46,4.46,0,0,1,28.2,1.11c3.84-.25,7.13.2,9.23,2.16l3.62,1.05a1.25,1.25,0,0,0,1-.13c2.06-.55,3.85.14,5.26,2.46,1.55,2.95,1.88,6.29.24,8.23a4.42,4.42,0,0,1-6.19.78l-.16-.13a16.29,16.29,0,0,1-1.93-2.41A6.45,6.45,0,0,0,33,10.47c-1.44.2-2.35,1.25-2.79,3.08a8.76,8.76,0,0,0,3.95,8.83c3.2,2,6.36,1.64,9.49-.89A2.57,2.57,0,0,1,48,22.76c1,3.81-1.91,7.41-4.48,7.33a18.24,18.24,0,0,1-17.34,1.05,15.14,15.14,0,0,1-7.67-8.43c-1.33-4.27-1.05-8,.81-11.16"/><path class="cls-2" d="M41.47,5.19c1.91-.63,3.46-.39,4.48,1.1,2.4,3.27,2.64,6.83.24,8.69-1.78,1.45-4.35.66-5.65-1.56C38.71,10.34,36.16,9,32.82,9.59c-2.7.64-3.95,2.82-3.41,6.9a9.33,9.33,0,0,0,7.25,7.85,9,9,0,0,0,7.56-2.22c1.09-.94,2.23-.86,2.91.64,1,2.7-1.2,6.74-3.73,6.45a17.2,17.2,0,0,1-16.29,1.4C21.7,28,19,23.86,18.59,18.55A14.31,14.31,0,0,1,24.06,7.09C28.55,3.74,34.11,2.64,41.47,5.19Z"/><path class="cls-1" d="M21.05,10.31a20.09,20.09,0,0,1,2.68-2.93c3.62-.09,8.19,1.18,13.51,3.5l3.56,2.68.09-3.51a4.64,4.64,0,0,0-1.08-3.59L38,3.79,28.7,1.48l-4.45,3L24,5.76,18.85,7.84Z"/><path class="cls-3" d="M18.78,7.16a20.89,20.89,0,0,1,10.93.16c-1.82-1-5.66-1.19-10.06-.64,5.41-2.47,14.16-.26,17.59,4.2-6.35-3.2-12.08-4.82-16.73-3.52a12.13,12.13,0,0,1,2.95-.16,11.21,11.21,0,0,0-2.41,3.11C17.41,8.71,18.16,7.36,18.78,7.16Z"/><path class="cls-3" d="M28.7,1.48a12.08,12.08,0,0,1,8,1.33A18.43,18.43,0,0,1,40.1,7.53a3.84,3.84,0,0,1,.48,2.75l.06,2.9-2.43-1.85-1.32-1.22V7.38L36.7,5.9c-.56-2.7-.43-2.79-2.86-3.76A23.43,23.43,0,0,0,28.7,1.48Z"/><path class="cls-4" d="M24.25,5.29l.54-1.82a3,3,0,0,1,2.89-1.78,13.67,13.67,0,0,1,7,.86c1,.33,1.68,1.2,1.81,2.75a15.62,15.62,0,0,1,0,4.21A19.46,19.46,0,0,0,24.25,5.29Z"/><path class="cls-1" d="M20.51,13.61c0-1.17.87-1.4,1.52-.54h0l0,.07h0c-.86-.39-1.11-.34-1.44.43l-.05,0h0Z"/><path class="cls-1" d="M27.21,13.61c.93-.71,1.63-.16,1.35.86h0v.08l0,0c-.22-.93-.43-1.09-1.22-.87h-.06v0Z"/><path class="cls-1" d="M20.29,18.19c-.53-2.36-.05-3.67,1.35-4.06,1.29-.08,2.05,1.09,1.1,4.11a.19.19,0,0,1,0,.24.17.17,0,0,1-.22.06,4.35,4.35,0,0,0-2.55.07c-.23,0-.3-.24-.05-.33Z"/><path class="cls-1" d="M24.5,18.49c-.09.15-.08.34.18.27a3.63,3.63,0,0,1,2.48.63c.24.17.44.07.29-.15a.77.77,0,0,0-.37-.25c.81-1.5,1-3.3.07-4.19-1-.72-1.69-.46-2.2.59A6,6,0,0,0,24.5,18.49Z"/><circle class="cls-4" cx="26.25" cy="15.46" r="0.49"/><circle class="cls-4" cx="21.81" cy="15.16" r="0.49"/><path class="cls-4" d="M20.44,16.08A4.15,4.15,0,0,0,20.53,18a5,5,0,0,1,2,.12,6.4,6.4,0,0,0,.34-1.73C22.07,18.05,20.69,17.71,20.44,16.08Z"/><path class="cls-4" d="M25.06,16.4a4,4,0,0,0-.16,1.92,4.9,4.9,0,0,1,1.93.36A6.55,6.55,0,0,0,27.38,17C26.41,18.56,25.09,18.05,25.06,16.4Z"/><ellipse class="cls-1" cx="23.67" cy="20.27" rx="0.72" ry="1.3" transform="translate(0.42 41.02) rotate(-82.31)"/><ellipse class="cls-4" cx="23.67" cy="20.21" rx="0.5" ry="0.85" transform="translate(-0.32 40.05) rotate(-80.07)"/><path class="cls-1" d="M21.17,21.15l.16.69h.14l.09,0a6,6,0,0,1,1.37,3c.31,1.16,1.34,1.27,2,.3a13.68,13.68,0,0,0,1.72-2.65c.07-.13.2-.19.43-.1s.34,0,.08-.37l-.33-.43c-.1-.09-.26-.09-.54.05a5.29,5.29,0,0,1-4.75-.47l-.11-.07Z"/><path class="cls-2" d="M23.1,24.25c.11.76.29,1.42,1,1.22a2.26,2.26,0,0,0,1-.95C24.37,23.91,23.71,23.77,23.1,24.25Z"/><path class="cls-1" d="M23,26.24c-.24-.2-.43.13-.23.31a1.32,1.32,0,0,0,1.33.45,1.45,1.45,0,0,0,.81-.61c.18-.16-.12-.43-.26-.21A1,1,0,0,1,23,26.24Z"/><path class="cls-1" d="M26.45,2.82l.08,0h0v0c-.22-.26-.05-.33.39-.26,0,0,0,0,0,0a.35.35,0,0,1,.43-.18,1,1,0,0,1,.67.35l.26.17a.11.11,0,0,0,.08,0,.36.36,0,0,1,.35.32.61.61,0,0,1-.17.65.35.35,0,0,1-.5-.07l0,0A1.17,1.17,0,0,1,28,3.4a.53.53,0,0,0-.44-.35.27.27,0,0,0-.28.18.7.7,0,0,0,.1.78.62.62,0,0,0,.77.15.21.21,0,0,1,.29.07.31.31,0,0,1,0,.13.47.47,0,0,1-.53.47,1.47,1.47,0,0,1-1.39-.33,1.28,1.28,0,0,1-.4-.84,1.06,1.06,0,0,1,.32-.86"/><path class="cls-2" d="M28.33,2.84a.29.29,0,0,1,.33.19c.11.31,0,.6-.19.68a.31.31,0,0,1-.39-.2.09.09,0,0,0,0,0A.56.56,0,0,0,27.56,3c-.23,0-.37.13-.43.46a.77.77,0,0,0,.38.79.74.74,0,0,0,.65,0,.14.14,0,0,1,.21.11c0,.24-.25.5-.43.43a1.37,1.37,0,0,1-1.29-.26,1.13,1.13,0,0,1-.39-1.14A1.16,1.16,0,0,1,27,2.6,1.41,1.41,0,0,1,28.33,2.84Z"/><path class="cls-1" d="M26.61,2.77a2.61,2.61,0,0,1,.28-.17,2.91,2.91,0,0,1,1,.6l.21.3.09-.3a.39.39,0,0,0,0-.3l-.1-.25-.67-.4L27,2.38l0,.1-.43,0Z"/><path class="cls-3" d="M26.51,2.47a1.76,1.76,0,0,1,.86.26,1.57,1.57,0,0,0-.77-.28,1.32,1.32,0,0,1,1.29.74,2,2,0,0,0-1.23-.67,1.05,1.05,0,0,1,.24.06,1,1,0,0,0-.27.18C26.35,2.56,26.46,2.47,26.51,2.47Z"/><path class="cls-3" d="M27.42,2.25a1,1,0,0,1,.59.29,1.72,1.72,0,0,1,.16.43.31.31,0,0,1,0,.23l-.07.25-.15-.21-.06-.12.06-.22V2.78c0-.22,0-.23-.13-.36A1.76,1.76,0,0,0,27.42,2.25Z"/><path class="cls-4" d="M27,2.45l.09-.13a.24.24,0,0,1,.26-.08,1,1,0,0,1,.53.24c.08,0,.1.12.08.25a1.26,1.26,0,0,1-.1.33A1.56,1.56,0,0,0,27,2.45Z"/><path class="cls-1" d="M26.5,3c0-.09.1-.09.13,0h0c-.06,0-.09,0-.13,0Z"/><path class="cls-1" d="M27,3.17c.09,0,.13,0,.08.09h0c0-.07,0-.09-.07-.09h0Z"/><path class="cls-1" d="M26.37,3.36c0-.19.08-.28.2-.28s.14.13,0,.34h0a.42.42,0,0,0-.22,0,0,0,0,0,1,0,0Z"/><path class="cls-1" d="M26.69,3.48v0a.31.31,0,0,1,.18.11h0l0,0a.32.32,0,0,0,.1-.33c-.05-.09-.12-.07-.19,0A.62.62,0,0,0,26.69,3.48Z"/><circle class="cls-4" cx="26.9" cy="3.29" r="0.04"/><circle class="cls-4" cx="26.56" cy="3.16" r="0.04"/><path class="cls-4" d="M26.43,3.2a.42.42,0,0,0,0,.16.25.25,0,0,1,.15.05.33.33,0,0,0,.07-.13C26.51,3.39,26.41,3.34,26.43,3.2Z"/><path class="cls-4" d="M26.78,3.33a.47.47,0,0,0-.06.15l.15.07A.44.44,0,0,0,27,3.44C26.84,3.54,26.75,3.47,26.78,3.33Z"/><ellipse class="cls-1" cx="26.59" cy="3.61" rx="0.06" ry="0.11" transform="translate(12.4 26.38) rotate(-65.81)"/><ellipse class="cls-4" cx="26.59" cy="3.6" rx="0.04" ry="0.07" transform="translate(11.53 25.81) rotate(-63.57)"/><path class="cls-1" d="M26.37,3.64v0h0a.51.51,0,0,1,0,.27c0,.1.07.13.15.07a1.84,1.84,0,0,0,.22-.17s0,0,0,0h0s0,0,0,0v0h-.05a.43.43,0,0,1-.37-.15h0Z"/><path class="cls-2" d="M26.45,3.9c0,.07,0,.12.05.12a.14.14,0,0,0,.1,0C26.56,3.91,26.51,3.88,26.45,3.9Z"/><path class="cls-1" d="M26.4,4.07s0,0,0,0a.13.13,0,0,0,.1.07l.07,0v0a.07.07,0,0,1-.1,0A.07.07,0,0,1,26.4,4.07Z"/><path class="cls-1" d="M28.51,4.07c.09-.14.48-.12.51,0a.23.23,0,0,1,.29.15.34.34,0,0,1,0,.1.41.41,0,0,1,.57,0l.08.13c.1-.1.46-.11.48,0a.25.25,0,0,1,.33.12h0a.27.27,0,0,1,.37.07.26.26,0,0,1,0,.27.48.48,0,0,1,.75,0l0,.09c.08-.14.16-.16.23-.13a1.55,1.55,0,0,0,.36.13c.1,0,.17.06.17.15h.07c-.19-.19.05-.43.31-.32a.2.2,0,0,1,.16.21.21.21,0,0,1-.1.14s.05.08,0,.17l.06,0c.22,0,.41-.06.44.07a.3.3,0,0,1,.38.22s0,0,0,0a.37.37,0,0,1,.28-.09c.14,0,.22,0,.24.1a.29.29,0,0,1,.28.06c.16.11.14.33,0,.63,0,.05,0,.08,0,.09a.19.19,0,0,1,0,.18.42.42,0,0,1-.52-.09.46.46,0,0,1-.43-.14.5.5,0,0,1-.47-.13A.41.41,0,0,1,33,6.19.47.47,0,0,1,32.47,6c-.07.06-.12.08-.16,0a1.76,1.76,0,0,0-.44-.15.13.13,0,0,1-.12-.12A.84.84,0,0,1,32,5.43a.11.11,0,0,1-.07,0,.6.6,0,0,1-.24.34.43.43,0,0,1-.6-.11A.61.61,0,0,1,31,5.49c0,.19-.35.18-.49,0a.44.44,0,0,1-.4-.12c-.15,0-.44-.06-.44-.2a.42.42,0,0,1-.55-.11.54.54,0,0,1-.07-.46.21.21,0,0,1-.22,0l0,.13v0c.09.1.08.19,0,.25a.49.49,0,0,1-.54-.15.22.22,0,0,1,.06-.22s0,0,0,0l.12-.29A.14.14,0,0,1,28.51,4.07Z"/><path class="cls-2" d="M28.48,4.59c-.08,0-.12.07-.1.13s.14.14.35.18.16-.07.1-.15,0-.08,0-.13l0-.12c0-.1,0-.14.06-.11s.05.15.1.15.25-.1.23-.27a.16.16,0,0,0-.17-.13.13.13,0,0,0-.08,0s0,.07,0,0,0-.13,0-.13c-.38-.06-.43.09-.32.17A1.35,1.35,0,0,1,28.48,4.59Z"/><path class="cls-2" d="M29.89,4.72c0,.08-.06.11-.12.08l-.26-.07s-.05,0-.06,0c0,.18.11.23.3.17s.05.07,0,.15a.34.34,0,0,1-.46,0,.48.48,0,0,1,.08-.67.46.46,0,0,1,.25-.1.33.33,0,0,1,.29.36A.29.29,0,0,1,29.89,4.72Z"/><path class="cls-2" d="M30,4.64c0-.07,0-.13,0-.15a.41.41,0,0,1,.22,0s.09,0,.09,0l0,.09s0,0,0,0,.31-.08.33.07,0,.06.09,0,.34,0,.29.25-.09.28-.12.43a.34.34,0,0,1,0,.16.41.41,0,0,1-.32-.08c-.05-.07,0-.11,0-.16a1.56,1.56,0,0,0,.1-.37c0-.07,0-.07-.08-.06a1.58,1.58,0,0,0-.11.37.13.13,0,0,1,0,.15c-.07,0-.17,0-.29,0s0-.09,0-.16a.08.08,0,0,0,.05-.07,1.47,1.47,0,0,0,.08-.28c0-.09-.07-.1-.1,0l-.08.29c0,.09,0,.15-.07.18a.4.4,0,0,1-.26-.06c-.07,0-.07-.09,0-.15a.14.14,0,0,0,.07-.1L30,4.7Z"/><path class="cls-2" d="M31.64,4.87a.43.43,0,0,0-.53.3.51.51,0,0,0,0,.3.34.34,0,0,0,.4.24.46.46,0,0,0,.37-.45A.36.36,0,0,0,31.64,4.87Z"/><path class="cls-2" d="M32.11,5c-.16.19-.15.27-.08.3s.06,0,.09-.06l0,0c.09,0,.12,0,.09.07l-.18.19-.17.18c-.06.08-.07.14,0,.17a1.85,1.85,0,0,1,.4.12c.05,0,.11,0,.16,0a.25.25,0,0,0,.07-.23c0-.07-.07,0-.12,0s-.08,0-.12,0,0,0,0-.11l.28-.33c0-.07,0-.12,0-.15A1.28,1.28,0,0,1,32.15,5Z"/><ellipse class="cls-2" cx="33" cy="5.08" rx="0.13" ry="0.19" transform="translate(26.72 37.88) rotate(-87.91)"/><path class="cls-2" d="M32.77,5.3a1,1,0,0,1,.34,0s0,0,0,.07l-.15.5A.13.13,0,0,0,33,6c0,.09,0,.13-.08.14s-.29,0-.34-.13,0-.12.06-.14,0,0,0-.07l.08-.26a.08.08,0,0,0,0-.1.09.09,0,0,1,0-.12Z"/><path class="cls-2" d="M33.12,6c-.07,0-.11.1,0,.18a.39.39,0,0,0,.28,0,.09.09,0,0,0,.05-.12v0a.59.59,0,0,1,.05-.22l0-.11a.09.09,0,0,1,.08-.08.08.08,0,0,1,.07.08h0a.88.88,0,0,1-.1.36c-.07,0-.11.13,0,.18s.27.1.34,0a.11.11,0,0,0,0-.15A.59.59,0,0,1,34,6c.1-.29.05-.4,0-.46a.2.2,0,0,0-.27,0s0,0,0,0,0-.1-.08-.1a.6.6,0,0,0-.26,0,.08.08,0,0,0-.05.1s0,0,0,0,0,0,0,.09L33.16,6Z"/><path class="cls-2" d="M34,6.29c-.06,0-.11.11,0,.19a.49.49,0,0,0,.29,0,.09.09,0,0,0,0-.12h0a.6.6,0,0,1,.06-.23l0-.11a.07.07,0,0,1,.08,0,.08.08,0,0,1,0,0,.88.88,0,0,1-.1.35c-.07,0-.12.13,0,.18s.27.1.34.06,0-.09,0-.15,0-.12.06-.22c.1-.3.05-.41,0-.46a.2.2,0,0,0-.27,0s0,0,0,0,0-.11-.08-.11a1.15,1.15,0,0,0-.26,0,.09.09,0,0,0-.06.1s0,0,0,0,0,0,0,.08l-.12.35Z"/><path class="cls-1" d="M4.19,11.38l.62-1.15v0c.11-.33,0-.39-.29-.56C1.07,7.3,2.83,5.92,8.27,5.21c.26,0,.39-.26.41-.76A4.45,4.45,0,0,1,13,.91c3.84-.25,7.13.2,9.24,2.16l3.61,1.05a1.24,1.24,0,0,0,1-.13c2.07-.55,3.85.14,5.27,2.47,1.55,3,1.88,6.28.23,8.22a4.42,4.42,0,0,1-6.19.78L26,15.34a16.3,16.3,0,0,1-1.94-2.42,6.45,6.45,0,0,0-6.29-2.65c-1.43.2-2.34,1.25-2.78,3.08A8.72,8.72,0,0,0,19,22.18c3.19,2,6.36,1.64,9.48-.89a2.58,2.58,0,0,1,4.44,1.27c1,3.81-1.92,7.41-4.48,7.33a18.24,18.24,0,0,1-17.34,1.05,15.12,15.12,0,0,1-7.68-8.43q-2-6.41.82-11.16"/><path class="cls-2" d="M26.32,5c1.91-.63,3.45-.39,4.48,1.1,2.39,3.27,2.63,6.83.23,8.69-1.78,1.45-4.35.66-5.64-1.56C23.55,10.14,21,8.8,17.66,9.39c-2.7.64-3.94,2.82-3.41,6.9.68,3.68,2.69,6.55,7.26,7.85a9,9,0,0,0,7.55-2.22c1.09-.94,2.23-.86,2.92.64,1,2.7-1.21,6.74-3.73,6.45A17.22,17.22,0,0,1,12,30.41c-5.41-2.66-8.09-6.75-8.52-12.06A14.32,14.32,0,0,1,8.91,6.89C13.39,3.54,19,2.44,26.32,5Z"/><path class="cls-1" d="M5.89,10.11A20.66,20.66,0,0,1,8.57,7.18c3.62-.09,8.2,1.18,13.51,3.5l3.57,2.68.08-3.51a4.53,4.53,0,0,0-1.08-3.58L22.86,3.59,13.55,1.28l-4.45,3L8.8,5.56,3.7,7.64Z"/><path class="cls-3" d="M3.62,7a20.89,20.89,0,0,1,10.93.16c-1.82-1-5.66-1.19-10.06-.64C9.9,4,18.65,6.22,22.08,10.68,15.74,7.48,10,5.86,5.35,7.16A12.13,12.13,0,0,1,8.3,7a11.4,11.4,0,0,0-2.41,3.11C2.25,8.51,3,7.16,3.62,7Z"/><path class="cls-3" d="M13.55,1.28a12.09,12.09,0,0,1,8,1.33A18.85,18.85,0,0,1,25,7.33a3.84,3.84,0,0,1,.48,2.75l.05,2.9-2.43-1.85L21.73,9.91V7.18L21.54,5.7C21,3,21.11,2.91,18.68,1.94A23.34,23.34,0,0,0,13.55,1.28Z"/><path class="cls-4" d="M9.1,5.09l.54-1.82C10.28,2,11,1.65,12.53,1.49a13.69,13.69,0,0,1,7,.86c1,.33,1.67,1.2,1.8,2.75a15.62,15.62,0,0,1,0,4.21A19.44,19.44,0,0,0,9.1,5.09Z"/><path class="cls-1" d="M5.36,13.41c0-1.17.86-1.4,1.52-.54h0l0,.07h0c-.87-.39-1.12-.33-1.44.43l0,0h0Z"/><path class="cls-1" d="M12.06,13.41c.92-.71,1.63-.16,1.35.86h0v.08l0,0c-.23-.93-.43-1.09-1.23-.87h-.06v0Z"/><path class="cls-1" d="M5.13,18c-.53-2.36,0-3.67,1.35-4.06,1.3-.08,2,1.09,1.1,4.11a.17.17,0,0,1,0,.24.16.16,0,0,1-.21.06,4.38,4.38,0,0,0-2.56.07c-.23,0-.29-.24,0-.33Z"/><path class="cls-1" d="M9.35,18.29c-.1.15-.08.34.18.27A3.59,3.59,0,0,1,12,19.2c.23.16.43.06.29-.16a.75.75,0,0,0-.38-.25c.82-1.5,1-3.3.07-4.19-1-.72-1.68-.46-2.2.59A6,6,0,0,0,9.35,18.29Z"/><circle class="cls-4" cx="11.09" cy="15.26" r="0.49"/><circle class="cls-4" cx="6.65" cy="14.96" r="0.49"/><path class="cls-4" d="M5.29,15.88a4,4,0,0,0,.09,1.92,4.93,4.93,0,0,1,2,.12,6,6,0,0,0,.34-1.73C6.92,17.85,5.54,17.51,5.29,15.88Z"/><path class="cls-4" d="M9.9,16.2a4.17,4.17,0,0,0-.16,1.92,4.9,4.9,0,0,1,1.93.36,6.18,6.18,0,0,0,.55-1.67C11.25,18.36,9.93,17.85,9.9,16.2Z"/><ellipse class="cls-1" cx="8.52" cy="20.07" rx="0.72" ry="1.3" transform="translate(-12.51 25.83) rotate(-82.31)"/><ellipse class="cls-4" cx="8.52" cy="20.01" rx="0.5" ry="0.85" transform="translate(-12.67 24.95) rotate(-80.07)"/><path class="cls-1" d="M6,21l.15.69h.14l.1,0a6,6,0,0,1,1.36,3c.31,1.16,1.34,1.27,2,.3a13.28,13.28,0,0,0,1.73-2.65c.07-.13.19-.19.43-.1s.33,0,.08-.37l-.34-.43c-.09-.09-.26-.09-.54.05A5.27,5.27,0,0,1,6.42,21L6.31,21Z"/><path class="cls-2" d="M7.94,24.05c.11.76.29,1.42,1,1.22a2.28,2.28,0,0,0,1-.95C9.21,23.71,8.55,23.57,7.94,24.05Z"/><path class="cls-1" d="M7.84,26c-.24-.2-.43.13-.23.31a1.3,1.3,0,0,0,1.32.45,1.47,1.47,0,0,0,.82-.6c.18-.17-.13-.44-.26-.22A1,1,0,0,1,7.84,26Z"/><path class="cls-1" d="M11.29,2.63l.08-.06h0v0c-.22-.26,0-.33.4-.26,0,0,0,0,.05,0A.35.35,0,0,1,12.25,2a1,1,0,0,1,.67.35l.26.17h.08a.36.36,0,0,1,.35.32.61.61,0,0,1-.17.65.35.35,0,0,1-.5-.07l0,0a1.22,1.22,0,0,1-.1-.24.52.52,0,0,0-.43-.35A.28.28,0,0,0,12.1,3a.7.7,0,0,0,.11.78A.6.6,0,0,0,13,4a.21.21,0,0,1,.29.07.31.31,0,0,1,0,.13c0,.32-.32.54-.52.47a1.47,1.47,0,0,1-1.39-.33A1.25,1.25,0,0,1,11,3.46a1.1,1.1,0,0,1,.33-.86"/><path class="cls-2" d="M13.18,2.64a.28.28,0,0,1,.32.19c.11.31.05.6-.18.68a.31.31,0,0,1-.39-.2.09.09,0,0,1,0-.05.57.57,0,0,0-.52-.48c-.22,0-.37.13-.43.46a.77.77,0,0,0,.39.79A.74.74,0,0,0,13,4a.14.14,0,0,1,.21.11c0,.24-.25.5-.43.43a1.39,1.39,0,0,1-1.3-.26,1.18,1.18,0,0,1-.39-1.14,1.17,1.17,0,0,1,.7-.77A1.41,1.41,0,0,1,13.18,2.64Z"/><path class="cls-1" d="M11.46,2.57a1.48,1.48,0,0,1,.27-.16,2.65,2.65,0,0,1,1,.59l.22.3L13,3a.39.39,0,0,0,0-.3l-.1-.25-.67-.4-.43.14-.06.09-.43,0Z"/><path class="cls-3" d="M11.35,2.27a1.77,1.77,0,0,1,.87.26,1.57,1.57,0,0,0-.78-.28A1.32,1.32,0,0,1,12.73,3a2,2,0,0,0-1.23-.67.84.84,0,0,1,.24.06.81.81,0,0,0-.26.18C11.19,2.36,11.3,2.27,11.35,2.27Z"/><path class="cls-3" d="M12.26,2.05a1,1,0,0,1,.59.29,1.4,1.4,0,0,1,.16.43A.26.26,0,0,1,13,3l-.07.25L12.77,3l-.07-.12.07-.22V2.58c0-.22,0-.23-.14-.36A1.56,1.56,0,0,0,12.26,2.05Z"/><path class="cls-4" d="M11.82,2.25l.09-.13A.25.25,0,0,1,12.18,2a1,1,0,0,1,.52.24c.08,0,.11.13.08.25a1.78,1.78,0,0,1-.09.33A1.59,1.59,0,0,0,11.82,2.25Z"/><path class="cls-1" d="M11.34,2.81c0-.09.1-.09.13,0h0c-.06-.05-.08-.05-.12,0h0Z"/><path class="cls-1" d="M11.86,3c.09,0,.14,0,.09.1h0C12,3,12,3,11.88,3h0Z"/><path class="cls-1" d="M11.22,3.16c0-.19.08-.28.19-.28s.14.13,0,.34h0a.4.4,0,0,0-.22,0,0,0,0,0,1,0,0Z"/><path class="cls-1" d="M11.54,3.29v0a.34.34,0,0,1,.18.11h0l0,0c.1-.1.16-.23.1-.32s-.12-.08-.18,0A.41.41,0,0,0,11.54,3.29Z"/><circle class="cls-4" cx="11.75" cy="3.09" r="0.04"/><circle class="cls-4" cx="11.41" cy="2.96" r="0.04"/><path class="cls-4" d="M11.28,3a.29.29,0,0,0,0,.16.3.3,0,0,1,.15,0,.54.54,0,0,0,.07-.13C11.36,3.19,11.26,3.14,11.28,3Z"/><path class="cls-4" d="M11.63,3.13a.47.47,0,0,0-.06.15l.14.07a.44.44,0,0,0,.08-.11C11.69,3.34,11.6,3.27,11.63,3.13Z"/><ellipse class="cls-1" cx="11.43" cy="3.41" rx="0.06" ry="0.11" transform="translate(3.64 12.44) rotate(-65.81)"/><ellipse class="cls-4" cx="11.43" cy="3.4" rx="0.04" ry="0.07" transform="translate(3.3 12.12) rotate(-63.57)"/><path class="cls-1" d="M11.22,3.44v.05h0a.63.63,0,0,1,0,.27c0,.1.08.13.16.07a1.84,1.84,0,0,0,.22-.17,0,0,0,0,1,0,0h0s0,0,0,0v0h0a.44.44,0,0,1-.38-.15h0Z"/><path class="cls-2" d="M11.29,3.7c0,.07,0,.12.06.12a.12.12,0,0,0,.09,0C11.4,3.71,11.35,3.68,11.29,3.7Z"/><path class="cls-1" d="M11.24,3.87s0,0,0,0a.1.1,0,0,0,.09.07.19.19,0,0,0,.08,0v0a.08.08,0,0,1-.1,0A.08.08,0,0,1,11.24,3.87Z"/><path class="cls-1" d="M13.35,3.87c.1-.14.49-.12.51,0a.22.22,0,0,1,.29.15.34.34,0,0,1,0,.1.41.41,0,0,1,.57,0,.46.46,0,0,1,.08.13c.1-.1.47-.11.48,0a.25.25,0,0,1,.33.12h0a.26.26,0,0,1,.37.08.27.27,0,0,1,0,.26.44.44,0,0,1,.15-.12.43.43,0,0,1,.59.14.36.36,0,0,1,0,.09c.09-.14.16-.16.23-.13a1.63,1.63,0,0,0,.37.13c.09,0,.16.06.17.15h.06c-.18-.19.06-.43.31-.32a.18.18,0,0,1,.16.21.21.21,0,0,1-.1.14s.05.08,0,.17l.07,0c.21,0,.4-.06.43.07a.3.3,0,0,1,.38.22.08.08,0,0,1,0,0,.38.38,0,0,1,.29-.09c.13,0,.21,0,.23.1a.29.29,0,0,1,.28.06c.16.11.15.33,0,.63,0,0,0,.08,0,.09a.15.15,0,0,1,0,.18c-.1.11-.43,0-.52-.09a.46.46,0,0,1-.43-.14.49.49,0,0,1-.46-.13A.43.43,0,0,1,17.82,6a.46.46,0,0,1-.5-.16c-.07.06-.13.08-.17,0a1.69,1.69,0,0,0-.43-.15.14.14,0,0,1-.13-.12.79.79,0,0,1,.27-.38.13.13,0,0,1-.08,0,.58.58,0,0,1-.23.34.43.43,0,0,1-.6-.11.27.27,0,0,1-.07-.14c0,.19-.35.18-.5,0a.45.45,0,0,1-.4-.12c-.15,0-.43-.06-.43-.2A.43.43,0,0,1,14,4.86a.53.53,0,0,1-.06-.46.2.2,0,0,1-.22-.05l0,.13s0,0,0,0,.08.19,0,.25a.48.48,0,0,1-.54-.15.19.19,0,0,1,.06-.22,0,0,0,0,1,0,0l.12-.29A.14.14,0,0,1,13.35,3.87Z"/><path class="cls-2" d="M13.32,4.39c-.07,0-.11.07-.1.13s.15.14.35.18.16-.07.11-.15,0-.08,0-.13l0-.12c0-.1.05-.14.07-.11s.05.15.1.15.24-.1.22-.27a.15.15,0,0,0-.16-.13.11.11,0,0,0-.08,0s-.05.07-.06,0,0-.13,0-.13c-.37-.06-.43.09-.32.17A1.35,1.35,0,0,1,13.32,4.39Z"/><path class="cls-2" d="M14.73,4.52c0,.08-.06.11-.11.08l-.26-.07s-.06,0-.06,0c0,.18.11.23.29.17s.06.07,0,.15a.33.33,0,0,1-.45,0,.47.47,0,0,1,.08-.67.43.43,0,0,1,.24-.1.33.33,0,0,1,.29.36A.29.29,0,0,1,14.73,4.52Z"/><path class="cls-2" d="M14.85,4.44c0-.07,0-.13,0-.15a.41.41,0,0,1,.22,0c.05,0,.1,0,.1,0l0,.09s0,0,.05,0,.3-.08.32.07,0,.06.1,0,.33,0,.29.25a3,3,0,0,0-.12.43c0,.07,0,.13,0,.16a.38.38,0,0,1-.31-.08c-.05-.07,0-.11,0-.16a1.2,1.2,0,0,0,.1-.37c0-.07,0-.07-.07-.06a1.21,1.21,0,0,0-.11.37.14.14,0,0,1,0,.15c-.07,0-.18,0-.3-.05s0-.09,0-.16a.11.11,0,0,0,.06-.07,1.43,1.43,0,0,0,.07-.28c0-.09-.06-.1-.09,0L15,4.92c0,.09,0,.15-.07.18A.4.4,0,0,1,14.71,5c-.06,0-.07-.09,0-.15a.16.16,0,0,0,.08-.1l.08-.29Z"/><path class="cls-2" d="M16.49,4.67A.43.43,0,0,0,16,5a.39.39,0,0,0,0,.3.33.33,0,0,0,.39.24.47.47,0,0,0,.38-.45A.38.38,0,0,0,16.49,4.67Z"/><path class="cls-2" d="M17,4.84c-.15.19-.15.27-.07.3s.05,0,.08-.06l0,0c.1,0,.13,0,.09.07l-.18.19-.16.18c-.06.08-.07.14,0,.17a3,3,0,0,1,.4.12c0,.05.1,0,.15,0a.25.25,0,0,0,.07-.23c0-.07-.06,0-.11,0s-.08,0-.13,0,0,0,.05-.11l.28-.32c.06-.08.06-.13,0-.16A1.36,1.36,0,0,1,17,4.81Z"/><ellipse class="cls-2" cx="17.85" cy="4.88" rx="0.13" ry="0.19" transform="translate(12.32 22.54) rotate(-87.91)"/><path class="cls-2" d="M17.62,5.11a.62.62,0,0,1,.33,0s0,0,0,.06l-.15.5a.15.15,0,0,0,0,.13c0,.08,0,.12-.08.13s-.3,0-.35-.13,0-.12.06-.14,0,0,.05-.07l.08-.26a.08.08,0,0,0,0-.1.1.1,0,0,1,0-.12Z"/><path class="cls-2" d="M18,5.83c-.06,0-.11.1,0,.18a.42.42,0,0,0,.29,0,.1.1,0,0,0,0-.12v0a.9.9,0,0,1,.06-.22l0-.11a.08.08,0,0,1,.07-.08s.08,0,.08.08h0a1.07,1.07,0,0,1-.1.36c-.07,0-.12.13,0,.18s.26.1.33,0a.11.11,0,0,0,0-.15.59.59,0,0,1,0-.22c.1-.29.06-.4,0-.45a.19.19,0,0,0-.27,0s0,0,0,0,0-.1-.08-.1a.57.57,0,0,0-.26,0,.08.08,0,0,0-.06.1l0,0s0,.05,0,.09L18,5.82Z"/><path class="cls-2" d="M18.88,6.09c-.07,0-.11.11,0,.19a.44.44,0,0,0,.28,0,.09.09,0,0,0,.05-.12h0A.59.59,0,0,1,19.25,6l0-.11a.07.07,0,0,1,.08-.05.07.07,0,0,1,0,.05,1.06,1.06,0,0,1-.09.35c-.07,0-.12.13,0,.18s.27.1.34.06,0-.09,0-.15,0-.12.05-.22c.1-.3.05-.41-.05-.46a.2.2,0,0,0-.27,0s0,0,0,0,0-.11-.07-.11a1.09,1.09,0,0,0-.26,0,.07.07,0,0,0-.06.1s0,0,0,0,0,0,0,.08l-.12.35Z"/><path class="cls-1" d="M2.12,17.38l.62-1.14v0c.11-.32,0-.39-.29-.56C-1,13.31.76,11.93,6.2,11.21c.26,0,.39-.26.41-.75A4.45,4.45,0,0,1,11,6.91c3.84-.25,7.13.2,9.24,2.16l3.61,1a1.24,1.24,0,0,0,1-.13c2.07-.55,3.85.14,5.27,2.47,1.55,2.95,1.88,6.28.23,8.22a4.4,4.4,0,0,1-6.19.78L24,21.34A16.64,16.64,0,0,1,22,18.93a6.44,6.44,0,0,0-6.29-2.66c-1.43.2-2.34,1.25-2.78,3.08a8.72,8.72,0,0,0,3.95,8.83c3.19,2,6.36,1.64,9.48-.89a2.58,2.58,0,0,1,4.44,1.27c1,3.81-1.92,7.41-4.48,7.33A18.24,18.24,0,0,1,9,36.94a15.12,15.12,0,0,1-7.68-8.43q-2-6.41.82-11.15"/><path class="cls-2" d="M24.25,11c1.91-.63,3.45-.39,4.48,1.1,2.39,3.27,2.63,6.84.23,8.7-1.78,1.44-4.35.65-5.64-1.57-1.84-3.08-4.38-4.42-7.73-3.83-2.7.64-3.94,2.82-3.41,6.9a9.32,9.32,0,0,0,7.26,7.85A9,9,0,0,0,27,27.92c1.09-.94,2.23-.86,2.92.65,1,2.69-1.21,6.73-3.73,6.44a17.22,17.22,0,0,1-16.3,1.4c-5.41-2.66-8.09-6.75-8.52-12A14.32,14.32,0,0,1,6.84,12.89C11.32,9.55,16.89,8.44,24.25,11Z"/><path class="cls-1" d="M3.82,16.11A20.06,20.06,0,0,1,6.5,13.19c3.62-.09,8.2,1.17,13.51,3.49l3.57,2.68.08-3.5a4.56,4.56,0,0,0-1.08-3.59L20.79,9.59,11.48,7.28,7,10.33l-.3,1.23-5.1,2.08Z"/><path class="cls-3" d="M1.55,13a20.89,20.89,0,0,1,10.93.16c-1.82-1-5.66-1.19-10.06-.64C7.83,10,16.58,12.22,20,16.68c-6.34-3.2-12.08-4.81-16.73-3.52a12.65,12.65,0,0,1,3-.16,11.4,11.4,0,0,0-2.41,3.11C.18,14.51.93,13.16,1.55,13Z"/><path class="cls-3" d="M11.48,7.28a12.09,12.09,0,0,1,8,1.33,19,19,0,0,1,3.45,4.72,3.84,3.84,0,0,1,.48,2.75L23.41,19,21,17.13l-1.32-1.22V13.18l-.19-1.47C18.91,9,19,8.91,16.61,8A22.76,22.76,0,0,0,11.48,7.28Z"/><path class="cls-4" d="M7,11.09l.54-1.82C8.21,8,8.9,7.65,10.46,7.49a13.59,13.59,0,0,1,7,.87c1,.32,1.67,1.19,1.8,2.74a15.62,15.62,0,0,1,0,4.21A19.44,19.44,0,0,0,7,11.09Z"/><path class="cls-1" d="M3.29,19.41c0-1.17.86-1.39,1.52-.54h0l0,.07h0c-.87-.38-1.12-.33-1.44.43l0,0h0Z"/><path class="cls-1" d="M10,19.41c.92-.71,1.63-.16,1.35.86h0v.08l0,0c-.23-.93-.43-1.08-1.23-.86H10v0Z"/><path class="cls-1" d="M3.06,24c-.53-2.36,0-3.67,1.35-4,1.3-.09,2.05,1.08,1.1,4.11a.16.16,0,0,1,0,.24.16.16,0,0,1-.21.05,4.38,4.38,0,0,0-2.56.07c-.23,0-.29-.23,0-.33Z"/><path class="cls-1" d="M7.28,24.29c-.1.15-.08.34.18.27a3.64,3.64,0,0,1,2.48.64c.23.16.43.07.29-.16a.82.82,0,0,0-.38-.25c.82-1.5,1-3.3.07-4.19-1-.72-1.68-.45-2.2.59A6,6,0,0,0,7.28,24.29Z"/><circle class="cls-4" cx="9.02" cy="21.26" r="0.49"/><circle class="cls-4" cx="4.58" cy="20.96" r="0.49"/><path class="cls-4" d="M3.22,21.88a4,4,0,0,0,.09,1.92,4.93,4.93,0,0,1,1.95.12A6,6,0,0,0,5.6,22.2C4.85,23.85,3.47,23.52,3.22,21.88Z"/><path class="cls-4" d="M7.83,22.2a4.17,4.17,0,0,0-.16,1.92,4.74,4.74,0,0,1,1.93.37,6.36,6.36,0,0,0,.55-1.68C9.18,24.36,7.86,23.86,7.83,22.2Z"/><ellipse class="cls-1" cx="6.45" cy="26.07" rx="0.72" ry="1.3" transform="translate(-20.25 28.97) rotate(-82.31)"/><ellipse class="cls-4" cx="6.45" cy="26.02" rx="0.5" ry="0.85" transform="translate(-20.29 27.88) rotate(-80.07)"/><path class="cls-1" d="M4,27l.15.68h.14l.1.05a5.92,5.92,0,0,1,1.36,3C6,31.86,7,32,7.73,31a13.64,13.64,0,0,0,1.73-2.66c.07-.13.19-.19.43-.09s.33-.05.08-.38l-.34-.43c-.09-.08-.26-.09-.54.05A5.23,5.23,0,0,1,4.35,27L4.24,27Z"/><path class="cls-2" d="M5.87,30.05c.11.76.29,1.42,1,1.22a2.28,2.28,0,0,0,1-.95C7.14,29.71,6.48,29.57,5.87,30.05Z"/><path class="cls-1" d="M5.77,32c-.24-.2-.43.14-.23.31a1.3,1.3,0,0,0,1.32.45,1.47,1.47,0,0,0,.82-.6c.18-.17-.13-.43-.26-.22A1,1,0,0,1,5.77,32Z"/><path class="cls-1" d="M9.22,8.63l.08-.05h0V8.52c-.22-.26-.05-.32.4-.26,0,0,0,0,.05,0A.36.36,0,0,1,10.18,8a1,1,0,0,1,.67.35l.26.17h.08a.36.36,0,0,1,.35.32.61.61,0,0,1-.17.65.35.35,0,0,1-.5-.07l0,0a1.15,1.15,0,0,1-.1-.23.52.52,0,0,0-.43-.36A.28.28,0,0,0,10,9a.7.7,0,0,0,.11.78.6.6,0,0,0,.76.15.21.21,0,0,1,.29.08.28.28,0,0,1,0,.13.47.47,0,0,1-.52.47,1.5,1.5,0,0,1-1.39-.34,1.23,1.23,0,0,1-.41-.84,1.11,1.11,0,0,1,.33-.86"/><path class="cls-2" d="M11.11,8.64a.3.3,0,0,1,.32.19c.11.31.05.6-.18.69a.32.32,0,0,1-.39-.21.08.08,0,0,1,0,0,.58.58,0,0,0-.52-.49c-.22,0-.37.13-.43.46a.77.77,0,0,0,.39.79.74.74,0,0,0,.65,0c.1,0,.19,0,.21.12s-.25.5-.43.43a1.42,1.42,0,0,1-1.3-.27A1.1,1.1,0,0,1,9.73,8.4,1.44,1.44,0,0,1,11.11,8.64Z"/><path class="cls-1" d="M9.39,8.58a1.53,1.53,0,0,1,.27-.17,2.68,2.68,0,0,1,1,.6l.22.29L11,9a.42.42,0,0,0,0-.31l-.1-.25-.67-.4-.43.14-.06.09-.43,0Z"/><path class="cls-3" d="M9.28,8.27a1.77,1.77,0,0,1,.87.26,1.57,1.57,0,0,0-.78-.28A1.32,1.32,0,0,1,10.66,9a2,2,0,0,0-1.23-.66.6.6,0,0,1,.24.05.83.83,0,0,0-.26.19C9.12,8.36,9.23,8.27,9.28,8.27Z"/><path class="cls-3" d="M10.19,8.05a1,1,0,0,1,.59.29,1.4,1.4,0,0,1,.16.43.26.26,0,0,1,0,.23l-.07.25-.15-.2-.07-.13.07-.22V8.58c0-.22,0-.22-.14-.35A1.59,1.59,0,0,0,10.19,8.05Z"/><path class="cls-4" d="M9.75,8.25l.09-.13A.25.25,0,0,1,10.11,8a1.13,1.13,0,0,1,.52.24.2.2,0,0,1,.08.25,1.59,1.59,0,0,1-.09.33A1.64,1.64,0,0,0,9.75,8.25Z"/><path class="cls-1" d="M9.27,8.81c0-.09.1-.08.13,0h0c-.06,0-.08-.05-.13,0Z"/><path class="cls-1" d="M9.79,9c.09,0,.14,0,.09.1h0c0-.08,0-.1-.07-.1h0Z"/><path class="cls-1" d="M9.15,9.17c0-.2.08-.29.19-.29s.14.14,0,.35h0a.33.33,0,0,0-.22,0s0,0,0,0Z"/><path class="cls-1" d="M9.47,9.29v0a.42.42,0,0,1,.18.11h0l0,0c.1-.1.16-.23.1-.32s-.12-.08-.18,0A.44.44,0,0,0,9.47,9.29Z"/><circle class="cls-4" cx="9.68" cy="9.09" r="0.04"/><circle class="cls-4" cx="9.34" cy="8.96" r="0.04"/><path class="cls-4" d="M9.21,9a.24.24,0,0,0,0,.15.3.3,0,0,1,.15.05.54.54,0,0,0,.07-.13C9.29,9.2,9.19,9.14,9.21,9Z"/><path class="cls-4" d="M9.56,9.14a.35.35,0,0,0-.06.14.39.39,0,0,1,.14.08l.08-.12C9.62,9.34,9.53,9.27,9.56,9.14Z"/><ellipse class="cls-1" cx="9.36" cy="9.41" rx="0.06" ry="0.11" transform="translate(-3.06 14.09) rotate(-65.81)"/><ellipse class="cls-4" cx="9.36" cy="9.4" rx="0.04" ry="0.07" transform="translate(-3.23 13.6) rotate(-63.57)"/><path class="cls-1" d="M9.15,9.44v.05h0a.63.63,0,0,1,0,.27c0,.1.08.13.16.07a1.18,1.18,0,0,0,.22-.17h0s0,0,0,0v0h0a.44.44,0,0,1-.38-.15h0Z"/><path class="cls-2" d="M9.22,9.71c0,.06,0,.12,0,.12a.17.17,0,0,0,.1-.06C9.33,9.71,9.28,9.68,9.22,9.71Z"/><path class="cls-1" d="M9.17,9.87s0,0,0,0a.1.1,0,0,0,.09.07.11.11,0,0,0,.08,0v0a.07.07,0,0,1-.1,0A.08.08,0,0,1,9.17,9.87Z"/><path class="cls-1" d="M11.28,9.87c.1-.13.49-.12.51,0a.22.22,0,0,1,.29.16.28.28,0,0,1,0,.09.4.4,0,0,1,.57,0,.32.32,0,0,1,.08.12c.1-.1.47-.1.48,0a.25.25,0,0,1,.33.12h0a.26.26,0,0,1,.37.08.27.27,0,0,1,0,.26.44.44,0,0,1,.15-.12.43.43,0,0,1,.59.15.19.19,0,0,1,0,.09c.09-.15.16-.17.23-.14a1.63,1.63,0,0,0,.37.13c.09,0,.16.06.17.15h.06c-.18-.18.06-.43.31-.32a.18.18,0,0,1,.16.21.19.19,0,0,1-.1.14s.05.08,0,.18l.07,0c.21-.05.4-.07.43.06a.31.31,0,0,1,.38.22.08.08,0,0,1,0,0,.42.42,0,0,1,.29-.09c.13,0,.21,0,.23.1a.29.29,0,0,1,.28.06c.16.11.15.34,0,.63,0,0,0,.08,0,.09a.15.15,0,0,1,0,.18c-.1.12-.43.05-.52-.09a.44.44,0,0,1-.43-.14.44.44,0,0,1-.46-.13.43.43,0,0,1-.46-.15.45.45,0,0,1-.5-.16c-.07.06-.13.08-.17.05a2.16,2.16,0,0,0-.43-.14.15.15,0,0,1-.13-.13.79.79,0,0,1,.27-.38l-.08,0a.59.59,0,0,1-.23.33.43.43,0,0,1-.6-.1.34.34,0,0,1-.07-.15c0,.19-.35.18-.5,0a.45.45,0,0,1-.4-.12c-.15.05-.43-.06-.43-.2a.43.43,0,0,1-.56-.11.53.53,0,0,1-.06-.46.22.22,0,0,1-.22,0l0,.12s0,0,0,0,.08.19,0,.25a.48.48,0,0,1-.54-.15.19.19,0,0,1,.06-.22s0,0,0,0l.12-.3A.14.14,0,0,1,11.28,9.87Z"/><path class="cls-2" d="M11.25,10.39c-.07,0-.11.07-.1.13s.15.14.35.18.16-.07.11-.15,0-.08,0-.12l0-.13c0-.1.05-.14.07-.11s.05.15.1.15.24-.1.22-.27a.15.15,0,0,0-.16-.13.11.11,0,0,0-.08,0s0,.07-.06,0,0-.14,0-.14c-.37-.06-.43.09-.32.17A1.35,1.35,0,0,1,11.25,10.39Z"/><path class="cls-2" d="M12.66,10.52c0,.08-.06.11-.11.09l-.26-.08s-.06,0-.06,0c0,.18.11.23.29.17s.06.07,0,.15a.32.32,0,0,1-.45,0,.47.47,0,0,1,.08-.67.51.51,0,0,1,.24-.1.33.33,0,0,1,.29.36A.24.24,0,0,1,12.66,10.52Z"/><path class="cls-2" d="M12.78,10.44c0-.07,0-.13,0-.15a.41.41,0,0,1,.22,0c.05,0,.1,0,.1.05l0,.09s0,0,.05,0,.3-.08.32.07,0,.06.1,0,.33,0,.29.25a3,3,0,0,0-.12.43c0,.07,0,.13,0,.16a.32.32,0,0,1-.31-.08c-.05-.07,0-.11,0-.16a1.2,1.2,0,0,0,.1-.37c0-.07,0-.07-.07-.05a1.08,1.08,0,0,0-.11.36.14.14,0,0,1,0,.15c-.07,0-.18,0-.3,0s0-.09,0-.15a.16.16,0,0,0,.06-.08,1.28,1.28,0,0,0,.07-.28c0-.09-.06-.1-.09,0l-.09.29c0,.09,0,.15-.07.18a.4.4,0,0,1-.26,0c-.06,0-.07-.09,0-.16a.16.16,0,0,0,.08-.1l.08-.29Z"/><path class="cls-2" d="M14.42,10.67a.44.44,0,0,0-.53.31.4.4,0,0,0,0,.3.35.35,0,0,0,.39.24.49.49,0,0,0,.38-.46A.38.38,0,0,0,14.42,10.67Z"/><path class="cls-2" d="M14.88,10.84c-.15.19-.15.27-.07.31s0,0,.08-.07l0,0c.1,0,.13,0,.09.06l-.18.19-.16.18c-.06.08-.07.14,0,.17a2.07,2.07,0,0,1,.4.13s.1,0,.15,0a.25.25,0,0,0,.07-.23c0-.07-.06,0-.11,0s-.08.05-.13,0,0,0,0-.11l.28-.32c.06-.08.06-.13,0-.15a1.69,1.69,0,0,1-.43-.15Z"/><ellipse class="cls-2" cx="15.78" cy="10.88" rx="0.13" ry="0.19" transform="translate(4.32 26.25) rotate(-87.91)"/><path class="cls-2" d="M15.55,11.11a.62.62,0,0,1,.33,0s0,0,0,.06l-.15.5a.15.15,0,0,0,0,.13c0,.08,0,.13-.08.14a.4.4,0,0,1-.35-.13c-.05-.09,0-.13.06-.15s0,0,0-.07l.08-.26a.08.08,0,0,0,0-.1.08.08,0,0,1,0-.11Z"/><path class="cls-2" d="M15.89,11.83c-.06,0-.11.1,0,.18a.42.42,0,0,0,.29.05.09.09,0,0,0,0-.12h0a.86.86,0,0,1,.06-.23l0-.11a.08.08,0,0,1,.08-.07.08.08,0,0,1,.08.07h0a1.07,1.07,0,0,1-.1.36c-.07,0-.12.13,0,.18s.26.1.33.06a.12.12,0,0,0,0-.16.59.59,0,0,1,0-.22c.1-.29.06-.4,0-.45a.19.19,0,0,0-.27,0s0,0,0,0,0-.11-.08-.11a.57.57,0,0,0-.26,0,.09.09,0,0,0-.06.1l0,0s0,0,0,.09l-.12.34Z"/><path class="cls-2" d="M16.81,12.09c-.07,0-.11.11,0,.19a.44.44,0,0,0,.28.05.09.09,0,0,0,.05-.12h0a.59.59,0,0,1,.05-.23l0-.11a.06.06,0,0,1,.08,0,0,0,0,0,1,0,0,1.19,1.19,0,0,1-.09.36c-.07,0-.12.12,0,.17s.27.11.34.06,0-.09,0-.15,0-.12.05-.22c.1-.3.05-.4-.05-.46a.2.2,0,0,0-.27,0s0,0,0,0,0-.11-.07-.11a1.09,1.09,0,0,0-.26,0,.08.08,0,0,0-.06.11v0s0,0,0,.08l-.12.35Z"/><path class="cls-1" d="M12.88,19.9l.62-1.14v0c.11-.32,0-.39-.29-.56-3.45-2.34-1.69-3.72,3.75-4.43.26,0,.39-.27.4-.76a4.45,4.45,0,0,1,4.37-3.54c3.84-.25,7.13.19,9.24,2.15l3.61,1.05a1.25,1.25,0,0,0,1-.12c2.07-.56,3.85.13,5.27,2.46,1.54,2.95,1.88,6.28.23,8.22a4.4,4.4,0,0,1-6.19.78l-.16-.12a16.29,16.29,0,0,1-1.93-2.41c-1.88-2.28-4-3-6.29-2.65-1.43.19-2.35,1.25-2.79,3.07a8.75,8.75,0,0,0,3.95,8.83c3.2,2,6.37,1.65,9.49-.89a2.58,2.58,0,0,1,4.44,1.27c1,3.81-1.92,7.41-4.48,7.33a18.19,18.19,0,0,1-17.34,1.05A15.11,15.11,0,0,1,12.08,31q-2-6.41.82-11.16"/><path class="cls-2" d="M35,13.51c1.9-.63,3.45-.39,4.47,1.1,2.4,3.27,2.64,6.84.24,8.7-1.78,1.44-4.35.66-5.64-1.56-1.84-3.08-4.39-4.43-7.73-3.84-2.7.64-3.94,2.83-3.41,6.9a9.32,9.32,0,0,0,7.25,7.85,9,9,0,0,0,7.56-2.22c1.09-.94,2.23-.86,2.92.65,1,2.69-1.21,6.73-3.73,6.44a17.22,17.22,0,0,1-16.3,1.4c-5.41-2.66-8.09-6.75-8.52-12A14.34,14.34,0,0,1,17.6,15.41C22.08,12.07,27.65,11,35,13.51Z"/><path class="cls-1" d="M14.58,18.63a20.06,20.06,0,0,1,2.68-2.92c3.62-.09,8.19,1.17,13.51,3.49l3.56,2.68.09-3.5a4.59,4.59,0,0,0-1.08-3.59l-1.79-2.68L22.24,9.8l-4.45,3-.3,1.24-5.1,2.07Z"/><path class="cls-3" d="M12.31,15.48a21,21,0,0,1,10.93.16c-1.82-1-5.66-1.19-10.06-.64,5.41-2.46,14.16-.26,17.59,4.2C24.42,16,18.69,14.39,14,15.69A11.65,11.65,0,0,1,17,15.53a11,11,0,0,0-2.41,3.1C10.94,17,11.69,15.69,12.31,15.48Z"/><path class="cls-3" d="M22.24,9.8a12,12,0,0,1,8,1.34,19.05,19.05,0,0,1,3.45,4.71,3.81,3.81,0,0,1,.47,2.76l.06,2.9-2.43-1.86-1.32-1.22V15.7l-.19-1.47c-.56-2.7-.43-2.8-2.86-3.76A22.76,22.76,0,0,0,22.24,9.8Z"/><path class="cls-4" d="M17.79,13.62l.54-1.83c.64-1.25,1.33-1.62,2.89-1.78a13.59,13.59,0,0,1,7,.87c1,.32,1.67,1.19,1.8,2.74a15.62,15.62,0,0,1,0,4.21A19.37,19.37,0,0,0,17.79,13.62Z"/><path class="cls-1" d="M14.05,21.93c0-1.16.86-1.39,1.52-.53h0l0,.06h0c-.86-.38-1.11-.33-1.43.43l-.05,0h0Z"/><path class="cls-1" d="M20.75,21.93c.92-.71,1.63-.16,1.34.86h0v.08l0,0c-.23-.92-.44-1.08-1.23-.86h-.06v0Z"/><path class="cls-1" d="M13.82,26.51c-.53-2.35,0-3.67,1.35-4.05,1.3-.09,2,1.08,1.1,4.11a.16.16,0,0,1,0,.24.16.16,0,0,1-.21.05,4.47,4.47,0,0,0-2.56.07c-.23,0-.3-.23,0-.32Z"/><path class="cls-1" d="M18,26.81c-.1.15-.09.34.18.27a3.65,3.65,0,0,1,2.48.64c.23.16.43.07.29-.16a.82.82,0,0,0-.38-.25c.82-1.5,1-3.3.07-4.19-1-.71-1.69-.45-2.2.6A5.85,5.85,0,0,0,18,26.81Z"/><circle class="cls-4" cx="19.78" cy="23.79" r="0.49"/><circle class="cls-4" cx="15.34" cy="23.48" r="0.49"/><path class="cls-4" d="M14,24.4a4.2,4.2,0,0,0,.09,1.93,4.8,4.8,0,0,1,2,.11,6.33,6.33,0,0,0,.34-1.72C15.6,26.37,14.22,26,14,24.4Z"/><path class="cls-4" d="M18.59,24.73a4.12,4.12,0,0,0-.16,1.91,4.91,4.91,0,0,1,1.93.37,6.25,6.25,0,0,0,.55-1.68C19.94,26.89,18.62,26.38,18.59,24.73Z"/><ellipse class="cls-1" cx="17.21" cy="28.59" rx="0.72" ry="1.3" transform="translate(-13.43 41.82) rotate(-82.31)"/><ellipse class="cls-4" cx="17.21" cy="28.54" rx="0.5" ry="0.85" transform="translate(-13.87 40.56) rotate(-80.07)"/><path class="cls-1" d="M14.71,29.48l.15.68H15l.1.05a5.92,5.92,0,0,1,1.36,3c.31,1.15,1.34,1.26,2,.3a14.07,14.07,0,0,0,1.72-2.66c.08-.13.2-.18.44-.09s.33-.05.07-.37L20.39,30c-.09-.08-.26-.09-.54.05a5.29,5.29,0,0,1-4.75-.46l-.1-.07Z"/><path class="cls-2" d="M16.63,32.57c.11.76.29,1.42,1,1.23a2.28,2.28,0,0,0,1-1C17.9,32.23,17.24,32.09,16.63,32.57Z"/><path class="cls-1" d="M16.53,34.56c-.24-.2-.43.14-.24.31a1.32,1.32,0,0,0,1.33.45,1.47,1.47,0,0,0,.82-.6c.17-.17-.13-.43-.27-.22A1,1,0,0,1,16.53,34.56Z"/><path class="cls-1" d="M20,11.15l.08-.05h0v0c-.22-.27,0-.33.4-.26,0,0,0,0,0,0a.37.37,0,0,1,.43-.18,1,1,0,0,1,.68.36l.26.16h.07a.37.37,0,0,1,.36.32.63.63,0,0,1-.17.65.37.37,0,0,1-.51-.07v0a.94.94,0,0,1-.1-.23.55.55,0,0,0-.43-.36.28.28,0,0,0-.29.18.68.68,0,0,0,.11.78.61.61,0,0,0,.76.16.21.21,0,0,1,.29.07.28.28,0,0,1,0,.13.47.47,0,0,1-.52.47,1.5,1.5,0,0,1-1.39-.34,1.21,1.21,0,0,1-.41-.83,1.12,1.12,0,0,1,.33-.87"/><path class="cls-2" d="M21.87,11.16a.3.3,0,0,1,.32.19c.11.31,0,.6-.19.69a.31.31,0,0,1-.38-.21.06.06,0,0,1,0,0,.59.59,0,0,0-.52-.49c-.22,0-.37.13-.43.47a.76.76,0,0,0,.39.78.72.72,0,0,0,.64,0,.14.14,0,0,1,.22.12c0,.23-.25.5-.44.43a1.41,1.41,0,0,1-1.29-.27,1.13,1.13,0,0,1-.39-1.14,1.17,1.17,0,0,1,.7-.77A1.46,1.46,0,0,1,21.87,11.16Z"/><path class="cls-1" d="M20.15,11.1a1.53,1.53,0,0,1,.27-.17,2.68,2.68,0,0,1,1,.6l.22.29.09-.29a.42.42,0,0,0,0-.31l-.1-.25-.68-.4-.43.14-.05.09-.43,0Z"/><path class="cls-3" d="M20,10.79a1.7,1.7,0,0,1,.86.26,1.59,1.59,0,0,0-.77-.28,1.36,1.36,0,0,1,1.29.74,2,2,0,0,0-1.23-.66.69.69,0,0,1,.24.05.83.83,0,0,0-.26.19C19.88,10.88,20,10.79,20,10.79Z"/><path class="cls-3" d="M21,10.57a1,1,0,0,1,.59.29,1.37,1.37,0,0,1,.16.44.28.28,0,0,1,0,.22l-.07.25-.15-.2-.07-.13.07-.21v-.12c0-.22,0-.23-.14-.36A1.81,1.81,0,0,0,21,10.57Z"/><path class="cls-4" d="M20.51,10.77l.09-.13a.23.23,0,0,1,.27-.07,1.11,1.11,0,0,1,.52.23.2.2,0,0,1,.08.25,1.33,1.33,0,0,1-.1.34A1.55,1.55,0,0,0,20.51,10.77Z"/><path class="cls-1" d="M20,11.33c0-.09.1-.08.13,0h0c-.06,0-.08-.05-.13,0Z"/><path class="cls-1" d="M20.55,11.49c.09,0,.13,0,.09.1h0c0-.08,0-.1-.08-.1h0Z"/><path class="cls-1" d="M19.9,11.69c0-.2.09-.29.2-.29s.14.14,0,.35h0a.34.34,0,0,0-.22,0s0,0,0,0Z"/><path class="cls-1" d="M20.23,11.81v0a.34.34,0,0,1,.17.11h0l0,0a.29.29,0,0,0,.1-.32c-.05-.09-.12-.08-.18,0A.44.44,0,0,0,20.23,11.81Z"/><circle class="cls-4" cx="20.43" cy="11.61" r="0.04"/><circle class="cls-4" cx="20.09" cy="11.48" r="0.04"/><path class="cls-4" d="M20,11.53a.25.25,0,0,0,0,.15.47.47,0,0,1,.15.06.83.83,0,0,0,.07-.13C20.05,11.72,20,11.66,20,11.53Z"/><path class="cls-4" d="M20.31,11.66a.24.24,0,0,0,0,.14l.14.08a.83.83,0,0,0,.08-.12C20.37,11.86,20.28,11.79,20.31,11.66Z"/><ellipse class="cls-1" cx="20.12" cy="11.93" rx="0.06" ry="0.11" transform="translate(0.99 25.4) rotate(-65.81)"/><ellipse class="cls-4" cx="20.12" cy="11.93" rx="0.04" ry="0.07" transform="translate(0.48 24.63) rotate(-63.57)"/><path class="cls-1" d="M19.9,12V12h0a.46.46,0,0,1,0,.26.09.09,0,0,0,.15.08,1,1,0,0,0,.22-.18h0s0,0,0,0v0h0a.42.42,0,0,1-.38-.15h0Z"/><path class="cls-2" d="M20,12.23c0,.06,0,.12.05.12l.1,0A.12.12,0,0,0,20,12.23Z"/><path class="cls-1" d="M19.93,12.39s0,0,0,0a.12.12,0,0,0,.1.07.13.13,0,0,0,.08,0v0a.09.09,0,0,1-.11,0A.08.08,0,0,1,19.93,12.39Z"/><path class="cls-1" d="M22,12.39c.09-.13.49-.12.51,0a.22.22,0,0,1,.29.16.28.28,0,0,1,0,.09.4.4,0,0,1,.57,0,.35.35,0,0,1,.08.13c.1-.11.47-.11.48,0a.26.26,0,0,1,.33.13h0a.27.27,0,0,1,.37.08.24.24,0,0,1,0,.26.48.48,0,0,1,.16-.12.43.43,0,0,1,.59.15.36.36,0,0,1,0,.09c.09-.15.16-.17.23-.14a1.74,1.74,0,0,0,.36.13c.1,0,.17.06.18.15h.06c-.18-.18.06-.43.31-.32a.2.2,0,0,1,.16.21.19.19,0,0,1-.1.14s0,.08,0,.18l.07,0c.21-.05.4-.07.43.06a.31.31,0,0,1,.38.23s0,0,0,0a.43.43,0,0,1,.29-.1c.13,0,.21,0,.23.1a.35.35,0,0,1,.28.06c.16.11.15.34,0,.63,0,.05,0,.09,0,.09a.17.17,0,0,1,0,.19c-.1.11-.43,0-.52-.09a.47.47,0,0,1-.43-.15.46.46,0,0,1-.47-.13.42.42,0,0,1-.45-.15.44.44,0,0,1-.5-.16c-.07.06-.13.08-.17.05a2.16,2.16,0,0,0-.43-.14.15.15,0,0,1-.13-.13.79.79,0,0,1,.27-.38l-.08,0a.61.61,0,0,1-.24.33.43.43,0,0,1-.6-.1.47.47,0,0,1-.06-.15c0,.19-.35.18-.5,0a.42.42,0,0,1-.4-.12c-.15.05-.43-.06-.43-.2a.43.43,0,0,1-.56-.11.51.51,0,0,1-.06-.45.24.24,0,0,1-.22,0l0,.12s0,0,0,0,.07.19,0,.25a.48.48,0,0,1-.54-.15.2.2,0,0,1,.05-.22,0,0,0,0,1,0,0l.12-.3A.14.14,0,0,1,22,12.39Z"/><path class="cls-2" d="M22,12.91c-.07,0-.11.08-.1.14s.15.13.35.17.16-.07.11-.15,0-.08,0-.12l0-.13c0-.1.05-.14.06-.11s.06.15.11.16.24-.11.22-.28a.15.15,0,0,0-.17-.13l-.07,0s-.05.07-.06,0,0-.14,0-.14c-.38-.06-.43.09-.32.17A1.35,1.35,0,0,1,22,12.91Z"/><path class="cls-2" d="M23.42,13.05c0,.07-.06.1-.11.08L23,13.05s-.05,0-.05,0,.11.22.29.16.06.07,0,.16a.35.35,0,0,1-.46,0,.5.5,0,0,1,.08-.68.6.6,0,0,1,.25-.1.33.33,0,0,1,.29.36A.3.3,0,0,1,23.42,13.05Z"/><path class="cls-2" d="M23.54,13c0-.07,0-.13,0-.15a.41.41,0,0,1,.22,0c.05,0,.09,0,.09.06l0,.09s0,0,.05,0,.3-.09.32.06,0,.07.1,0,.33,0,.29.25a3.45,3.45,0,0,0-.12.43c0,.08,0,.14,0,.16a.32.32,0,0,1-.31-.08c-.05-.07,0-.1,0-.16a1.44,1.44,0,0,0,.1-.37c0-.07,0-.07-.07-.05a1.08,1.08,0,0,0-.11.36.12.12,0,0,1-.05.15c-.06,0-.17,0-.29-.05s0-.09,0-.15a.16.16,0,0,0,.06-.08,2.29,2.29,0,0,0,.07-.28c0-.09-.06-.1-.09,0l-.09.29c0,.09,0,.15-.07.18a.34.34,0,0,1-.26,0c-.06,0-.07-.09,0-.16a.14.14,0,0,0,.08-.1l.08-.29Z"/><path class="cls-2" d="M25.17,13.19a.43.43,0,0,0-.52.31.44.44,0,0,0,0,.3.36.36,0,0,0,.4.24.49.49,0,0,0,.38-.45A.39.39,0,0,0,25.17,13.19Z"/><path class="cls-2" d="M25.64,13.37c-.16.18-.15.26-.07.3s.05,0,.08-.07l0,0c.09,0,.12,0,.09.06l-.18.19-.17.18c-.06.09-.06.15,0,.17a2,2,0,0,1,.41.13s.1,0,.15-.05a.24.24,0,0,0,.07-.23c0-.06-.06,0-.12,0s-.07.06-.12,0,0,0,.05-.1l.28-.33c.06-.07.06-.13,0-.15a2,2,0,0,1-.43-.14Z"/><ellipse class="cls-2" cx="26.54" cy="13.41" rx="0.13" ry="0.19" transform="translate(12.17 39.44) rotate(-87.91)"/><path class="cls-2" d="M26.3,13.63a.65.65,0,0,1,.34,0s0,0,0,.06l-.15.5a.11.11,0,0,0,0,.13c0,.08,0,.13-.09.14a.39.39,0,0,1-.34-.13c-.05-.08,0-.12.06-.15s0,0,.05-.06l.07-.27a.08.08,0,0,0,0-.1.08.08,0,0,1,0-.11Z"/><path class="cls-2" d="M26.65,14.35c-.07,0-.11.1,0,.18a.4.4,0,0,0,.28.05.09.09,0,0,0,.05-.12h0a.86.86,0,0,1,.05-.23l0-.11a.08.08,0,0,1,.08-.07.07.07,0,0,1,.07.08h0a1.06,1.06,0,0,1-.09.35c-.07,0-.12.13,0,.18s.26.1.33.06a.11.11,0,0,0,0-.15.63.63,0,0,1,.05-.23c.1-.29.06-.4,0-.45a.2.2,0,0,0-.28,0s0,0,0,0,0-.11-.07-.11a.57.57,0,0,0-.26,0,.08.08,0,0,0-.06.1l0,0s0,.05,0,.09l-.12.34Z"/><path class="cls-2" d="M27.56,14.62c-.06,0-.1.1,0,.19a.48.48,0,0,0,.29,0,.1.1,0,0,0,0-.12h0a.54.54,0,0,1,.05-.22l0-.12a.06.06,0,0,1,.08,0,0,0,0,0,1,0,0,.88.88,0,0,1-.1.36c-.07,0-.11.12,0,.17s.28.11.34.06.05-.09,0-.15,0-.12.06-.22c.1-.29.05-.4,0-.46a.2.2,0,0,0-.27,0s0,0,0,0,0-.11-.08-.11l-.26,0a.08.08,0,0,0,0,.11,0,0,0,0,0,0,0s0,0,0,.08l-.12.35Z"/><path class="cls-1" d="M17,26.57l.61-1.14v0c.12-.33,0-.4-.29-.57-3.45-2.34-1.69-3.72,3.75-4.43.26,0,.39-.27.41-.76a4.45,4.45,0,0,1,4.37-3.54c3.84-.25,7.13.19,9.23,2.15l3.61,1a1.24,1.24,0,0,0,1-.12c2.07-.56,3.86.13,5.27,2.46,1.55,3,1.88,6.28.23,8.22a4.4,4.4,0,0,1-6.19.78l-.15-.12a16.88,16.88,0,0,1-1.94-2.41,6.42,6.42,0,0,0-6.29-2.65c-1.43.19-2.34,1.25-2.78,3.07a8.73,8.73,0,0,0,3.95,8.83c3.19,2,6.36,1.65,9.49-.88a2.57,2.57,0,0,1,4.43,1.26c1,3.81-1.91,7.41-4.48,7.34a18.21,18.21,0,0,1-17.34,1,15.14,15.14,0,0,1-7.68-8.42q-2-6.41.82-11.16"/><path class="cls-2" d="M39.16,20.18c1.91-.63,3.45-.39,4.48,1.1,2.39,3.27,2.63,6.84.24,8.7-1.79,1.44-4.36.66-5.65-1.56-1.83-3.08-4.38-4.42-7.72-3.84-2.7.64-4,2.83-3.42,6.9a9.35,9.35,0,0,0,7.26,7.85,9,9,0,0,0,7.55-2.21c1.1-.95,2.23-.87,2.92.64,1,2.69-1.21,6.73-3.73,6.44A17.17,17.17,0,0,1,24.8,45.6c-5.41-2.66-8.1-6.75-8.53-12.05a14.34,14.34,0,0,1,5.48-11.47C26.24,18.74,31.8,17.63,39.16,20.18Z"/><path class="cls-1" d="M18.74,25.3a20,20,0,0,1,2.67-2.92c3.62-.09,8.2,1.17,13.51,3.5l3.57,2.67.09-3.5a4.63,4.63,0,0,0-1.08-3.59l-1.8-2.68-9.31-2.31-4.45,3.05-.3,1.24-5.1,2.07Z"/><path class="cls-3" d="M16.47,22.15a21,21,0,0,1,10.93.16c-1.82-1-5.67-1.19-10.07-.64,5.41-2.46,14.16-.26,17.59,4.21-6.34-3.2-12.07-4.82-16.73-3.52a11.7,11.7,0,0,1,2.95-.16,11,11,0,0,0-2.4,3.1C15.1,23.71,15.84,22.36,16.47,22.15Z"/><path class="cls-3" d="M26.39,16.47a12.08,12.08,0,0,1,8,1.34,18.8,18.8,0,0,1,3.45,4.71,3.87,3.87,0,0,1,.48,2.76l.06,2.9-2.44-1.86L34.57,25.1V22.37l-.18-1.47c-.56-2.7-.43-2.8-2.87-3.76A23.35,23.35,0,0,0,26.39,16.47Z"/><path class="cls-4" d="M21.94,20.29l.54-1.83c.64-1.25,1.34-1.62,2.89-1.77a13.47,13.47,0,0,1,7,.86c1,.33,1.67,1.19,1.8,2.74a14.85,14.85,0,0,1,0,4.21A19.35,19.35,0,0,0,21.94,20.29Z"/><path class="cls-1" d="M18.2,28.6c0-1.16.86-1.39,1.52-.53h0l.05.06h0c-.86-.38-1.11-.33-1.44.43l-.05,0h0Z"/><path class="cls-1" d="M24.9,28.6c.92-.71,1.63-.16,1.35.86h0v.08l0,0c-.22-.92-.43-1.08-1.22-.86h-.07v0Z"/><path class="cls-1" d="M18,33.18c-.52-2.35,0-3.67,1.36-4.05,1.29-.08,2.05,1.08,1.09,4.11a.18.18,0,0,1,0,.24.19.19,0,0,1-.22.06,4.35,4.35,0,0,0-2.55.06c-.24,0-.3-.23-.06-.32Z"/><path class="cls-1" d="M22.19,33.48c-.09.15-.08.34.18.27a3.64,3.64,0,0,1,2.48.64c.23.16.43.07.29-.16a.84.84,0,0,0-.37-.25c.81-1.5,1-3.3.06-4.19-1-.71-1.68-.45-2.2.6A6,6,0,0,0,22.19,33.48Z"/><circle class="cls-4" cx="23.93" cy="30.46" r="0.49"/><circle class="cls-4" cx="19.5" cy="30.15" r="0.49"/><path class="cls-4" d="M18.13,31.07A4.2,4.2,0,0,0,18.22,33a4.81,4.81,0,0,1,2,.11,6.64,6.64,0,0,0,.34-1.72C19.76,33,18.38,32.71,18.13,31.07Z"/><path class="cls-4" d="M22.74,31.4a4.29,4.29,0,0,0-.16,1.92,4.78,4.78,0,0,1,1.94.36A6.22,6.22,0,0,0,25.06,32C24.1,33.56,22.77,33.05,22.74,31.4Z"/><ellipse class="cls-1" cx="21.36" cy="35.26" rx="0.72" ry="1.3" transform="translate(-16.45 51.71) rotate(-82.31)"/><ellipse class="cls-4" cx="21.36" cy="35.21" rx="0.5" ry="0.85" transform="translate(-17 50.18) rotate(-80.07)"/><path class="cls-1" d="M18.86,36.15l.16.68h.13l.1.05a6,6,0,0,1,1.36,3c.31,1.15,1.34,1.26,2,.3a13.64,13.64,0,0,0,1.73-2.66c.07-.13.19-.18.43-.09s.34-.05.08-.37l-.33-.43c-.1-.09-.26-.1-.55,0a5.27,5.27,0,0,1-4.74-.46l-.11-.07Z"/><path class="cls-2" d="M20.78,39.24c.11.76.29,1.42,1,1.23a2.36,2.36,0,0,0,1-1C22.06,38.9,21.39,38.76,20.78,39.24Z"/><path class="cls-1" d="M20.68,41.23c-.24-.19-.43.14-.23.31a1.32,1.32,0,0,0,1.33.45,1.43,1.43,0,0,0,.81-.6c.18-.17-.12-.43-.26-.22Q21.58,42.13,20.68,41.23Z"/><path class="cls-1" d="M24.14,17.82l.07-.05h0v-.05c-.22-.27,0-.33.4-.26,0,0,0,0,.05-.05a.36.36,0,0,1,.43-.18,1,1,0,0,1,.67.36l.26.16a.11.11,0,0,0,.08,0,.36.36,0,0,1,.35.32.61.61,0,0,1-.17.65.35.35,0,0,1-.5-.07l0,0a1.6,1.6,0,0,1-.1-.23.53.53,0,0,0-.43-.36.31.31,0,0,0-.29.18.74.74,0,0,0,.11.79.63.63,0,0,0,.76.15.21.21,0,0,1,.29.07.15.15,0,0,1,0,.13.47.47,0,0,1-.52.47,1.48,1.48,0,0,1-1.39-.34,1.2,1.2,0,0,1-.4-.83,1.08,1.08,0,0,1,.32-.87"/><path class="cls-2" d="M26,17.83a.29.29,0,0,1,.32.19c.12.31.05.6-.18.69a.32.32,0,0,1-.39-.21s0,0,0,0a.58.58,0,0,0-.52-.49c-.22,0-.37.13-.43.47a.78.78,0,0,0,.39.78.74.74,0,0,0,.65,0c.1,0,.19,0,.21.12s-.25.5-.43.43a1.42,1.42,0,0,1-1.3-.27,1.11,1.11,0,0,1,.31-1.91A1.46,1.46,0,0,1,26,17.83Z"/><path class="cls-1" d="M24.3,17.77a1.61,1.61,0,0,1,.28-.17,2.72,2.72,0,0,1,1,.6l.22.29.09-.29a.42.42,0,0,0,0-.31l-.1-.25-.67-.39-.43.13-.05.09-.44,0Z"/><path class="cls-3" d="M24.2,17.46a1.76,1.76,0,0,1,.86.26,1.67,1.67,0,0,0-.78-.28,1.38,1.38,0,0,1,1.3.74,2,2,0,0,0-1.23-.66.86.86,0,0,1,.23.05,1.15,1.15,0,0,0-.26.19C24,17.55,24.14,17.46,24.2,17.46Z"/><path class="cls-3" d="M25.11,17.25a1,1,0,0,1,.59.28,2.32,2.32,0,0,1,.16.44.29.29,0,0,1,0,.22l-.07.25-.15-.2-.06-.13.06-.21v-.12c0-.22,0-.23-.14-.36A1.49,1.49,0,0,0,25.11,17.25Z"/><path class="cls-4" d="M24.67,17.44l.08-.13a.25.25,0,0,1,.27-.07,1.19,1.19,0,0,1,.53.23.21.21,0,0,1,.07.25,1.31,1.31,0,0,1-.09.34A1.58,1.58,0,0,0,24.67,17.44Z"/><path class="cls-1" d="M24.18,18c0-.09.1-.08.13,0h0c-.06,0-.08-.05-.12,0h0Z"/><path class="cls-1" d="M24.71,18.16c.09,0,.13,0,.08.1h0c0-.08,0-.1-.07-.1h0Z"/><path class="cls-1" d="M24.06,18.36c0-.2.08-.29.2-.29s.13.14,0,.35h0a.35.35,0,0,0-.22,0s0,0,0,0Z"/><path class="cls-1" d="M24.38,18.48v0a.32.32,0,0,1,.18.1h0l0,0c.1-.1.16-.23.11-.32s-.12-.08-.19,0A.55.55,0,0,0,24.38,18.48Z"/><circle class="cls-4" cx="24.59" cy="18.29" r="0.04"/><circle class="cls-4" cx="24.25" cy="18.16" r="0.04"/><path class="cls-4" d="M24.12,18.2a.26.26,0,0,0,0,.15.39.39,0,0,1,.15.06.83.83,0,0,0,.07-.13C24.2,18.39,24.1,18.33,24.12,18.2Z"/><path class="cls-4" d="M24.47,18.33a.35.35,0,0,0-.06.14l.14.08a.94.94,0,0,0,.09-.12C24.53,18.53,24.44,18.46,24.47,18.33Z"/><ellipse class="cls-1" cx="24.27" cy="18.6" rx="0.06" ry="0.11" transform="translate(-2.64 33.12) rotate(-65.81)"/><ellipse class="cls-4" cx="24.27" cy="18.6" rx="0.04" ry="0.07" transform="translate(-3.18 32.06) rotate(-63.57)"/><path class="cls-1" d="M24.06,18.63v.06h0a.46.46,0,0,1,0,.26c0,.1.08.13.16.08a1.24,1.24,0,0,0,.22-.18s0,0,0,0h0s0,0,0,0v0h0a.44.44,0,0,1-.38-.15h0Z"/><path class="cls-2" d="M24.14,18.9c0,.06,0,.12.05.12l.1-.05C24.24,18.9,24.2,18.88,24.14,18.9Z"/><path class="cls-1" d="M24.08,19.06s0,0,0,0a.1.1,0,0,0,.09.07.11.11,0,0,0,.08,0v0a.08.08,0,0,1-.1,0A.1.1,0,0,1,24.08,19.06Z"/><path class="cls-1" d="M26.19,19.06c.1-.13.49-.11.52,0a.24.24,0,0,1,.29.16.27.27,0,0,1,0,.09.41.41,0,0,1,.58,0,.57.57,0,0,1,.08.13c.09-.11.46-.11.47,0a.25.25,0,0,1,.34.12h0a.26.26,0,0,1,.37.07.29.29,0,0,1,0,.27.29.29,0,0,1,.15-.12.42.42,0,0,1,.59.14.36.36,0,0,1,0,.09c.09-.14.16-.17.24-.14a1.4,1.4,0,0,0,.36.13c.09,0,.17.06.17.15h.07c-.19-.18.05-.43.31-.31a.17.17,0,0,1,.15.21.15.15,0,0,1-.1.13s.05.08,0,.18l.07,0c.22,0,.4-.07.43.06a.33.33,0,0,1,.39.23.08.08,0,0,0,0,0,.35.35,0,0,1,.28-.09c.13,0,.22,0,.24.09a.32.32,0,0,1,.27.06c.16.11.15.34,0,.63,0,0,0,.09,0,.1a.15.15,0,0,1,0,.18c-.1.11-.43,0-.51-.09a.49.49,0,0,1-.44-.15.45.45,0,0,1-.46-.13.41.41,0,0,1-.45-.15.46.46,0,0,1-.51-.16c-.07.06-.12.08-.17.06a1.57,1.57,0,0,0-.43-.15.13.13,0,0,1-.12-.13.77.77,0,0,1,.26-.38l-.07,0a.66.66,0,0,1-.24.33.43.43,0,0,1-.6-.1.51.51,0,0,1-.07-.15c0,.19-.35.18-.5,0a.43.43,0,0,1-.4-.12c-.15.06-.43-.06-.43-.19a.43.43,0,0,1-.55-.12.52.52,0,0,1-.07-.45.22.22,0,0,1-.22-.05l0,.12v0a.15.15,0,0,1,0,.25.51.51,0,0,1-.54-.16.19.19,0,0,1,.06-.22s0,0,0,0l.11-.29A.15.15,0,0,1,26.19,19.06Z"/><path class="cls-2" d="M26.17,19.58c-.08,0-.12.08-.11.14s.15.14.36.17.15-.07.1-.15,0-.07,0-.12l0-.13c0-.1.06-.14.07-.11s0,.15.1.16.24-.11.23-.28a.16.16,0,0,0-.17-.13.19.19,0,0,0-.08,0c0,.05-.05.07-.06.05s0-.14,0-.14c-.37-.06-.43.09-.32.17A1.33,1.33,0,0,1,26.17,19.58Z"/><path class="cls-2" d="M27.57,19.72c0,.07-.05.1-.11.08l-.26-.07s-.05,0-.06,0c0,.17.11.23.3.16s0,.07,0,.16A.35.35,0,0,1,27,20a.48.48,0,0,1,.08-.68.55.55,0,0,1,.25-.1.33.33,0,0,1,.29.36A.29.29,0,0,1,27.57,19.72Z"/><path class="cls-2" d="M27.69,19.63c0-.07,0-.12,0-.15a.37.37,0,0,1,.21,0c.05,0,.1,0,.1.06l0,.09s0,0,0,0,.31-.09.33.07,0,.06.09,0,.33,0,.29.24a3.45,3.45,0,0,0-.12.43c0,.08,0,.14,0,.16a.32.32,0,0,1-.31-.08c-.05-.07,0-.1,0-.16a1.45,1.45,0,0,0,.11-.37c0-.06,0-.07-.08-.05a1.5,1.5,0,0,0-.11.36.16.16,0,0,1,0,.16.38.38,0,0,1-.29-.06c-.05,0-.05-.09,0-.15a.22.22,0,0,0,0-.08,1.28,1.28,0,0,0,.07-.28c0-.09-.06-.1-.09,0l-.09.29c0,.09,0,.15-.07.18a.31.31,0,0,1-.25-.05c-.07,0-.07-.09,0-.16a.14.14,0,0,0,.08-.1l.08-.28Z"/><path class="cls-2" d="M29.33,19.86a.44.44,0,0,0-.53.31.4.4,0,0,0,0,.3.34.34,0,0,0,.39.24.47.47,0,0,0,.38-.45A.38.38,0,0,0,29.33,19.86Z"/><path class="cls-2" d="M29.79,20c-.15.18-.15.26-.07.3s.06,0,.09-.07l0,0c.09,0,.12,0,.08.06l-.17.19-.17.18c-.06.09-.07.15,0,.17A1.87,1.87,0,0,1,30,21c.05,0,.1,0,.15,0a.22.22,0,0,0,.07-.23c0-.06-.06,0-.11,0s-.08.06-.13,0,0,0,.05-.1l.28-.33c.06-.07.06-.13,0-.15a1.66,1.66,0,0,1-.43-.14Z"/><ellipse class="cls-2" cx="30.69" cy="20.08" rx="0.13" ry="0.19" transform="translate(9.51 50.01) rotate(-87.91)"/><path class="cls-2" d="M30.46,20.3a.62.62,0,0,1,.33,0s0,0,0,.06l-.15.5a.15.15,0,0,0,0,.13c0,.08,0,.13-.08.14a.41.41,0,0,1-.35-.13c0-.08,0-.12.07-.14s0,0,0-.07l.08-.27a.07.07,0,0,0,0-.1.08.08,0,0,1,0-.11Z"/><path class="cls-2" d="M30.8,21c-.06,0-.1.1,0,.18a.42.42,0,0,0,.29.05.09.09,0,0,0,0-.12h0a.64.64,0,0,1,.05-.23l0-.11a.08.08,0,0,1,.15,0h0a1.08,1.08,0,0,1-.1.35c-.07,0-.12.13,0,.18s.27.1.34.06a.14.14,0,0,0,0-.15.63.63,0,0,1,.05-.23c.1-.29.05-.4-.05-.45a.19.19,0,0,0-.27,0s0,0,0,0,0-.11-.08-.11a.77.77,0,0,0-.26,0,.07.07,0,0,0-.05.1,0,0,0,0,0,0,0s0,.05,0,.09l-.12.35Z"/><path class="cls-2" d="M31.72,21.29c-.07,0-.11.1,0,.19a.45.45,0,0,0,.28,0,.09.09,0,0,0,0-.12h0a.54.54,0,0,1,.05-.22l0-.12a.07.07,0,0,1,.08,0,.07.07,0,0,1,0,0,1.07,1.07,0,0,1-.1.36c-.07,0-.12.12,0,.17s.27.11.34.06,0-.09,0-.15,0-.12,0-.22c.1-.29.06-.4,0-.46a.2.2,0,0,0-.27,0s0,0,0,0,0-.11-.08-.11a1.09,1.09,0,0,0-.26,0,.09.09,0,0,0-.06.11l0,0s0,0,0,.08l-.12.35Z"/><path class="cls-1" d="M14.36,10.92,15,9.78v0c.11-.33,0-.39-.3-.57C11.23,6.85,13,5.47,18.44,4.76c.25,0,.38-.27.4-.76A4.45,4.45,0,0,1,23.21.46c3.84-.25,7.13.19,9.23,2.16l3.62,1a1.25,1.25,0,0,0,1-.12C39.1,3,40.89,3.68,42.3,6c1.55,2.95,1.88,6.29.24,8.23a4.42,4.42,0,0,1-6.19.78l-.16-.13a16.29,16.29,0,0,1-1.93-2.41c-1.88-2.28-4-3-6.29-2.65-1.43.2-2.35,1.25-2.79,3.07a8.77,8.77,0,0,0,3.95,8.84c3.2,1.95,6.36,1.64,9.49-.89a2.56,2.56,0,0,1,4.43,1.27c1,3.8-1.91,7.41-4.48,7.33a18.22,18.22,0,0,1-17.33,1,15.15,15.15,0,0,1-7.68-8.43q-2-6.4.81-11.16"/><path class="cls-2" d="M36.49,4.54c1.9-.63,3.45-.4,4.47,1.1,2.4,3.26,2.64,6.83.24,8.69-1.78,1.44-4.35.66-5.65-1.56-1.83-3.08-4.38-4.42-7.72-3.84-2.7.64-3.95,2.83-3.41,6.91a9.32,9.32,0,0,0,7.25,7.84,9,9,0,0,0,7.56-2.21c1.09-.95,2.23-.86,2.91.64,1,2.7-1.2,6.74-3.73,6.44A17.17,17.17,0,0,1,22.12,30C16.71,27.29,14,23.21,13.6,17.9A14.33,14.33,0,0,1,19.07,6.43C23.56,3.09,29.12,2,36.49,4.54Z"/><path class="cls-1" d="M16.06,9.65a19.51,19.51,0,0,1,2.68-2.92c3.62-.09,8.19,1.17,13.51,3.5l3.56,2.67.09-3.5a4.64,4.64,0,0,0-1.08-3.59L33,3.13,23.72.83l-4.46,3L19,5.11,13.86,7.18Z"/><path class="cls-3" d="M13.79,6.51a20.79,20.79,0,0,1,10.93.16c-1.82-1-5.66-1.19-10.06-.65,5.41-2.46,14.16-.26,17.59,4.21C25.9,7,20.17,5.41,15.52,6.71a11.65,11.65,0,0,1,2.95-.16,11.16,11.16,0,0,0-2.41,3.1C12.42,8.06,13.17,6.71,13.79,6.51Z"/><path class="cls-3" d="M23.72.83a12.06,12.06,0,0,1,7.94,1.33,18.56,18.56,0,0,1,3.45,4.71,3.87,3.87,0,0,1,.48,2.76l.06,2.9-2.43-1.85L31.9,9.45V6.73l-.19-1.48c-.56-2.7-.43-2.8-2.86-3.76A23.34,23.34,0,0,0,23.72.83Z"/><path class="cls-4" d="M19.26,4.64l.54-1.83C20.45,1.56,21.14,1.2,22.69,1a13.56,13.56,0,0,1,7,.86c1,.33,1.68,1.2,1.81,2.74a15.69,15.69,0,0,1,0,4.22A19.33,19.33,0,0,0,19.26,4.64Z"/><path class="cls-1" d="M15.52,13c0-1.16.87-1.39,1.52-.53h0l.05.06h0c-.86-.38-1.11-.33-1.43.44l-.06,0h0Z"/><path class="cls-1" d="M22.22,13c.93-.7,1.63-.16,1.35.87h0v.07l0,0c-.22-.92-.43-1.08-1.22-.86h-.06v0Z"/><path class="cls-1" d="M15.3,17.53c-.53-2.35-.05-3.67,1.35-4.05,1.29-.08,2.05,1.08,1.1,4.11a.18.18,0,0,1,0,.24.19.19,0,0,1-.22.06A4.27,4.27,0,0,0,15,18c-.23,0-.3-.24,0-.33Z"/><path class="cls-1" d="M19.51,17.84c-.09.15-.08.34.19.26a3.72,3.72,0,0,1,2.48.64c.23.17.43.07.28-.16a.94.94,0,0,0-.37-.25c.81-1.49,1-3.3.07-4.19-1-.71-1.69-.45-2.2.6A6,6,0,0,0,19.51,17.84Z"/><circle class="cls-4" cx="21.26" cy="14.81" r="0.49"/><circle class="cls-4" cx="16.82" cy="14.51" r="0.49"/><path class="cls-4" d="M15.45,15.43a4.17,4.17,0,0,0,.09,1.92,4.63,4.63,0,0,1,2,.12,6.4,6.4,0,0,0,.34-1.73C17.08,17.4,15.7,17.06,15.45,15.43Z"/><path class="cls-4" d="M20.07,15.75a4,4,0,0,0-.16,1.92,4.9,4.9,0,0,1,1.93.36,6.62,6.62,0,0,0,.55-1.68C21.42,17.91,20.1,17.4,20.07,15.75Z"/><ellipse class="cls-1" cx="18.68" cy="19.62" rx="0.72" ry="1.3" transform="translate(-3.26 35.51) rotate(-82.31)"/><ellipse class="cls-4" cx="18.68" cy="19.56" rx="0.5" ry="0.85" transform="translate(-3.81 34.59) rotate(-80.07)"/><path class="cls-1" d="M16.18,20.5l.16.68h.14l.09.05a6,6,0,0,1,1.37,3c.31,1.16,1.34,1.26,2,.3a13.76,13.76,0,0,0,1.72-2.66c.08-.12.2-.18.43-.09s.34-.05.08-.37L21.87,21c-.1-.09-.26-.09-.54.05a5.32,5.32,0,0,1-4.75-.47l-.11-.07Z"/><path class="cls-2" d="M18.11,23.59c.11.77.29,1.42,1,1.23a2.31,2.31,0,0,0,1-.95C19.38,23.25,18.72,23.12,18.11,23.59Z"/><path class="cls-1" d="M18,25.59c-.24-.2-.43.13-.23.3a1.33,1.33,0,0,0,1.33.46,1.52,1.52,0,0,0,.82-.61c.17-.17-.13-.43-.27-.21A1,1,0,0,1,18,25.59Z"/><path class="cls-1" d="M21.46,2.17l.08,0h0V2.07c-.22-.26-.05-.33.39-.26,0,0,0,0,.05-.05a.35.35,0,0,1,.43-.17,1,1,0,0,1,.68.35l.25.17a.11.11,0,0,0,.08,0,.37.37,0,0,1,.36.31.63.63,0,0,1-.18.65A.36.36,0,0,1,23.1,3V3a.67.67,0,0,1-.1-.23.53.53,0,0,0-.44-.35.28.28,0,0,0-.28.17.72.72,0,0,0,.1.79.63.63,0,0,0,.77.15.21.21,0,0,1,.29.07.31.31,0,0,1,0,.13.47.47,0,0,1-.53.47,1.47,1.47,0,0,1-1.38-.33A1.25,1.25,0,0,1,21.14,3a1.06,1.06,0,0,1,.32-.86"/><path class="cls-2" d="M23.34,2.18a.31.31,0,0,1,.33.19c.11.32,0,.6-.19.69a.3.3,0,0,1-.38-.21.06.06,0,0,1,0,0,.58.58,0,0,0-.52-.48c-.23,0-.37.13-.43.46a.72.72,0,0,0,1,.78c.11,0,.2,0,.21.12s-.25.5-.43.43a1.4,1.4,0,0,1-1.29-.27,1.11,1.11,0,0,1-.39-1.13A1.17,1.17,0,0,1,22,1.94,1.46,1.46,0,0,1,23.34,2.18Z"/><path class="cls-1" d="M21.62,2.12A2.61,2.61,0,0,1,21.9,2a2.91,2.91,0,0,1,1,.6l.21.29.09-.29a.32.32,0,0,0,0-.3L23.09,2l-.68-.4L22,1.73l-.05.09-.43.05Z"/><path class="cls-3" d="M21.52,1.81a1.65,1.65,0,0,1,.86.27,1.53,1.53,0,0,0-.77-.28,1.33,1.33,0,0,1,1.29.73,2,2,0,0,0-1.23-.66l.24.06a.8.8,0,0,0-.27.18C21.36,1.9,21.47,1.81,21.52,1.81Z"/><path class="cls-3" d="M22.43,1.6a1,1,0,0,1,.59.29,1.59,1.59,0,0,1,.16.43.31.31,0,0,1,0,.23l-.06.24-.16-.2-.06-.12.06-.22V2.13c0-.22,0-.23-.13-.36A1.76,1.76,0,0,0,22.43,1.6Z"/><path class="cls-4" d="M22,1.79l.09-.13a.25.25,0,0,1,.26-.07,1.1,1.1,0,0,1,.53.23c.08.05.1.13.08.26a1.39,1.39,0,0,1-.1.33A1.58,1.58,0,0,0,22,1.79Z"/><path class="cls-1" d="M21.51,2.36c0-.09.1-.09.13,0h0c-.06,0-.09,0-.13,0Z"/><path class="cls-1" d="M22,2.51c.09,0,.13,0,.08.1h0c0-.08,0-.09-.07-.09h0Z"/><path class="cls-1" d="M21.38,2.71c0-.19.08-.29.2-.28s.14.13,0,.34h0a.33.33,0,0,0-.22,0,0,0,0,0,1,0,0Z"/><path class="cls-1" d="M21.71,2.83v0a.27.27,0,0,1,.17.11h0s0,0,0,0a.31.31,0,0,0,.1-.33c0-.09-.12-.08-.19,0A.47.47,0,0,0,21.71,2.83Z"/><circle class="cls-4" cx="21.91" cy="2.64" r="0.04"/><circle class="cls-4" cx="21.57" cy="2.51" r="0.04"/><path class="cls-4" d="M21.44,2.55a.42.42,0,0,0,0,.15.34.34,0,0,1,.15.06.33.33,0,0,0,.07-.13C21.52,2.74,21.42,2.69,21.44,2.55Z"/><path class="cls-4" d="M21.79,2.68a.25.25,0,0,0-.05.15l.14.07A.36.36,0,0,0,22,2.78C21.85,2.88,21.76,2.81,21.79,2.68Z"/><ellipse class="cls-1" cx="21.6" cy="2.95" rx="0.06" ry="0.11" transform="translate(10.05 21.44) rotate(-65.81)"/><ellipse class="cls-4" cx="21.6" cy="2.95" rx="0.04" ry="0.07" transform="translate(9.34 20.98) rotate(-63.57)"/><path class="cls-1" d="M21.38,3V3h0a.5.5,0,0,1,0,.27c0,.1.07.13.15.07a1,1,0,0,0,.22-.18,0,0,0,0,1,0,0h0s0,0,0,0V3.13h0A.41.41,0,0,1,21.41,3h0Z"/><path class="cls-2" d="M21.46,3.25c0,.06,0,.12.05.12l.1-.05A.12.12,0,0,0,21.46,3.25Z"/><path class="cls-1" d="M21.41,3.41s0,0,0,0a.11.11,0,0,0,.1.07.09.09,0,0,0,.07,0v0a.07.07,0,0,1-.1,0A.07.07,0,0,1,21.41,3.41Z"/><path class="cls-1" d="M23.52,3.41c.09-.13.48-.11.51,0a.25.25,0,0,1,.29.16.28.28,0,0,1,0,.09.41.41,0,0,1,.57,0,.57.57,0,0,1,.08.13c.1-.1.46-.11.48,0a.24.24,0,0,1,.33.12h0a.27.27,0,0,1,.37.07.26.26,0,0,1,0,.27.44.44,0,0,1,.15-.12.44.44,0,0,1,.6.14l0,.09c.08-.14.16-.16.23-.13a2.6,2.6,0,0,0,.36.13c.1,0,.17.06.17.15h.07c-.19-.19.06-.43.31-.32a.19.19,0,0,1,.16.21.21.21,0,0,1-.1.14s0,.08,0,.17l.06,0c.22,0,.41-.06.44.07a.3.3,0,0,1,.38.22v0A.37.37,0,0,1,29.34,5c.14,0,.22,0,.24.1a.31.31,0,0,1,.28,0c.16.12.14.34,0,.64,0,0,0,.08,0,.09a.19.19,0,0,1,0,.18c-.1.11-.43,0-.52-.09a.46.46,0,0,1-.43-.14.5.5,0,0,1-.47-.13A.45.45,0,0,1,28,5.54a.47.47,0,0,1-.51-.16c-.06,0-.12.07-.16,0a1.76,1.76,0,0,0-.44-.15.13.13,0,0,1-.12-.13A.76.76,0,0,1,27,4.78l-.07,0a.57.57,0,0,1-.24.33.42.42,0,0,1-.6-.1A.52.52,0,0,1,26,4.83c0,.19-.35.18-.49,0a.42.42,0,0,1-.4-.12c-.15.06-.43,0-.43-.19a.43.43,0,0,1-.56-.11A.58.58,0,0,1,24.09,4a.21.21,0,0,1-.22-.05l0,.12v0c.09.1.08.18,0,.25a.49.49,0,0,1-.53-.16.21.21,0,0,1,.05-.22.05.05,0,0,1,0,0l.12-.29A.15.15,0,0,1,23.52,3.41Z"/><path class="cls-2" d="M23.49,3.94c-.08,0-.12.07-.1.13s.14.14.35.18.16-.07.1-.15,0-.08,0-.13l0-.12c0-.1.05-.15.06-.12s0,.15.11.16.24-.1.22-.27a.15.15,0,0,0-.17-.14l-.08,0s0,.06-.05,0,0-.13,0-.13c-.38-.06-.43.09-.32.17A1.5,1.5,0,0,1,23.49,3.94Z"/><path class="cls-2" d="M24.9,4.07c0,.07-.06.1-.12.08l-.26-.07s-.05,0-.05,0c0,.17.1.23.29.16s0,.08,0,.16a.34.34,0,0,1-.46,0,.48.48,0,0,1,.08-.67.46.46,0,0,1,.25-.1.33.33,0,0,1,.29.36A.29.29,0,0,1,24.9,4.07Z"/><path class="cls-2" d="M25,4c0-.07,0-.12,0-.15a.41.41,0,0,1,.22,0s.09,0,.09.06l0,.09s0,0,0,0,.31-.08.33.07,0,.06.1,0,.33,0,.28.24L26,4.73c0,.07,0,.13,0,.15a.35.35,0,0,1-.32-.08c0-.07,0-.1,0-.15a1.7,1.7,0,0,0,.1-.37c0-.07,0-.08-.08-.06a1.21,1.21,0,0,0-.1.36.16.16,0,0,1-.05.16c-.07,0-.17,0-.29,0s0-.09,0-.16a.12.12,0,0,0,.06-.08,2.68,2.68,0,0,0,.07-.27c0-.1-.07-.11-.1,0l-.08.29c0,.08,0,.15-.07.17a.34.34,0,0,1-.26,0c-.07,0-.07-.09,0-.15a.2.2,0,0,0,.08-.1L25,4.05Z"/><path class="cls-2" d="M26.65,4.22a.43.43,0,0,0-.53.3.51.51,0,0,0,0,.3.35.35,0,0,0,.4.24.46.46,0,0,0,.37-.45A.35.35,0,0,0,26.65,4.22Z"/><path class="cls-2" d="M27.12,4.39c-.16.18-.15.27-.08.3s.06,0,.09-.06l0,0c.09,0,.12,0,.09.07l-.18.19L26.9,5c-.06.08-.07.14,0,.17a1.42,1.42,0,0,1,.4.12c.05,0,.11,0,.16,0A.27.27,0,0,0,27.53,5c0-.06-.07,0-.12,0s-.08.06-.12,0,0,0,.05-.1l.28-.33c.05-.07.05-.12,0-.15a1.28,1.28,0,0,1-.43-.14Z"/><ellipse class="cls-2" cx="28.01" cy="4.43" rx="0.13" ry="0.19" transform="translate(22.56 32.26) rotate(-87.91)"/><path class="cls-2" d="M27.78,4.65a1,1,0,0,1,.34,0s0,0,0,.06L28,5.22a.13.13,0,0,0,0,.12c0,.08,0,.13-.08.14a.39.39,0,0,1-.34-.13c-.06-.08,0-.12.06-.14s0,0,0-.07l.08-.26a.09.09,0,0,0,0-.11.07.07,0,0,1,0-.11Z"/><path class="cls-2" d="M28.13,5.37c-.07,0-.11.11,0,.19a.44.44,0,0,0,.28.05.09.09,0,0,0,.05-.12v0a.54.54,0,0,1,.05-.22l0-.11a.08.08,0,0,1,.08-.08.08.08,0,0,1,.07.08h0a.88.88,0,0,1-.1.35c-.07,0-.11.13,0,.18a.45.45,0,0,0,.34.06.11.11,0,0,0,0-.15A.63.63,0,0,1,29,5.35c.1-.28.05-.4-.05-.45a.21.21,0,0,0-.27,0s0,0,0,0,0-.11-.08-.11a1.07,1.07,0,0,0-.25,0,.08.08,0,0,0-.06.1.05.05,0,0,0,0,0s0,0,0,.08l-.12.35Z"/><path class="cls-2" d="M29,5.64c-.06,0-.11.11,0,.19a.58.58,0,0,0,.29,0,.1.1,0,0,0,0-.12v0a.6.6,0,0,1,.06-.22l0-.11a.05.05,0,0,1,.07,0,.06.06,0,0,1,0,0,.88.88,0,0,1-.1.35c-.07,0-.12.13,0,.18s.27.1.34.06.05-.1,0-.16,0-.11.06-.22c.1-.29.05-.4-.05-.45a.2.2,0,0,0-.27,0s0,0,0,0,0-.12-.08-.12a1.15,1.15,0,0,0-.26,0,.1.1,0,0,0-.06.11l0,0s0,.05,0,.08l-.12.35Z"/></svg>