<svg id="prefix__Camada_1" data-name="Camada 1" xmlns="http://www.w3.org/2000/svg" viewBox="0 0 167.78 82.22"><defs><filter id="prefix__luminosity-invert-noclip" x="83.46" y="35.81" width="9.58" height="12.18" filterUnits="userSpaceOnUse" color-interpolation-filters="sRGB"><feColorMatrix values="-1 0 0 0 1 0 -1 0 0 1 0 0 -1 0 1 0 0 0 1 0" result="invert"/><feFlood flood-color="#fff" result="bg"/><feBlend in="invert" in2="bg"/></filter><filter id="prefix__luminosity-invert-noclip-2" x="111.33" y="35.89" width="10.62" height="11.96" filterUnits="userSpaceOnUse" color-interpolation-filters="sRGB"><feColorMatrix values="-1 0 0 0 1 0 -1 0 0 1 0 0 -1 0 1 0 0 0 1 0" result="invert"/><feFlood flood-color="#fff" result="bg"/><feBlend in="invert" in2="bg"/></filter><filter id="prefix__luminosity-invert-noclip-3" x="28.44" y="8.52" width="1.7" height="2.03" filterUnits="userSpaceOnUse" color-interpolation-filters="sRGB"><feColorMatrix values="-1 0 0 0 1 0 -1 0 0 1 0 0 -1 0 1 0 0 0 1 0" result="invert"/><feFlood flood-color="#fff" result="bg"/><feBlend in="invert" in2="bg"/></filter><filter id="prefix__luminosity-invert-noclip-4" x="32.97" y="9.88" width="1.84" height="1.99" filterUnits="userSpaceOnUse" color-interpolation-filters="sRGB"><feColorMatrix values="-1 0 0 0 1 0 -1 0 0 1 0 0 -1 0 1 0 0 0 1 0" result="invert"/><feFlood flood-color="#fff" result="bg"/><feBlend in="invert" in2="bg"/></filter><mask id="prefix__mask" x="83.46" y="35.81" width="9.58" height="12.18" maskUnits="userSpaceOnUse"><path d="M87.44 39.62c.09-1.25.6-1.78 1.53-1.57a1.6 1.6 0 01.62 1.64c0 .27-.3.41-.86.41h-.87c-.32 0-.48-.16-.42-.48z" filter="url(#prefix__luminosity-invert-noclip)" fill="#fff"/></mask><mask id="prefix__mask-2" x="111.33" y="35.89" width="10.62" height="11.96" maskUnits="userSpaceOnUse"><path d="M115.75 39c-.52 1.11-.15 5.41 1 6.08.6.48 1 0 1.09-1.45-.12-2.28-.45-4-1.2-4.77-.22-.3-.52-.25-.89.14z" filter="url(#prefix__luminosity-invert-noclip-2)" fill="#fff"/></mask><mask id="prefix__mask-3" x="28.44" y="8.52" width="1.7" height="2.03" maskUnits="userSpaceOnUse"><path d="M29.25 9.11q.12-.3.33-.18a.3.3 0 010 .3H29.28c-.03-.04-.05-.07-.03-.12z" filter="url(#prefix__luminosity-invert-noclip-3)" fill="#fff"/></mask><mask id="prefix__mask-4" x="32.97" y="9.88" width="1.84" height="1.99" maskUnits="userSpaceOnUse"><path d="M33.87 10.36c-.14.15-.29.87-.13 1s.15 0 .24-.18a1.42 1.42 0 000-.83c.02-.02-.04-.03-.11.01z" filter="url(#prefix__luminosity-invert-noclip-4)" fill="#fff"/></mask><style>.prefix__cls-7{fill:#fff}.prefix__cls-5{fill:#e63b30}.prefix__cls-6{fill:#057dc1}</style></defs><path d="M5.67 25.46l1.43-2.65c.26-.76 0-.92-.67-1.31-8-5.43-3.92-8.63 8.69-10.28.6 0 .9-.62.94-1.76 1.35-5.08 4.71-7.84 10.11-8.22 8.9-.58 16.53.46 21.41 5L56 8.6a2.88 2.88 0 002.26-.29C63 7 67.18 8.66 70.46 14c3.59 6.84 4.36 14.58.54 19.08a10.23 10.23 0 01-14.71 1.52c-1.19-.91-2.58-3.1-4.49-5.57-4.35-5.29-9.27-7-14.58-6.16-3.32.47-5.44 2.91-6.46 7.14-.94 8.42 1.71 15.41 9.16 20.48 7.42 4.53 14.75 3.81 22-2.06 3.34-3.35 8.75-2.4 10.28 2.94 2.36 8.83-4.44 17.18-10.38 17-11.82 7.49-26.49 8.51-40.19 2.45C12.39 66 6.69 59.35 3.81 51.27Q-.8 36.44 5.7 25.41"/><path class="prefix__cls-5" d="M57 10.65c4.42-1.46 8-.91 10.38 2.55 5.52 7.57 6.11 15.86.51 20.15-4.13 3.35-10.09 1.54-13.09-3.61-4.21-7.14-10.12-10.25-17.92-8.9-6.26 1.49-9.15 6.56-7.91 16C30.57 45.37 35.23 52 45.81 55c6.7 1.09 12.46-.88 17.52-5.14 2.53-2.19 5.17-2 6.76 1.48 2.27 6.26-2.8 15.63-8.65 15-12 7.6-24.62 8.37-37.78 3.25C11.12 63.42 4.87 53.94 3.91 41.64c-.08-11.46 4.85-19.9 12.69-26.58C27 7.3 39.93 4.74 57 10.65z"/><path d="M9.61 22.52a45.71 45.71 0 016.21-6.78c8.39-.22 19 2.71 31.32 8.11l8.27 6.22.2-8.11a10.67 10.67 0 00-2.5-8.32L49 7.4 27.36 2 17 9.11 16.35 12 4.52 16.78z"/><path class="prefix__cls-6" d="M4.35 15.22a48.44 48.44 0 0125.34.37c-4.22-2.33-13.13-2.76-23.33-1.49 12.55-5.71 32.83-.61 40.78 9.75-14.71-7.42-28-11.17-38.79-8.16a27.79 27.79 0 016.84-.37 25.94 25.94 0 00-5.58 7.2c-8.44-3.7-6.67-6.83-5.26-7.3z"/><path class="prefix__cls-6" d="M27.36 2a28.11 28.11 0 0118.43 3.14 43.62 43.62 0 018 10.92 8.93 8.93 0 011.15 6.39l.13 6.73-5.64-4.29-3.08-2.81v-6.36l-.44-3.41c-1.28-6.22-1-6.49-6.63-8.73A54.88 54.88 0 0027.36 2z"/><path class="prefix__cls-7" d="M17 10.89l1.25-4.23c1.49-2.91 3.1-3.75 6.7-4.12a31.48 31.48 0 0116.21 2c2.41.75 3.88 2.77 4.18 6.36a35.52 35.52 0 010 9.77A44.94 44.94 0 0017 10.89z"/><path d="M8.37 30.16c0-2.69 2-3.22 3.52-1.23l.11.15h-.09c-2-.9-2.58-.77-3.33 1l-.12.09h-.05zM23.86 30.17c2.14-1.64 3.78-.37 3.13 2l-.05.18-.09-.05c-.52-2.15-1-2.51-2.84-2h-.14zM7.84 40.79c-1.22-5.47-.1-8.52 3.14-9.4 3-.2 4.75 2.5 2.54 9.53a.39.39 0 11-.4.68 10.24 10.24 0 00-5.92.16c-.54 0-.69-.55-.12-.76zM17.62 41.49c-.22.35-.18.79.42.62a8.47 8.47 0 015.75 1.48c.54.38 1 .15.67-.37a2 2 0 00-.87-.59c1.89-3.46 2.29-7.64.16-9.71-2.25-1.66-3.91-1-5.1 1.39a13.72 13.72 0 00-1.03 7.18z"/><circle class="prefix__cls-7" cx="21.66" cy="34.46" r="1.14"/><circle class="prefix__cls-7" cx="11.37" cy="33.76" r="1.14"/><path class="prefix__cls-7" d="M8.2 35.9a9.56 9.56 0 00.21 4.45 11.32 11.32 0 014.54.27 14.7 14.7 0 00.79-4C12 40.46 8.78 39.69 8.2 35.9zM18.88 36.65a9.57 9.57 0 00-.37 4.44 11.35 11.35 0 014.48.85A14.68 14.68 0 0024.28 38c-2.28 3.66-5.28 2.48-5.4-1.35z"/><ellipse cx="15.69" cy="45.62" rx="1.66" ry="3.02" transform="rotate(-82.31 15.692 45.613)"/><ellipse class="prefix__cls-7" cx="15.69" cy="45.48" rx="1.17" ry="1.96" transform="rotate(-80.07 15.697 45.481)"/><path d="M9.85 47.67l.36 1.58h.32l.22.11a13.73 13.73 0 013.16 7c.72 2.68 3.11 2.93 4.71.7a32.19 32.19 0 004-6.16c.17-.3.45-.43 1-.22.57.06.78-.12.18-.86l-.77-1c-.22-.2-.6-.21-1.26.12a12.22 12.22 0 01-11-1.08l-.25-.16z"/><path class="prefix__cls-5" d="M14.36 54.84c.25 1.77.67 3.29 2.37 2.84A5.45 5.45 0 0019 55.47c-1.69-1.47-3.23-1.74-4.64-.63z"/><path d="M14.12 59.46c-.56-.46-1 .31-.54.71a3.06 3.06 0 003.08 1 3.37 3.37 0 001.89-1.41c.41-.39-.29-1-.61-.49-1.16 1.52-2.44 1.56-3.82.19zM72.16 37.62c.75-2.14 6-3.46 6.76-2.15 1.84-1.14 4.1-.39 4.89 2.11 2.39-3.39 6.82-3.58 9.19-.46.88-1.79 5.71-3.27 6.45-1.38a3.4 3.4 0 014.93.36c2.13-2.48 6.53-1.28 6.45 3a7.48 7.48 0 011.51-2.22 6.15 6.15 0 019.63.64c.59-2.19 1.5-2.8 2.56-2.64a23.79 23.79 0 005.27.24c1.34-.06 2.46.16 2.86 1.35a2.2 2.2 0 01.81-.48c-3.17-1.76-.9-5.83 2.83-5.44a2.58 2.58 0 012.1 4.4c.64.15 1 .79.93 2.19a2.6 2.6 0 01.75-.79c2.66-1.46 5-2.39 5.94-.81a4.34 4.34 0 016.22 2c.54-1.24 1.91-1.81 3.37-2.32 1.71-.68 2.92-.62 3.51.35a4.07 4.07 0 013.83-.32c2.54.86 3.26 3.84 2.73 8.3-.06.66 0 1.15.21 1.25a2.22 2.22 0 01.48 2.42c-.87 1.78-5.37 2.14-7.17.78-1.21 1-5 1.1-6.38-.17-.75 1.19-5.4 1.35-6.65.17-1.44 1.22-5.27 1.17-6.53-.25-.86 1.36-6.07 1.6-7.26-.16-.71 1-1.39 1.52-2 1.33a24.78 24.78 0 00-6.13-.29 1.9 1.9 0 01-2.2-1.19c-.25-1.67.8-3.79 2-6a1.86 1.86 0 01-1-.06 8.1 8.1 0 01-1.87 5.34c-2.9 3.08-7.21 3.08-9.75-.69.38 2.61-3.92 3.76-6.51 2-1.52 1-4.65 1-5.77 0-1.76 1.34-5.87.93-6.29-.94-2.38 2.22-5.27 2.48-7.73.7-1.89-1.38-2.48-3.45-2.64-5.75a2.87 2.87 0 01-3.07.2v1.73a.4.4 0 00.18.34c1.49 1 1.71 2.1.77 3.35-1.31 1.53-6.2 1.67-7.69 0a2.63 2.63 0 01-.12-3.08c0-.27.23-.36.46-.43l.14-4.06a2 2 0 01-1-2.47z"/><path class="prefix__cls-5" d="M74 44.49c-.93.74-1.27 1.46-.85 2.17.41 1.12 2.48 1.28 5.35 1 1.67-.23 1.76-1.51.78-2.43-.71-.23-.85-.83-.86-1.52v-2c0-1.47.17-2.13.41-1.76.64 1.22 1.3 1.75 2 1.64 2-.25 2.8-2.29 1.89-4.44-1.16-1.69-2.72-1.58-3.72-.4-.16.74-.34 1-.56.79.09-1.5-.31-1.79-.88-1.63-5.16.67-5.16 2.82-3.58 3.49a19.66 19.66 0 01.02 5.09z"/><g mask="url(#prefix__mask)"><path class="prefix__cls-5" d="M93 40.79c0 1-.38 1.55-1.17 1.48l-3.79.11c-.53-.14-.66.1-.62.5.82 2.22 2.29 2.58 4.46 1 .77-.22 1.06.74.48 2.09-1.81 2-3.84 2.62-6.16 1.41-4.73-3.24-2.84-10 1.31-11.43 2.77-.65 5.32 1.13 5.49 4.84z"/></g><path class="prefix__cls-5" d="M94.24 39.16c-.6-.78-.78-1.52 0-2.17A6.24 6.24 0 0197 35.94c.68-.13 1.34-.22 1.49.4l.05 1.23c.23.34.43.29.62-.06 1.23-1.95 3.7-2.33 4.58-.42.53.61.67.71 1.28-.27 1.87-2 4.45-1 4.76 2.1a44.28 44.28 0 00.07 6.07c.51.91.7 1.69.24 2.21a4.81 4.81 0 01-4.45.18c-.89-.72-.63-1.32-.16-2.2a19.32 19.32 0 000-5c-.2-.9-.65-.84-1.19-.42a18.76 18.76 0 00-.07 5.19 2 2 0 01.09 2.22c-.77.77-2.23.81-4.1.43-.74-.34-.94-1-.6-2a1.6 1.6 0 00.45-1.22 29.19 29.19 0 00-.1-3.94c-.18-1.33-1.26-1.1-1.35.13v4.19c.44 1.07.47 2-.21 2.56a4.77 4.77 0 01-3.58.31c-1-.23-1.31-.89-.91-2a2 2 0 00.6-1.6v-4.1z"/><g mask="url(#prefix__mask-2)"><path class="prefix__cls-5" d="M116.72 35.89c-3.54 0-7.36 4.62-4.24 9.86 1.4 2.11 3.49 2.57 6.17 1.65 2.64-1.39 3.66-3.9 3.18-7.43a5.07 5.07 0 00-5.11-4.08z"/></g><path class="prefix__cls-5" d="M123.51 36.35c-1.31 3-.94 4.09.23 4.21.46 0 .67-.39.89-1.15.05-.19.21-.38.25-.6 1.16-.37 1.66-.21 1.41.51l-1.63 3.19-1.52 3.05c-.47 1.32-.34 2.17 1 2.13a25.21 25.21 0 015.76.1c.83.38 1.42-.2 1.92-1.17.53-1.44.61-2.6 0-3.31-.52-.34-1-.34-1.39.91-.41.63-.78 1.06-1.58.72-.34 0-.31-.48.31-1.57l2.3-5.37c.5-1.17.3-1.87-.93-1.86a21.89 21.89 0 01-6.11-.24c-.29-.17-.6.01-.91.45z"/><ellipse class="prefix__cls-5" cx="135.5" cy="33.4" rx="2.65" ry="1.83" transform="rotate(-14.4 135.512 33.405)"/><path class="prefix__cls-5" d="M133.29 37.22a9.9 9.9 0 014.43-1.39c.34-.06.56.1.57.7v7.22a1.66 1.66 0 00.59 1.61c.62 1 .49 1.71-.57 2.13-2.32.54-4 .56-5-.32-.69-.8-.72-1.53.26-2.13.27-.13.39-.48.35-1.07l-.05-3.77c.15-.61-.16-1-.74-1.29a1.08 1.08 0 01.16-1.69zM140.65 45.31c-.73.73-1 1.81.9 2.4 2 .15 3.36 0 3.94-.45a1.3 1.3 0 000-1.95 7.28 7.28 0 01-.19-3.12v-1.64a.89.89 0 011.7-.45 14.86 14.86 0 01.07 5.06c-.77.83-1 2.13.43 2.44 2.17.29 3.95.27 4.7-.56a1.58 1.58 0 00-.47-2c-.29-.08-.24-1.6-.18-3.15.18-4.21-.88-5.49-2.36-5.8-1.85-.43-2.89.2-3.52 1.35-.32.53-.44.31-.42-.47.09-1.43-.64-1.37-1.48-1.12a10.68 10.68 0 00-3.25 1.39 1.15 1.15 0 000 2c.47.09.64.44.5 1l-.2 5zM153.75 45.31c-.74.73-1 1.81.9 2.4 1.95.15 3.36 0 3.94-.45a1.3 1.3 0 000-1.95 7.24 7.24 0 01-.2-3.12v-1.64a.88.88 0 011.7-.45 14.82 14.82 0 01.08 5.06c-.77.83-1 2.13.43 2.44 2.17.29 3.94.27 4.69-.56a1.58 1.58 0 00-.46-2c-.29-.08-.24-1.6-.18-3.15.18-4.21-.89-5.49-2.36-5.8-1.86-.43-2.89.2-3.53 1.35-.31.53-.43.31-.41-.47.09-1.43-.65-1.37-1.48-1.12a10.74 10.74 0 00-3.26 1.39 1.15 1.15 0 000 2c.47.09.63.44.5 1l-.21 5z"/><path d="M22.13 5.17l.18-.17v-.12c-.51-.61-.11-.77.92-.6.05 0 .08 0 .11-.12a.85.85 0 011-.41 2.3 2.3 0 011.56.89l.6.38a.19.19 0 00.18 0 .86.86 0 01.83.74 1.45 1.45 0 01-.4 1.5.83.83 0 01-1.19-.22 3.21 3.21 0 01-.22-.54 1.24 1.24 0 00-1-.82.66.66 0 00-.68.41 1.65 1.65 0 00.25 1.82 1.45 1.45 0 001.73.37.49.49 0 01.74.46c0 .75-.75 1.25-1.21 1.09a3.47 3.47 0 01-3.21-.74 2.86 2.86 0 01-.94-1.94 2.55 2.55 0 01.75-2"/><path class="prefix__cls-5" d="M26.5 5.2c.38 0 .65.11.75.44.26.72.11 1.38-.43 1.59a.72.72 0 01-.94-.59 1.32 1.32 0 00-1.2-1.11c-.52 0-.86.3-1 1.07a1.69 1.69 0 002.4 1.82c.25-.12.45 0 .49.27 0 .54-.58 1.16-1 1a3.25 3.25 0 01-3-.62 2.65 2.65 0 01-.9-2.65 2.69 2.69 0 011.61-1.78 3.33 3.33 0 013.22.56z"/><path d="M22.51 5a4.3 4.3 0 01.65-.39A6.39 6.39 0 0125.42 6l.5.68.21-.63a.92.92 0 000-.71l-.19-.58-1.56-.93-1 .32-.12.21-1 .1z"/><path class="prefix__cls-6" d="M22.27 4.33a4.09 4.09 0 012 .62 3.76 3.76 0 00-1.8-.66 3.14 3.14 0 013 1.71 4.7 4.7 0 00-2.85-1.54 2.69 2.69 0 01.55.13 2 2 0 00-.61.44c-.62-.49-.41-.69-.29-.7zM24.38 3.83a2.33 2.33 0 011.37.68 3.49 3.49 0 01.37 1 .66.66 0 01-.06.52l-.14.53-.35-.46-.17-.29.15-.5v-.28c0-.52.07-.53-.32-.84a4.84 4.84 0 00-.85-.36z"/><path class="prefix__cls-7" d="M23.36 4.29l.2-.3a.56.56 0 01.62-.17 2.62 2.62 0 011.22.53.52.52 0 01.18.6 3 3 0 01-.22.76 3.7 3.7 0 00-2-1.42z"/><path d="M22.24 5.6c.06-.21.23-.21.3 0-.14-.12-.18-.12-.29 0zM23.45 6c.21-.08.31.06.2.23 0-.18 0-.22-.17-.22zM22 6.42c0-.46.19-.67.46-.66s.32.3 0 .8c0 0 0 .07-.05.05a.8.8 0 00-.46-.13c-.05 0 0-.06 0-.06zM22.7 6.7v.06a.67.67 0 01.41.25h.06a.13.13 0 00-.05-.06c.23-.23.36-.55.24-.76S23.1 6 23 6.16a1.13 1.13 0 00-.3.54z"/><circle class="prefix__cls-7" cx="23.18" cy="6.24" r=".09"/><circle class="prefix__cls-7" cx="22.39" cy="5.95" r=".09"/><path class="prefix__cls-7" d="M22.09 6a.91.91 0 00-.09.4 1 1 0 01.35.12.9.9 0 00.16-.29c-.23.26-.46.12-.42-.23zM22.91 6.35a.76.76 0 00-.13.34 1 1 0 01.33.17 1.15 1.15 0 00.19-.28c-.3.24-.47.07-.39-.23z"/><ellipse cx="22.45" cy="6.98" rx=".14" ry=".25" transform="rotate(-65.81 22.454 6.976)"/><ellipse class="prefix__cls-7" cx="22.46" cy="6.97" rx=".1" ry=".16" transform="rotate(-63.57 22.46 6.971)"/><path d="M22 7v.14a1.11 1.11 0 01.08.62c0 .23.18.3.36.16a2.33 2.33 0 00.45-.39h.08c.03 0 .06 0 0-.07v-.09h-.1A1 1 0 0122 7z"/><path class="prefix__cls-5" d="M22.13 7.67c0 .15 0 .27.12.28a.51.51 0 00.23-.12c-.1-.16-.21-.21-.35-.16z"/><path d="M22 8h-.06a.25.25 0 00.22.15.28.28 0 00.18-.06v-.06A.18.18 0 0122 8zM26.88 8.06c.22-.31 1.13-.28 1.19 0a.55.55 0 01.7.58.93.93 0 011.5.36c.23-.25 1.08-.25 1.11.09a.57.57 0 01.78.29.63.63 0 01.9.8 1.21 1.21 0 01.35-.29 1 1 0 011.53.57c.2-.33.37-.38.54-.31a3.51 3.51 0 00.84.29c.22.06.39.15.4.36a.28.28 0 01.15 0c-.43-.44.13-1 .72-.74a.43.43 0 01.13.81c.09 0 .12.17 0 .4a.59.59 0 01.16-.1c.5-.1.93-.14 1 .16a.72.72 0 01.91.61.89.89 0 01.66-.21c.31 0 .5 0 .55.22a.69.69 0 01.64.13c.37.27.34.78 0 1.48 0 .1-.06.18 0 .21a.37.37 0 010 .41c-.23.27-1 .11-1.19-.2a1.1 1.1 0 01-1-.34c-.18.16-.94 0-1.08-.29a1 1 0 01-1-.35 1.06 1.06 0 01-1.17-.37c-.16.13-.29.17-.39.11a4 4 0 00-1-.34.31.31 0 01-.29-.3 1.81 1.81 0 01.61-.87.27.27 0 01-.17-.06 1.38 1.38 0 01-.55.78 1 1 0 01-1.55-.58c-.06.44-.81.42-1.15 0a1 1 0 01-.93-.28c-.35.13-1-.13-1-.46a1 1 0 01-1.29-.25 1.24 1.24 0 01-.15-1.06.48.48 0 01-.51-.12l-.07.29a.06.06 0 000 .06c.2.23.18.42 0 .58a1.14 1.14 0 01-1.25-.37.44.44 0 01.13-.5h.1l.21-.65a.34.34 0 01-.07-.55z"/><path class="prefix__cls-5" d="M26.84 9.26c-.18.07-.27.17-.24.31s.34.32.82.41c.28 0 .36-.16.25-.36s-.1-.17-.07-.28l.09-.34c.07-.23.12-.33.15-.26q.06.33.24.36c.34.05.56-.24.52-.63a.36.36 0 00-.6-.23c-.07.11-.11.16-.13.1.08-.23 0-.3-.07-.3-.87-.14-1 .21-.74.39a3.41 3.41 0 01-.22.83z"/><g mask="url(#prefix__mask-3)"><path class="prefix__cls-5" d="M30.1 9.57c-.05.16-.13.23-.26.18l-.61-.16c-.08-.05-.12 0-.13.05 0 .4.25.53.68.37.13 0 .13.17 0 .36a.79.79 0 01-1.06-.06 1.11 1.11 0 01.76-1.79.76.76 0 01.62 1.05z"/></g><path class="prefix__cls-5" d="M30.38 9.36c-.06-.15-.06-.28.1-.35A1.1 1.1 0 0131 9c.11 0 .22 0 .22.14l-.05.2c0 .07.06.07.1 0 .29-.25.71-.2.76.15.06.13.08.15.22 0 .4-.24.77.05.67.57a9.66 9.66 0 00-.28 1c0 .18 0 .31-.06.37a.8.8 0 01-.73-.18c-.11-.16 0-.24.08-.36a3.76 3.76 0 00.24-.81c0-.16-.07-.17-.17-.13a2.78 2.78 0 00-.26.84.35.35 0 01-.1.36c-.16.09-.4 0-.68-.13-.1-.09-.1-.21 0-.35a.28.28 0 00.13-.18 4.48 4.48 0 00.17-.64c0-.23-.15-.24-.22 0l-.2.67c0 .2 0 .34-.16.41a.82.82 0 01-.59-.13c-.16-.08-.17-.2-.06-.36a.35.35 0 00.18-.23l.19-.66z"/><g mask="url(#prefix__mask-4)"><path class="prefix__cls-5" d="M34.17 9.91A1 1 0 0033 11.3a.81.81 0 00.92.57 1.1 1.1 0 00.87-1 .85.85 0 00-.62-.96z"/></g><path class="prefix__cls-5" d="M35.25 10.31c-.36.43-.35.62-.17.69s.13 0 .2-.14a.71.71 0 00.07-.09c.21 0 .28.05.2.15l-.41.44-.39.42c-.14.19-.16.34 0 .4a3.86 3.86 0 01.93.29c.11.1.24 0 .36-.1s.23-.39.16-.54-.15-.1-.27.08-.18.14-.29 0 0-.09.12-.24l.65-.75c.13-.17.13-.29-.07-.35a3.72 3.72 0 01-1-.33s-.02.02-.09.07z"/><ellipse class="prefix__cls-5" cx="37.33" cy="10.41" rx=".31" ry=".45" transform="rotate(-87.91 37.324 10.41)"/><path class="prefix__cls-5" d="M36.79 10.92a1.7 1.7 0 01.78 0c.06 0 .09 0 .06.14l-.35 1.17a.3.3 0 000 .29c.06.18 0 .29-.19.31-.4 0-.68-.1-.8-.29s0-.28.15-.33.08-.06.1-.16l.18-.61a.18.18 0 00-.06-.24.19.19 0 01.13-.28zM37.59 12.58c-.15.09-.25.25 0 .43a1.09 1.09 0 00.66.12c.14-.07.15-.18.1-.32a1.25 1.25 0 01.11-.51l.09-.26c.05-.2.27-.17.29 0a2.27 2.27 0 01-.23.83c-.16.1-.27.29 0 .41s.62.24.78.14a.27.27 0 000-.36s0-.27.12-.52c.23-.67.12-.93-.11-1a.47.47 0 00-.63 0c-.08.07-.09 0 0-.09s0-.26-.18-.26a2.4 2.4 0 00-.6.07c-.15.08-.18.18-.09.32s.08.1 0 .19l-.28.81zM39.71 13.21c-.15.08-.25.24 0 .43a1.09 1.09 0 00.66.12.22.22 0 00.09-.32 1.52 1.52 0 01.12-.51l.09-.27a.15.15 0 01.29 0 2.18 2.18 0 01-.23.82c-.16.1-.27.3 0 .42s.63.23.79.13.1-.22 0-.35 0-.27.13-.52c.23-.67.12-.93-.11-1.05a.46.46 0 00-.63.05c-.08.07-.09 0 0-.1s0-.25-.18-.25a1.71 1.71 0 00-.6.07.19.19 0 00-.09.32c.07 0 .08.1 0 .19l-.28.81z"/><path d="M5.08 62.33a2.33 2.33 0 013.32.35A2.31 2.31 0 018.08 66a2.34 2.34 0 01-3.32-.36 2.31 2.31 0 01.32-3.31zM7.28 65a1.15 1.15 0 00.23-1.64 1.14 1.14 0 00-1.63-.1 1.15 1.15 0 00-.24 1.64 1.14 1.14 0 001.64.1zM9.42 65.5l.86.82-.49.51a1 1 0 011.3.18l-.89.99-.07-.07c-.45-.43-1-.4-1.52.18l-.75.79L7 68zM11.36 67.3l.91.76L10 70.75 9.12 70zm.76-1l1 .79-.57.69-1-.79zM10.33 71.84l.78-.44a2.26 2.26 0 00.78.94.78.78 0 001.22-.19l.08-.11a1.34 1.34 0 01-1.19-.17 1.5 1.5 0 01-.3-2.19 1.51 1.51 0 012.14-.5 1.36 1.36 0 01.59 1l.23-.34 1 .68-1.51 2.18a1.92 1.92 0 01-1.16.89 1.93 1.93 0 01-1.5-.45 3.39 3.39 0 01-1.16-1.3zm3.48-.71a.65.65 0 00-.18-.94.67.67 0 00-1 .16.69.69 0 001.13.78zM16.21 70.81l1 .6-1.77 3-1-.61zm.59-1.07l1.07.63-.46.78-1.07-.63zM17.75 71.74l1.07.53-.22.43a1.24 1.24 0 011.16 0 1.13 1.13 0 01.46 1.66l-1 2-1.06-.53.84-1.7c.17-.34.09-.61-.17-.73a.5.5 0 00-.7.3l-.85 1.7-1.06-.53zM20.19 75.7c.26-.67.9-.83 1.64-.54a2.48 2.48 0 01.7.43v-.06c.14-.33 0-.61-.42-.77a2.22 2.22 0 00-.94-.16l.09-.9a3.37 3.37 0 011.38.25 1.7 1.7 0 011 .87 1.45 1.45 0 010 1.18l-.73 1.88-1.09-.43.13-.34a1.25 1.25 0 01-1.09 0 1 1 0 01-.67-1.41zm2.11.54l.05-.15a1.14 1.14 0 00-.39-.25c-.32-.13-.57 0-.67.2a.37.37 0 00.25.5.55.55 0 00.76-.3zM25.13 73.6l1.13.37-1.46 4.48-1.13-.36zM27.62 77.49A1.61 1.61 0 0129.46 76a1.25 1.25 0 01.91.71l.35-1.61 1.16.25-1 4.61-1.16-.25.1-.46a1.23 1.23 0 01-1.13.31 1.61 1.61 0 01-1.07-2.07zm2.49.53a.72.72 0 00-.5-.91.73.73 0 00-.85.62.7.7 0 101.35.3zM31.83 78.38a1.71 1.71 0 011.93-1.58 1.69 1.69 0 011.44 2.1v.25l-2.24-.3a.69.69 0 00.65.66 1 1 0 00.79-.25l.58.64a1.77 1.77 0 01-1.56.51 1.72 1.72 0 01-1.59-2.03zm2.32 0a.62.62 0 00-.5-.71c-.31 0-.56.18-.67.55zM37.5 78.5a2.31 2.31 0 012.37-2.34 2.53 2.53 0 011.78.67l-.72.88a1.53 1.53 0 00-1.06-.43 1.17 1.17 0 00-1.13 1.23 1.19 1.19 0 001.19 1.27 1.23 1.23 0 00.7-.19V79h-.86v-.92h2v2a2.91 2.91 0 01-1.91.68 2.28 2.28 0 01-2.36-2.26zM42.35 79a1.84 1.84 0 011.7-2 1.82 1.82 0 012 1.64 1.84 1.84 0 01-1.7 2 1.82 1.82 0 01-2-1.64zm2.58-.24a.75.75 0 00-.79-.72.74.74 0 00-.64.84.75.75 0 00.79.72.72.72 0 00.64-.83zM46.16 75.6l1.22-.2.15.89-1.22.21zm.22 1.2l1.18-.19.56 3.45-1.12.19zM48.58 79c-.17-.71.26-1.19 1-1.38a2.72 2.72 0 01.82-.06v-.05c-.08-.35-.35-.5-.79-.4a2.22 2.22 0 00-.86.41l-.44-.79a3.13 3.13 0 011.27-.58 1.73 1.73 0 011.35.11 1.49 1.49 0 01.61 1l.47 2-1.14.27-.09-.35a1.23 1.23 0 01-.86.65 1 1 0 01-1.34-.83zm2-.76v-.16a1.28 1.28 0 00-.47 0c-.33.08-.49.3-.43.55a.37.37 0 00.49.28.55.55 0 00.44-.68zM51.73 75.65l1.12-.4.16.47a1.26 1.26 0 01.77-.88 1.12 1.12 0 011.51.83l.77 2.15-1.12.4-.63-1.78c-.13-.36-.38-.49-.65-.4a.51.51 0 00-.27.72l.61 1.79-1.1.45zM54.88 73.17l1.12-.52.38.83-1.13.52zm.53 1.1l1.08-.5L58 77l-1.08.5zM57 73.52l1-.58.34.62a1 1 0 01.66-1.19l.62 1.13h-.08c-.55.3-.67.79-.28 1.5l.52 1-1 .57zM60.49 74.47c-.42-.59-.2-1.2.45-1.66a2.75 2.75 0 01.74-.36c-.21-.3-.51-.34-.88-.08a2.27 2.27 0 00-.65.7l-.7-.57a3.33 3.33 0 011-1 1.67 1.67 0 011.3-.39 1.46 1.46 0 01.94.69l1.16 1.65-1 .67-.21-.29a1.26 1.26 0 01-.56.93 1 1 0 01-1.59-.29zm1.6-1.47l-.09-.11a1.07 1.07 0 00-.43.19c-.28.2-.35.46-.2.67a.38.38 0 00.56.07.56.56 0 00.16-.82z"/></svg>